SplineFontDB: 3.2
FontName: Elite
FullName: Elite
FamilyName: Elite
Weight: Regular
Copyright: 
Version: 1.000
ItalicAngle: 0
UnderlinePosition: -125
UnderlineWidth: 50
Ascent: 750
Descent: 250
InvalidEm: 0
sfntRevision: 0x00010000
LayerCount: 2
Layer: 0 1 "Back" 1
Layer: 1 1 "Fore" 0
XUID: [1021 711 -854313797 9942661]
StyleMap: 0x0040
FSType: 4
OS2Version: 4
OS2_WeightWidthSlopeOnly: 0
OS2_UseTypoMetrics: 1
CreationTime: 1627101231
ModificationTime: 1628333191
PfmFamily: 17
TTFWeight: 400
TTFWidth: 5
LineGap: 100
VLineGap: 0
Panose: 2 0 0 9 0 0 0 0 0 0
OS2TypoAscent: 750
OS2TypoAOffset: 0
OS2TypoDescent: -250
OS2TypoDOffset: 0
OS2TypoLinegap: 100
OS2WinAscent: 750
OS2WinAOffset: 0
OS2WinDescent: 250
OS2WinDOffset: 0
HheadAscent: 750
HheadAOffset: 0
HheadDescent: -250
HheadDOffset: 0
OS2SubXSize: 650
OS2SubYSize: 600
OS2SubXOff: 0
OS2SubYOff: 75
OS2SupXSize: 650
OS2SupYSize: 600
OS2SupXOff: 0
OS2SupYOff: 350
OS2StrikeYSize: 50
OS2StrikeYPos: 300
OS2CapHeight: 700
OS2XHeight: 500
OS2Vendor: '    '
OS2CodePages: 2000009f.00000000
OS2UnicodeRanges: a00002ef.5280206b.02000000.00000000
MarkAttachClasses: 1
DEI: 91125
TtTable: prep
PUSHW_1
 0
CALL
SVTCA[y-axis]
PUSHW_3
 1
 1
 2
CALL
SVTCA[x-axis]
PUSHW_3
 2
 2
 2
CALL
SVTCA[x-axis]
PUSHW_8
 2
 69
 58
 45
 33
 20
 0
 8
CALL
PUSHW_8
 3
 75
 58
 45
 33
 20
 0
 8
CALL
SVTCA[y-axis]
PUSHW_8
 1
 69
 58
 45
 33
 20
 0
 8
CALL
SVTCA[y-axis]
PUSHW_3
 4
 4
 7
CALL
PUSHW_1
 0
DUP
RCVT
RDTG
ROUND[Black]
RTG
WCVTP
EndTTInstrs
TtTable: fpgm
PUSHW_1
 0
FDEF
MPPEM
PUSHW_1
 9
LT
IF
PUSHB_2
 1
 1
INSTCTRL
EIF
PUSHW_1
 511
SCANCTRL
PUSHW_1
 68
SCVTCI
PUSHW_2
 9
 3
SDS
SDB
ENDF
PUSHW_1
 1
FDEF
DUP
DUP
RCVT
ROUND[Black]
WCVTP
PUSHB_1
 1
ADD
ENDF
PUSHW_1
 2
FDEF
PUSHW_1
 1
LOOPCALL
POP
ENDF
PUSHW_1
 3
FDEF
DUP
GC[cur]
PUSHB_1
 3
CINDEX
GC[cur]
GT
IF
SWAP
EIF
DUP
ROLL
DUP
ROLL
MD[grid]
ABS
ROLL
DUP
GC[cur]
DUP
ROUND[Grey]
SUB
ABS
PUSHB_1
 4
CINDEX
GC[cur]
DUP
ROUND[Grey]
SUB
ABS
GT
IF
SWAP
NEG
ROLL
EIF
MDAP[rnd]
DUP
PUSHB_1
 0
GTEQ
IF

StartChar: a
Encoding: 97 97 3
Width: 650
Flags: W
HStem: 1 100<498.734 560.517> 1 86<196.868 361.407> 425 77<248.631 396.93>
VStem: 100.649 75.9014<101.114 191.625> 128.214 122.286<337.956 400.875> 422.967 81.3185<329.078 400.444> 425.9 69.1<130.604 225.199>
LayerCount: 2
Fore
SplineSet
102 176 m 0,0,1
 105 201 105 201 115.5 219 c 128,-1,2
 126 237 126 237 143.5 250.5 c 128,-1,3
 161 264 161 264 185 273.5 c 128,-1,4
 209 283 209 283 237 291 c 0,5,6
 257 296 257 296 292 300 c 128,-1,7
 327 304 327 304 359 312 c 128,-1,8
 391 320 391 320 410.5 335.5 c 0,9,10
 422.967213115 345.409836066 422.967213115 345.409836066 422.967213115 360.837946788 c 0,11,12
 422.967213115 369.540983607 422.967213115 369.540983607 419 380 c 0,13,14
 415 391 415 391 403.5 399 c 128,-1,15
 392 407 392 407 376.5 413 c 128,-1,16
 361 419 361 419 343.5 422 c 128,-1,17
 326 425 326 425 309 425 c 0,18,19
 286 425 286 425 269 419 c 128,-1,20
 252 413 252 413 247 401 c 0,21,22
 246 397 246 397 246.5 391 c 128,-1,23
 247 385 247 385 248.5 379 c 128,-1,24
 250 373 250 373 250.5 367.5 c 128,-1,25
 251 362 251 362 248 358 c 0,26,27
 238 342 238 342 221.5 333.5 c 128,-1,28
 205 325 205 325 188 325 c 256,29,30
 171 325 171 325 156.5 333 c 128,-1,31
 142 341 142 341 134 359 c 0,32,33
 128.214285714 371.214285714 128.214285714 371.214285714 128.214285714 383.635204082 c 0,34,35
 128.214285714 390.535714286 128.214285714 390.535714286 130 397.5 c 0,36,37
 135 417 135 417 148.5 434.5 c 128,-1,38
 162 452 162 452 180 465 c 128,-1,39
 198 478 198 478 214 484 c 0,40,41
 245 497 245 497 282 500 c 0,42,43
 303 502 303 502 324.5 502 c 128,-1,44
 346 502 346 502 367 499 c 0,45,46
 410 492 410 492 436.5 476.5 c 128,-1,47
 463 461 463 461 477.5 438 c 128,-1,48
 492 415 492 415 497.5 385 c 128,-1,49
 503 355 503 355 504 317 c 0,50,51
 504.285714286 303.857142857 504.285714286 303.857142857 504.285714286 291.530612245 c 0,52,53
 504.285714286 260.714285714 504.285714286 260.714285714 502.5 235 c 0,54,55
 500 199 500 199 497.5 173.5 c 128,-1,56
 495 148 495 148 495 132.5 c 128,-1,57
 495 117 495 117 501 112 c 0,58,59
 516 101 516 101 527 101 c 256,60,61
 538 101 538 101 546 108.5 c 128,-1,62
 554 116 554 116 562 124.5 c 128,-1,63
 570 133 570 133 579.5 140.5 c 128,-1,64
 589 148 589 148 603 148 c 0,65,66
 626 148 626 148 632 131 c 0,67,68
 635.6 120.8 635.6 120.8 635.6 109.16 c 0,69,70
 635.6 101.4 635.6 101.4 634 93 c 0,71,72
 631 75 631 75 620.5 58 c 128,-1,73
 610 41 610 41 596 28.5 c 128,-1,74
 582 16 582 16 567 8.5 c 128,-1,75
 552 1 552 1 539 1 c 0,76,77
 524 1 524 1 508 7 c 128,-1,78
 492 13 492 13 476 21.5 c 128,-1,79
 460 30 460 30 446 39.5 c 128,-1,80
 432 49 432 49 421 56 c 1,81,82
 392 28 392 28 348 14.5 c 128,-1,83
 304 1 304 1 263 1 c 0,84,85
 230 1 230 1 202.5 8 c 128,-1,86
 175 15 175 15 160 28 c 0,87,88
 124 58 124 58 110.5 93 c 0,89,90
 100.648648649 118.540540541 100.648648649 118.540540541 100.648648649 151.003652301 c 0,91,92
 100.648648649 163.027027027 100.648648649 163.027027027 102 176 c 0,0,1
425 188 m 0,93,94
 421 216 421 216 410 225.5 c 128,-1,95
 399 235 399 235 376 235 c 0,96,97
 367 235 367 235 356 234 c 128,-1,98
 345 233 345 233 331 231 c 0,99,100
 314 229 314 229 286.5 225 c 128,-1,101
 259 221 259 221 233.5 211.5 c 128,-1,102
 208 202 208 202 191 185 c 0,103,104
 176.55 170.55 176.55 170.55 176.55 148.875 c 0,105,106
 176.55 145.05 176.55 145.05 177 141 c 0,107,108
 181 109 181 109 203.5 98 c 128,-1,109
 226 87 226 87 252 87 c 0,110,111
 267 87 267 87 281.5 89 c 128,-1,112
 296 91 296 91 307 94 c 0,113,114
 337 101 337 101 360 108.5 c 128,-1,115
 383 116 383 116 398.5 126.5 c 128,-1,116
 414 137 414 137 421 151.5 c 0,117,118
 425.9 161.65 425.9 161.65 425.9 175.475 c 0,119,120
 425.9 181.4 425.9 181.4 425 188 c 0,93,94
EndSplineSet
Validated: 8912897
EndChar

StartChar: b
Encoding: 98 98 4
Width: 650
Flags: W
HStem: -1 80<309.62 454.359> 418.095 83.9048<311.387 478.613> 620 80<30.4972 149.843>
VStem: 162 84<140 353.318 474 616.355> 531.706 79.6167<168.697 361.255>
LayerCount: 2
Fore
SplineSet
246 634 m 2,0,-1
 246 474 l 1,1,2
 282 489 282 489 300.5 493 c 128,-1,3
 319 497 319 497 322 498 c 0,4,5
 338 500 338 500 353 501 c 128,-1,6
 368 502 368 502 382 502 c 0,7,8
 449 502 449 502 495.5 481 c 128,-1,9
 542 460 542 460 569 424 c 128,-1,10
 596 388 596 388 605.5 339 c 0,11,12
 611.322580645 308.967741935 611.322580645 308.967741935 611.322580645 275.930280957 c 0,13,14
 611.322580645 255.064516129 611.322580645 255.064516129 609 233 c 0,15,16
 603 184 603 184 587 141.5 c 128,-1,17
 571 99 571 99 543 67.5 c 128,-1,18
 515 36 515 36 475 17.5 c 128,-1,19
 435 -1 435 -1 381 -1 c 0,20,21
 354 -1 354 -1 338.5 1 c 128,-1,22
 323 3 323 3 310 7.5 c 128,-1,23
 297 12 297 12 283.5 20.5 c 128,-1,24
 270 29 270 29 249 41 c 1,25,26
 239 33 239 33 234 27.5 c 128,-1,27
 229 22 229 22 225 18 c 0,28,29
 219 12 219 12 215 7 c 128,-1,30
 211 2 211 2 205 0 c 0,31,32
 200 -2 200 -2 197 -2 c 128,-1,33
 194 -2 194 -2 189 0 c 256,34,35
 184 2 184 2 181 5 c 128,-1,36
 178 8 178 8 176 10 c 0,37,38
 168 18 168 18 167 23.5 c 128,-1,39
 166 29 166 29 163 36 c 2,40,-1
 163 389 l 2,41,42
 163 474 163 474 162 520.5 c 128,-1,43
 161 567 161 567 158 589.5 c 128,-1,44
 155 612 155 612 150 616.5 c 128,-1,45
 145 621 145 621 137 621 c 0,46,47
 131 621 131 621 120.5 620.5 c 128,-1,48
 110 620 110 620 98 620 c 128,-1,49
 86 620 86 620 73 622 c 128,-1,50
 60 624 60 624 48 628 c 0,51,52
 34 634 34 634 26.5 648 c 128,-1,53
 19 662 19 662 19 677 c 0,54,55
 19 687 19 687 22.5 693.5 c 128,-1,56
 26 700 26 700 34 700 c 2,57,-1
 194 700 l 2,58,59
 214 700 214 700 230 679.5 c 128,-1,60
 246 659 246 659 246 634 c 2,0,-1
392 418 m 0,61,62
 355 417 355 417 328 405 c 128,-1,63
 301 393 301 393 282.5 372.5 c 128,-1,64
 264 352 264 352 254 325 c 128,-1,65
 244 298 244 298 242 266 c 0,66,67
 241 255 241 255 241.5 237 c 128,-1,68
 242 219 242 219 246 199 c 128,-1,69
 250 179 250 179 258 159 c 128,-1,70
 266 139 266 139 281 123 c 0,71,72
 301 102 301 102 332.5 90.5 c 128,-1,73
 364 79 364 79 396 79 c 0,74,75
 422 79 422 79 451 98 c 128,-1,76
 480 117 480 117 501 151.5 c 128,-1,77
 522 186 522 186 529.5 234 c 0,78,79
 531.705882353 248.117647059 531.705882353 248.117647059 531.705882353 263.01384083 c 0,80,81
 531.705882353 298.764705882 531.705882353 298.764705882 519 339 c 0,82,83
 517 345 517 345 511 359 c 128,-1,84
 505 373 505 373 491 386.5 c 128,-1,85
 477 400 477 400 453.5 409.5 c 0,86,87
 432.238095238 418.095238095 432.238095238 418.095238095 399.106575964 418.095238095 c 0,88,89
 395.619047619 418.095238095 395.619047619 418.095238095 392 418 c 0,61,62
EndSplineSet
Validated: 524289
EndChar

StartChar: A
Encoding: 65 65 5
Width: 650
Flags: W
HStem: 0 79<16.7992 94.4199 194.063 236.045 553.385 629.593> 191 71.5<240.097 378.5>
LayerCount: 2
Fore
SplineSet
194 80 m 0,0,1
 196 79 196 79 201 79 c 0,2,3
 222 79 222 79 236.5 74.5 c 128,-1,4
 251 70 251 70 251 44 c 0,5,6
 251 28 251 28 242.5 19.5 c 128,-1,7
 234 11 234 11 221.5 6.5 c 128,-1,8
 209 2 209 2 194.5 1 c 128,-1,9
 180 0 180 0 169 0 c 2,10,-1
 45 0 l 2,11,12
 26 0 26 0 16.5 14 c 128,-1,13
 7 28 7 28 7 43 c 0,14,15
 7 61 7 61 19 67.5 c 128,-1,16
 31 74 31 74 45 78 c 0,17,18
 52 80 52 80 59 82 c 128,-1,19
 66 84 66 84 74 87 c 0,20,21
 90 94 90 94 98 105 c 0,22,23
 103 111 103 111 110.5 132 c 128,-1,24
 118 153 118 153 128 185 c 128,-1,25
 138 217 138 217 149.5 256.5 c 128,-1,26
 161 296 161 296 173 339 c 0,27,28
 185 381 185 381 196 422.5 c 128,-1,29
 207 464 207 464 217 500 c 128,-1,30
 227 536 227 536 234 563.5 c 128,-1,31
 241 591 241 591 245 604 c 0,32,33
 247 611 247 611 249 620 c 128,-1,34
 251 629 251 629 254 638 c 0,35,36
 262 670 262 670 277 681.5 c 128,-1,37
 292 693 292 693 327 693 c 0,38,39
 359 693 359 693 374 682.5 c 128,-1,40
 389 672 389 672 400 643 c 2,41,-1
 409 612 l 1,42,43
 444 508 444 508 472 403.5 c 128,-1,44
 500 299 500 299 525 192 c 0,45,46
 531 169 531 169 537.5 146 c 128,-1,47
 544 123 544 123 553 102 c 0,48,49
 556 93 556 93 561.5 88.5 c 128,-1,50
 567 84 567 84 573 82 c 0,51,52
 581 80 581 80 587 80 c 0,53,54
 592 79 592 79 602 79 c 0,55,56
 617 79 617 79 630 74 c 128,-1,57
 643 69 643 69 643 44 c 0,58,59
 643 27 643 27 634 18.5 c 128,-1,60
 625 10 625 10 613 6 c 0,61,62
 601 1 601 1 587.5 0.5 c 128,-1,63
 574 0 574 0 563 0 c 2,64,-1
 439 0 l 2,65,66
 420 0 420 0 410 13.5 c 128,-1,67
 400 27 400 27 400 43 c 0,68,69
 400 58 400 58 411 67 c 2,70,-1
 421 73 l 2,71,72
 435 77 435 77 446.5 83 c 128,-1,73
 458 89 458 89 458 107 c 0,74,75
 458 143 458 143 439 167 c 128,-1,76
 420 191 420 191 381 191 c 2,77,-1
 258 191 l 2,78,79
 242 191 242 191 228 185 c 128,-1,80
 214 179 214 179 206 166 c 0,81,82
 205 164 205 164 202 152.5 c 128,-1,83
 199 141 199 141 196 128 c 128,-1,84
 193 115 193 115 191 103 c 128,-1,85
 189 91 189 91 189 88 c 0,86,87
 189 82 189 82 194 80 c 0,0,1
409 267 m 0,88,89
 415 271 415 271 415 275 c 0,90,91
 415 285 415 285 408 312.5 c 128,-1,92
 401 340 401 340 390 373 c 0,93,94
 380 406 380 406 371 436 c 128,-1,95
 362 466 362 466 357 480 c 0,96,97
 355 485 355 485 350.5 502 c 128,-1,98
 346 519 346 519 341 537 c 0,99,100
 338 546 338 546 335 554.5 c 128,-1,101
 332 563 332 563 329 570 c 0,102,103
 325 578 325 578 324 579 c 0,104,105
 323 581 323 581 323 581 c 2,106,107
 322 581 322 581 321 579 c 2,108,-1
 320 578 l 2,109,110
 319 576 319 576 319 574 c 0,111,112
 316 565 316 565 308.5 540.5 c 128,-1,113
 301 516 301 516 292 484.5 c 128,-1,114
 283 453 283 453 273 417.5 c 128,-1,115
 263 382 263 382 255 351.5 c 128,-1,116
 247 321 247 321 241.5 299 c 128,-1,117
 236 277 236 277 236 272 c 256,118,119
 236 267 236 267 240 266 c 0,120,121
 243 265 243 265 258 264 c 128,-1,122
 273 263 273 263 290.5 262.5 c 128,-1,123
 308 262 308 262 324 262 c 128,-1,124
 340 262 340 262 345 262 c 256,125,126
 350 262 350 262 359.5 262.5 c 128,-1,127
 369 263 369 263 378.5 263.5 c 128,-1,128
 388 264 388 264 396.5 265 c 128,-1,129
 405 266 405 266 409 267 c 0,88,89
EndSplineSet
Validated: 1
EndChar

StartChar: c
Encoding: 99 99 6
Width: 650
Flags: W
HStem: 0 86.8333<262.718 435.371> 426.222 76.5556<253.822 419.828>
VStem: 99.3429 83.6571<165.049 346.117> 425.5 95<364.264 414.119>
LayerCount: 2
Fore
SplineSet
442 25 m 0,0,1
 389 0 389 0 336 0 c 0,2,3
 291 0 291 0 251.5 17 c 128,-1,4
 212 34 212 34 181.5 63 c 128,-1,5
 151 92 151 92 130.5 130.5 c 128,-1,6
 110 169 110 169 103 212 c 0,7,8
 99.3428571429 234.4 99.3428571429 234.4 99.3428571429 257.217959184 c 0,9,10
 99.3428571429 284.314285714 99.3428571429 284.314285714 104.5 312 c 0,11,12
 114 363 114 363 141 406 c 0,13,14
 156 430 156 430 176 447 c 128,-1,15
 196 464 196 464 217.5 474.5 c 128,-1,16
 239 485 239 485 260.5 491 c 128,-1,17
 282 497 282 497 301 500 c 0,18,19
 317.111111111 502.777777778 317.111111111 502.777777778 334.611111111 502.777777778 c 0,20,21
 348.611111111 502.777777778 348.611111111 502.777777778 363.5 501 c 0,22,23
 397 497 397 497 427.5 484.5 c 128,-1,24
 458 472 458 472 481 450 c 128,-1,25
 504 428 504 428 513 396 c 0,26,27
 520.5 368 520.5 368 520.5 347.25 c 128,-1,28
 520.5 326.5 520.5 326.5 513 313 c 0,29,30
 498 286 498 286 466 284 c 0,31,32
 463.307692308 283.923076923 463.307692308 283.923076923 460.730769231 283.923076923 c 0,33,34
 429.807692308 283.923076923 429.807692308 283.923076923 415.5 295 c 0,35,36
 400 307 400 307 397 324 c 0,37,38
 396.052631579 329.368421053 396.052631579 329.368421053 396.052631579 334.686980609 c 0,39,40
 396.052631579 346.210526316 396.052631579 346.210526316 400.5 357.5 c 0,41,42
 407 374 407 374 417 381 c 0,43,44
 429 389 429 389 425.5 397.5 c 128,-1,45
 422 406 422 406 407 413 c 128,-1,46
 392 420 392 420 369 423.5 c 0,47,48
 351.111111111 426.222222222 351.111111111 426.222222222 331.407407407 426.222222222 c 0,49,50
 325.777777778 426.222222222 325.777777778 426.222222222 320 426 c 0,51,52
 281 425 281 425 252 403 c 128,-1,53
 223 381 223 381 206 349 c 128,-1,54
 189 317 189 317 184.5 278.5 c 0,55,56
 183 265.666666667 183 265.666666667 183 253.111111111 c 0,57,58
 183 228 183 228 189 204 c 0,59,60
 198 170 198 170 217.5 146.5 c 128,-1,61
 237 123 237 123 261 109.5 c 128,-1,62
 285 96 285 96 310 91 c 0,63,64
 330.833333333 86.8333333333 330.833333333 86.8333333333 347.5 86.8333333333 c 0,65,66
 350.833333333 86.8333333333 350.833333333 86.8333333333 354 87 c 0,67,68
 381 89 381 89 406.5 97 c 128,-1,69
 432 105 432 105 453.5 114 c 128,-1,70
 475 123 475 123 492.5 130.5 c 128,-1,71
 510 138 510 138 521 138 c 0,72,73
 531 138 531 138 535 132 c 0,74,75
 541.857142857 123.428571429 541.857142857 123.428571429 541.857142857 114.204081633 c 0,76,77
 541.857142857 107.285714286 541.857142857 107.285714286 538 100 c 0,78,79
 529 83 529 83 511 68 c 128,-1,80
 493 53 493 53 472.5 41.5 c 128,-1,81
 452 30 452 30 442 25 c 0,0,1
EndSplineSet
Validated: 524289
EndChar

StartChar: exclam
Encoding: 33 33 7
Width: 650
Flags: W
HStem: 31 176<265.561 385.433>
VStem: 236 179<58.8416 177.439> 244 170<561.531 703.589> 287 83<278.626 561.309>
LayerCount: 2
Fore
SplineSet
287 323 m 4,0,1
 287 337 287 337 288 351 c 132,-1,2
 289 365 289 365 289 380 c 4,3,4
 289 399 289 399 288 422.5 c 132,-1,5
 287 446 287 446 285 470 c 132,-1,6
 283 494 283 494 278.5 517 c 132,-1,7
 274 540 274 540 267 558 c 4,8,9
 265 565 265 565 262.5 572.5 c 132,-1,10
 260 580 260 580 257 588 c 4,11,12
 252 602 252 602 248 616.5 c 132,-1,13
 244 631 244 631 244 645 c 4,14,15
 244 683 244 683 268.5 707.5 c 132,-1,16
 293 732 293 732 331 732 c 4,17,18
 366 732 366 732 390 706.5 c 132,-1,19
 414 681 414 681 414 645 c 4,20,21
 414 631 414 631 410 616.5 c 132,-1,22
 406 602 406 602 401 588 c 4,23,24
 398 580 398 580 395.5 572.5 c 132,-1,25
 393 565 393 565 391 558 c 4,26,27
 385 543 385 543 382 528 c 4,28,29
 373 480 373 480 371.5 431.5 c 132,-1,30
 370 383 370 383 370 334 c 4,31,32
 370 321 370 321 369 307.5 c 132,-1,33
 368 294 368 294 364 282 c 4,34,35
 359 271 359 271 351.5 264.5 c 132,-1,36
 344 258 344 258 329 258 c 4,37,38
 302 258 302 258 294.5 278 c 132,-1,39
 287 298 287 298 287 323 c 4,0,1
236 118 m 4,40,41
 236 156 236 156 261.5 181.5 c 132,-1,42
 287 207 287 207 325 207 c 4,43,44
 364 207 364 207 389.5 181.5 c 132,-1,45
 415 156 415 156 415 118 c 4,46,47
 415 79 415 79 389.5 55 c 132,-1,48
 364 31 364 31 325 31 c 4,49,50
 287 31 287 31 261.5 55 c 132,-1,51
 236 79 236 79 236 118 c 4,40,41
EndSplineSet
Validated: 8388609
EndChar

StartChar: quotedbl
Encoding: 34 34 8
Width: 650
Flags: W
VStem: 136 139<657.7 838.826> 162 87<491.156 752.774> 379 139<666.453 838.826> 405 86<491.156 745.45>
LayerCount: 2
Fore
SplineSet
490 548 m 4,0,1
 490 538 490 538 488 526.5 c 132,-1,2
 486 515 486 515 481 505.5 c 132,-1,3
 476 496 476 496 467.5 490 c 132,-1,4
 459 484 459 484 447 484 c 4,5,6
 434 484 434 484 425.5 490.5 c 132,-1,7
 417 497 417 497 412.5 507.5 c 132,-1,8
 408 518 408 518 406.5 530 c 132,-1,9
 405 542 405 542 405 552 c 4,10,11
 405 601 405 601 401.5 647.5 c 132,-1,12
 398 694 398 694 385 742 c 4,13,14
 383 753 383 753 381 764.5 c 132,-1,15
 379 776 379 776 379 788 c 4,16,17
 379 818 379 818 398.5 839.5 c 132,-1,18
 418 861 418 861 448 861 c 260,19,20
 478 861 478 861 498 839.5 c 132,-1,21
 518 818 518 818 518 788 c 4,22,23
 518 773 518 773 515.5 758.5 c 132,-1,24
 513 744 513 744 509 730 c 6,25,-1
 503 707 l 5,26,-1
 500 695 l 5,27,28
 491 637 491 637 491 579 c 4,29,30
 491 572 491 572 491 564 c 132,-1,31
 491 556 491 556 490 548 c 4,0,1
248 548 m 4,32,33
 248 538 248 538 246 526.5 c 132,-1,34
 244 515 244 515 239 505.5 c 132,-1,35
 234 496 234 496 225.5 490 c 132,-1,36
 217 484 217 484 204 484 c 260,37,38
 191 484 191 484 182.5 490.5 c 132,-1,39
 174 497 174 497 169.5 507.5 c 132,-1,40
 165 518 165 518 163.5 530 c 132,-1,41
 162 542 162 542 162 552 c 4,42,43
 162 601 162 601 158.5 647.5 c 132,-1,44
 155 694 155 694 142 742 c 4,45,46
 140 753 140 753 138 764.5 c 132,-1,47
 136 776 136 776 136 788 c 4,48,49
 136 818 136 818 155.5 839.5 c 132,-1,50
 175 861 175 861 206 861 c 4,51,52
 236 861 236 861 255.5 839.5 c 132,-1,53
 275 818 275 818 275 788 c 4,54,55
 275 776 275 776 273 764.5 c 132,-1,56
 271 753 271 753 269 742 c 4,57,58
 258 702 258 702 253.5 661.5 c 132,-1,59
 249 621 249 621 249 579 c 4,60,61
 249 572 249 572 249 564 c 132,-1,62
 249 556 249 556 248 548 c 4,32,33
EndSplineSet
Validated: 8388609
EndChar

StartChar: numbersign
Encoding: 35 35 9
Width: 650
Flags: W
HStem: 233 75<264 347> 240.5 61<453.394 513.954> 407 73<188 215.851 318 405> 410.5 61<141.358 215.851>
VStem: 82 90<-34.25 77.1395> 271 90<-34.6086 73.9938> 310.5 63.5<671.242 742.632> 500 63<670.033 742.875>
LayerCount: 2
Fore
SplineSet
158 236 m 1,0,-1
 152 237 l 2,1,2
 143 238 143 238 132.5 240 c 128,-1,3
 122 242 122 242 113 246 c 0,4,5
 104 251 104 251 98.5 256.5 c 128,-1,6
 93 262 93 262 93 273 c 0,7,8
 93 285 93 285 103 291.5 c 128,-1,9
 113 298 113 298 127 301.5 c 128,-1,10
 141 305 141 305 156 306 c 128,-1,11
 171 307 171 307 180 307 c 2,12,-1
 183 308 l 1,13,-1
 184 311 l 2,14,15
 201 356 201 356 214 401 c 2,16,-1
 216 407 l 1,17,-1
 210 407 l 2,18,19
 201 409 201 409 188 410.5 c 128,-1,20
 175 412 175 412 164 417 c 0,21,22
 138 425 138 425 138 445 c 0,23,24
 138 455 138 455 146 461.5 c 128,-1,25
 154 468 154 468 165 471.5 c 128,-1,26
 176 475 176 475 188 476.5 c 128,-1,27
 200 478 200 478 208 479 c 0,28,29
 216 479 216 479 222.5 479.5 c 128,-1,30
 229 480 229 480 234 480 c 2,31,-1
 237 480 l 1,32,-1
 246 511 l 2,33,34
 248 519 248 519 251.5 533.5 c 128,-1,35
 255 548 255 548 259 566.5 c 128,-1,36
 263 585 263 585 268.5 605.5 c 128,-1,37
 274 626 274 626 280 647 c 0,38,39
 294 689 294 689 310.5 717.5 c 128,-1,40
 327 746 327 746 344 746 c 0,41,42
 358 746 358 746 366 733.5 c 128,-1,43
 374 721 374 721 374 707 c 0,44,45
 374 691 374 691 367.5 661.5 c 128,-1,46
 361 632 361 632 352.5 599 c 128,-1,47
 344 566 344 566 335 536 c 128,-1,48
 326 506 326 506 320 488 c 2,49,-1
 318 480 l 1,50,-1
 325 480 l 2,51,52
 349 481 349 481 373.5 481 c 128,-1,53
 398 481 398 481 423 481 c 2,54,-1
 427 481 l 1,55,-1
 435 511 l 2,56,57
 440 527 440 527 448.5 566 c 128,-1,58
 457 605 457 605 470 647 c 0,59,60
 484 689 484 689 500 717.5 c 128,-1,61
 516 746 516 746 533 746 c 0,62,63
 547 746 547 746 555 733.5 c 128,-1,64
 563 721 563 721 563 707 c 0,65,66
 563 691 563 691 556.5 661 c 128,-1,67
 550 631 550 631 540 596 c 0,68,69
 531 562 531 562 522 531 c 128,-1,70
 513 500 513 500 508 482 c 2,71,-1
 506 477 l 1,72,-1
 512 476 l 2,73,74
 520 474 520 474 528.5 472 c 128,-1,75
 537 470 537 470 545 466 c 0,76,77
 561 458 561 458 561 442 c 0,78,79
 561 423 561 423 535 415 c 0,80,81
 529 413 529 413 522.5 411.5 c 128,-1,82
 516 410 516 410 510 409 c 256,83,84
 504 408 504 408 498.5 408 c 128,-1,85
 493 408 493 408 488 407 c 2,86,-1
 485 407 l 1,87,-1
 484 404 l 2,88,89
 476 381 476 381 469.5 358 c 128,-1,90
 463 335 463 335 455 311 c 2,91,-1
 453 306 l 1,92,-1
 459 305 l 2,93,94
 468 303 468 303 478 301.5 c 128,-1,95
 488 300 488 300 497 296 c 0,96,97
 516 286 516 286 516 270 c 0,98,99
 516 258 516 258 506.5 251 c 128,-1,100
 497 244 497 244 484 240.5 c 128,-1,101
 471 237 471 237 456.5 236 c 128,-1,102
 442 235 442 235 433 235 c 2,103,-1
 430 235 l 1,104,-1
 429 231 l 1,105,106
 411 176 411 176 394 120 c 0,107,108
 389 105 389 105 381 74 c 128,-1,109
 373 43 373 43 361 11 c 0,110,111
 348 -22 348 -22 333.5 -44 c 128,-1,112
 319 -66 319 -66 302 -66 c 0,113,114
 287 -66 287 -66 279 -50 c 128,-1,115
 271 -34 271 -34 271 -19 c 0,116,117
 271 -3 271 -3 280 30.5 c 128,-1,118
 289 64 289 64 302 102 c 0,119,120
 314 140 314 140 326 175 c 128,-1,121
 338 210 338 210 344 227 c 2,122,-1
 347 234 l 1,123,-1
 339 234 l 2,124,125
 316 233 316 233 292 233 c 128,-1,126
 268 233 268 233 244 233 c 2,127,-1
 240 233 l 1,128,-1
 239 230 l 2,129,130
 231 203 231 203 222 175.5 c 128,-1,131
 213 148 213 148 205 120 c 0,132,133
 200 105 200 105 192 74 c 128,-1,134
 184 43 184 43 172 11 c 0,135,136
 159 -22 159 -22 144 -44 c 128,-1,137
 129 -66 129 -66 112 -66 c 0,138,139
 98 -66 98 -66 90 -50 c 128,-1,140
 82 -34 82 -34 82 -19 c 0,141,142
 82 -3 82 -3 91 31.5 c 128,-1,143
 100 66 100 66 112 104 c 128,-1,144
 124 142 124 142 136.5 177 c 128,-1,145
 149 212 149 212 156 230 c 2,146,-1
 158 236 l 1,0,-1
264 308 m 1,147,-1
 271 308 l 2,148,149
 296 309 296 309 320.5 309 c 128,-1,150
 345 309 345 309 369 309 c 2,151,-1
 373 309 l 1,152,-1
 374 312 l 2,153,154
 382 335 382 335 389.5 356 c 128,-1,155
 397 377 397 377 403 399 c 2,156,-1
 405 406 l 1,157,-1
 294 405 l 1,158,-1
 264 308 l 1,147,-1
EndSplineSet
Validated: 8388609
EndChar

StartChar: dollar
Encoding: 36 36 10
Width: 650
Flags: W
VStem: 84 103<191.044 309.107> 108 69<549.585 651.376> 289 71<-36.2316 91 168 422 504 698 775 933.2> 438 118<594.134 687.527> 497 71<225.043 349.485>
LayerCount: 2
Fore
SplineSet
289 93 m 1,0,-1
 285 94 l 2,1,2
 277 96 277 96 268.5 98 c 128,-1,3
 260 100 260 100 252 102 c 0,4,5
 219 112 219 112 189 125 c 128,-1,6
 159 138 159 138 135.5 157.5 c 128,-1,7
 112 177 112 177 98 204.5 c 128,-1,8
 84 232 84 232 84 270 c 0,9,10
 84 305 84 305 96.5 322 c 128,-1,11
 109 339 109 339 144 339 c 0,12,13
 164 339 164 339 183.5 328 c 128,-1,14
 203 317 203 317 203 297 c 0,15,16
 203 289 203 289 200.5 281 c 128,-1,17
 198 273 198 273 195 265 c 0,18,19
 193 260 193 260 192 256 c 128,-1,20
 191 252 191 252 190 248 c 0,21,22
 187 239 187 239 187 230 c 0,23,24
 187 213 187 213 197 201.5 c 128,-1,25
 207 190 207 190 222 183 c 128,-1,26
 237 176 237 176 254 173 c 128,-1,27
 271 170 271 170 284 169 c 2,28,-1
 289 168 l 1,29,-1
 289 434 l 1,30,-1
 284 435 l 2,31,32
 275 437 275 437 266 438.5 c 128,-1,33
 257 440 257 440 248 442 c 0,34,35
 218 450 218 450 192.5 465.5 c 128,-1,36
 167 481 167 481 148 503 c 128,-1,37
 129 525 129 525 118.5 552.5 c 128,-1,38
 108 580 108 580 108 612 c 0,39,40
 108 653 108 653 121.5 682.5 c 128,-1,41
 135 712 135 712 158.5 731.5 c 128,-1,42
 182 751 182 751 214 761.5 c 128,-1,43
 246 772 246 772 283 775 c 2,44,-1
 288 775 l 1,45,-1
 288 780 l 2,46,47
 288 791 288 791 287.5 813.5 c 0,48,49
 287.4 818 287.4 818 287.4 822.6 c 0,50,51
 287.4 841 287.4 841 289 861 c 0,52,53
 290 887 290 887 293 907.5 c 128,-1,54
 296 928 296 928 303 935 c 0,55,56
 308 943 308 943 324 943 c 0,57,58
 348 943 348 943 353.5 933.5 c 128,-1,59
 359 924 359 924 359 901 c 2,60,-1
 359 775 l 1,61,-1
 363 774 l 2,62,63
 388 770 388 770 421.5 758.5 c 128,-1,64
 455 747 455 747 485 728.5 c 128,-1,65
 515 710 515 710 535.5 686 c 128,-1,66
 556 662 556 662 556 633 c 0,67,68
 556 601 556 601 537.5 582.5 c 128,-1,69
 519 564 519 564 487 564 c 0,70,71
 478 564 478 564 467.5 567 c 128,-1,72
 457 570 457 570 448 575 c 128,-1,73
 439 580 439 580 433 587.5 c 128,-1,74
 427 595 427 595 427 605 c 0,75,76
 427 611 427 611 428.5 616.5 c 128,-1,77
 430 622 430 622 432 629 c 0,78,79
 434 634 434 634 436 642.5 c 128,-1,80
 438 651 438 651 438 656 c 0,81,82
 438 671 438 671 431 680.5 c 128,-1,83
 424 690 424 690 413 695.5 c 128,-1,84
 402 701 402 701 389 703 c 128,-1,85
 376 705 376 705 364 705 c 2,86,-1
 359 706 l 1,87,-1
 360 491 l 1,88,-1
 363 490 l 2,89,90
 375 486 375 486 387.5 482.5 c 128,-1,91
 400 479 400 479 411 474 c 0,92,93
 439 464 439 464 467 445 c 128,-1,94
 495 426 495 426 517.5 401 c 128,-1,95
 540 376 540 376 554 347 c 128,-1,96
 568 318 568 318 568 287 c 0,97,98
 568 240 568 240 553 204.5 c 128,-1,99
 538 169 538 169 511 145 c 128,-1,100
 484 121 484 121 446.5 107.5 c 128,-1,101
 409 94 409 94 365 91 c 2,102,-1
 360 91 l 1,103,-1
 360 -8 l 2,104,105
 360 -28 360 -28 352 -36.5 c 128,-1,106
 344 -45 344 -45 324 -45 c 0,107,108
 302 -45 302 -45 295 -38.5 c 128,-1,109
 288 -32 288 -32 288 -11 c 2,110,-1
 288 14 l 1,111,-1
 289 64 l 1,112,-1
 289 93 l 1,0,-1
289 504 m 1,113,-1
 288 698 l 1,114,-1
 282 696 l 2,115,116
 269 692 269 692 251 684.5 c 128,-1,117
 233 677 233 677 216.5 666 c 128,-1,118
 200 655 200 655 188.5 640 c 128,-1,119
 177 625 177 625 177 607 c 0,120,121
 177 585 177 585 186.5 567.5 c 128,-1,122
 196 550 196 550 211 537 c 128,-1,123
 226 524 226 524 245 516 c 128,-1,124
 264 508 264 508 283 505 c 2,125,-1
 289 504 l 1,113,-1
360 167 m 1,126,-1
 366 168 l 2,127,128
 384 171 384 171 407 179.5 c 128,-1,129
 430 188 430 188 450 202 c 128,-1,130
 470 216 470 216 483.5 235 c 128,-1,131
 497 254 497 254 497 278 c 0,132,133
 497 307 497 307 486 330.5 c 128,-1,134
 475 354 475 354 456.5 371.5 c 128,-1,135
 438 389 438 389 414.5 401 c 128,-1,136
 391 413 391 413 366 420 c 2,137,-1
 360 422 l 1,138,-1
 360 167 l 1,126,-1
EndSplineSet
Validated: 8912897
EndChar

StartChar: percent
Encoding: 37 37 11
Width: 650
Flags: W
HStem: 4 70<382.056 433.522> 267 82<435.748 490.575> 415 64<160.371 210.414> 661 67<358.26 402> 672 71<212.01 267.697>
VStem: 99 59<484.414 593.778> 314 66<74.0024 184.693> 494 74<159.535 256.172>
LayerCount: 2
Fore
SplineSet
411 653 m 1,0,-1
 402 661 l 1,1,-1
 400 661 l 2,2,3
 385 661 385 661 373.5 653 c 128,-1,4
 362 645 362 645 353 632.5 c 128,-1,5
 344 620 344 620 337 606 c 128,-1,6
 330 592 330 592 325 580 c 0,7,8
 320 569 320 569 315.5 557.5 c 128,-1,9
 311 546 311 546 306 535 c 0,10,11
 295 512 295 512 283 490 c 128,-1,12
 271 468 271 468 255.5 451.5 c 128,-1,13
 240 435 240 435 220 425 c 128,-1,14
 200 415 200 415 173 415 c 0,15,16
 134 415 134 415 116.5 437 c 128,-1,17
 99 459 99 459 99 497 c 0,18,19
 99 549 99 549 114 595 c 0,20,21
 120 616 120 616 132 642 c 128,-1,22
 144 668 144 668 160.5 690.5 c 128,-1,23
 177 713 177 713 197.5 728 c 128,-1,24
 218 743 218 743 242 743 c 0,25,26
 256 743 256 743 268.5 740.5 c 128,-1,27
 281 738 281 738 295 736 c 0,28,29
 303 734 303 734 310 733 c 128,-1,30
 317 732 317 732 324 730 c 0,31,32
 331 729 331 729 338 728.5 c 128,-1,33
 345 728 345 728 352 728 c 0,34,35
 376 728 376 728 401 738 c 2,36,-1
 405 740 l 2,37,38
 413 743 413 743 423.5 750.5 c 128,-1,39
 434 758 434 758 444.5 767 c 128,-1,40
 455 776 455 776 464.5 785 c 128,-1,41
 474 794 474 794 480 800 c 0,42,43
 501 820 501 820 517 834.5 c 128,-1,44
 533 849 533 849 541 849 c 0,45,46
 547 849 547 849 553 845 c 128,-1,47
 559 841 559 841 564 835 c 128,-1,48
 569 829 569 829 572 822 c 128,-1,49
 575 815 575 815 575 809 c 0,50,51
 575 800 575 800 569.5 783.5 c 128,-1,52
 564 767 564 767 554.5 745.5 c 128,-1,53
 545 724 545 724 532.5 699 c 128,-1,54
 520 674 520 674 506 647 c 0,55,56
 493 621 493 621 479 595 c 128,-1,57
 465 569 465 569 452.5 546.5 c 128,-1,58
 440 524 440 524 430 506.5 c 128,-1,59
 420 489 420 489 414 479 c 0,60,61
 351 357 351 357 294.5 233 c 128,-1,62
 238 109 238 109 187 -19 c 0,63,64
 183 -31 183 -31 176 -47 c 128,-1,65
 169 -63 169 -63 159 -78 c 128,-1,66
 149 -93 149 -93 137 -103.5 c 128,-1,67
 125 -114 125 -114 110 -114 c 0,68,69
 93 -114 93 -114 86.5 -104.5 c 128,-1,70
 80 -95 80 -95 80 -78 c 0,71,72
 80 -64 80 -64 86 -47.5 c 128,-1,73
 92 -31 92 -31 102 -14 c 0,74,75
 111 3 111 3 120.5 19.5 c 128,-1,76
 130 36 130 36 137 50 c 0,77,78
 163 99 163 99 186.5 148 c 128,-1,79
 210 197 210 197 233 248 c 0,80,81
 273 334 273 334 312 418.5 c 128,-1,82
 351 503 351 503 389 590 c 0,83,84
 397 609 397 609 403.5 626 c 128,-1,85
 410 643 410 643 411 650 c 2,86,-1
 411 653 l 1,0,-1
178 479 m 0,87,88
 190 479 190 479 203 492.5 c 128,-1,89
 216 506 216 506 227.5 524.5 c 128,-1,90
 239 543 239 543 248 562 c 128,-1,91
 257 581 257 581 261 591 c 0,92,93
 265 602 265 602 268 615 c 128,-1,94
 271 628 271 628 271 642 c 0,95,96
 271 652 271 652 265.5 662 c 128,-1,97
 260 672 260 672 246 672 c 0,98,99
 230 672 230 672 214 652.5 c 128,-1,100
 198 633 198 633 185.5 606.5 c 128,-1,101
 173 580 173 580 165.5 552 c 128,-1,102
 158 524 158 524 158 507 c 0,103,104
 158 500 158 500 161.5 489.5 c 128,-1,105
 165 479 165 479 178 479 c 0,87,88
397 4 m 0,106,107
 380 4 380 4 365 12 c 128,-1,108
 350 20 350 20 338.5 33.5 c 128,-1,109
 327 47 327 47 320.5 63.5 c 128,-1,110
 314 80 314 80 314 97 c 0,111,112
 314 127 314 127 330 170 c 128,-1,113
 346 213 346 213 371 253 c 128,-1,114
 396 293 396 293 426.5 321 c 128,-1,115
 457 349 457 349 486 349 c 0,116,117
 503 349 503 349 518 340.5 c 128,-1,118
 533 332 533 332 544 318.5 c 128,-1,119
 555 305 555 305 561.5 288 c 128,-1,120
 568 271 568 271 568 254 c 0,121,122
 568 231 568 231 562.5 208.5 c 128,-1,123
 557 186 557 186 548 164 c 0,124,125
 540 144 540 144 524 116.5 c 128,-1,126
 508 89 508 89 488 64 c 128,-1,127
 468 39 468 39 444.5 21.5 c 128,-1,128
 421 4 421 4 397 4 c 0,106,107
400 74 m 256,129,130
 413 74 413 74 426 87.5 c 128,-1,131
 439 101 439 101 450.5 119 c 128,-1,132
 462 137 462 137 471 156 c 128,-1,133
 480 175 480 175 484 185 c 0,134,135
 488 197 488 197 491 210 c 128,-1,136
 494 223 494 223 494 236 c 0,137,138
 494 246 494 246 488.5 256.5 c 128,-1,139
 483 267 483 267 469 267 c 0,140,141
 456 267 456 267 443 253.5 c 128,-1,142
 430 240 430 240 419.5 222 c 128,-1,143
 409 204 409 204 401 185 c 128,-1,144
 393 166 393 166 389 155 c 0,145,146
 385 142 385 142 382.5 128.5 c 128,-1,147
 380 115 380 115 380 101 c 0,148,149
 380 94 380 94 383.5 84 c 128,-1,150
 387 74 387 74 400 74 c 256,129,130
EndSplineSet
Validated: 8388609
EndChar

StartChar: ampersand
Encoding: 38 38 12
Width: 650
Flags: W
HStem: 0 69<200.798 318.209> 12 79<450.267 499.376> 254 127<452.875 543.531> 618 72<234.442 319.475>
VStem: 78 73<124.507 275.183> 138 80<477.482 599.436> 329 77<502.66 606.987> 505 70<91.3198 156.468>
LayerCount: 2
Fore
SplineSet
388 60 m 2,0,1
 363 33 363 33 329 16.5 c 128,-1,2
 295 0 295 0 258 0 c 0,3,4
 218 0 218 0 185 17.5 c 128,-1,5
 152 35 152 35 128 64 c 128,-1,6
 104 93 104 93 91 130 c 128,-1,7
 78 167 78 167 78 206 c 0,8,9
 78 271 78 271 108.5 316 c 128,-1,10
 139 361 139 361 188 400 c 1,11,-1
 191 402 l 1,12,-1
 190 406 l 2,13,14
 184 420 184 420 175 440 c 128,-1,15
 166 460 166 460 158 481.5 c 128,-1,16
 150 503 150 503 144 523.5 c 128,-1,17
 138 544 138 544 138 557 c 0,18,19
 138 581 138 581 151 605 c 128,-1,20
 164 629 164 629 184 647.5 c 128,-1,21
 204 666 204 666 228.5 678 c 128,-1,22
 253 690 253 690 276 690 c 0,23,24
 302 690 302 690 325.5 677.5 c 128,-1,25
 349 665 349 665 367 645 c 128,-1,26
 385 625 385 625 395.5 600 c 128,-1,27
 406 575 406 575 406 549 c 0,28,29
 406 521 406 521 395.5 497.5 c 128,-1,30
 385 474 385 474 368 454.5 c 128,-1,31
 351 435 351 435 329.5 417.5 c 128,-1,32
 308 400 308 400 287 384 c 2,33,-1
 284 381 l 1,34,-1
 286 378 l 1,35,36
 308 334 308 334 331.5 292.5 c 128,-1,37
 355 251 355 251 381 209 c 2,38,-1
 388 198 l 1,39,-1
 390 211 l 2,40,41
 392 223 392 223 393.5 237 c 128,-1,42
 395 251 395 251 397 266 c 0,43,44
 399 280 399 280 401 294 c 128,-1,45
 403 308 403 308 408 321 c 0,46,47
 416 347 416 347 432.5 364 c 128,-1,48
 449 381 449 381 481 381 c 0,49,50
 498 381 498 381 514 375.5 c 128,-1,51
 530 370 530 370 543.5 359.5 c 128,-1,52
 557 349 557 349 565 335 c 128,-1,53
 573 321 573 321 573 303 c 0,54,55
 573 280 573 280 553.5 264.5 c 128,-1,56
 534 249 534 249 511 249 c 0,57,58
 506 249 506 249 496 251 c 0,59,60
 490 253 490 253 488 253 c 0,61,62
 485 254 485 254 479 254 c 0,63,64
 471 254 471 254 465.5 249.5 c 128,-1,65
 460 245 460 245 456 238 c 0,66,67
 451 231 451 231 448 222.5 c 128,-1,68
 445 214 445 214 442 204 c 0,69,70
 437 185 437 185 434.5 167 c 128,-1,71
 432 149 432 149 430 140 c 2,72,-1
 429 138 l 1,73,-1
 431 136 l 2,74,75
 434 133 434 133 439.5 125.5 c 128,-1,76
 445 118 445 118 453 110 c 0,77,78
 457 106 457 106 460 103 c 128,-1,79
 463 100 463 100 467 97 c 0,80,81
 471 95 471 95 474.5 93 c 128,-1,82
 478 91 478 91 482 91 c 0,83,84
 489 91 489 91 492.5 96.5 c 128,-1,85
 496 102 496 102 498 107 c 0,86,87
 500 114 500 114 501.5 121.5 c 128,-1,88
 503 129 503 129 505 137 c 0,89,90
 509 153 509 153 516 163.5 c 128,-1,91
 523 174 523 174 538 174 c 0,92,93
 558 174 558 174 566.5 157 c 128,-1,94
 575 140 575 140 575 120 c 0,95,96
 575 97 575 97 566.5 77.5 c 128,-1,97
 558 58 558 58 543 43.5 c 128,-1,98
 528 29 528 29 508 20.5 c 128,-1,99
 488 12 488 12 466 12 c 0,100,101
 442 12 442 12 426 26 c 128,-1,102
 410 40 410 40 395 59 c 2,103,-1
 392 64 l 1,104,-1
 388 60 l 2,0,1
257 453 m 2,105,106
 269 463 269 463 282 475 c 128,-1,107
 295 487 295 487 305.5 500.5 c 128,-1,108
 316 514 316 514 322.5 530 c 128,-1,109
 329 546 329 546 329 565 c 0,110,111
 329 588 329 588 317.5 603 c 128,-1,112
 306 618 306 618 280 618 c 256,113,114
 254 618 254 618 236 600 c 128,-1,115
 218 582 218 582 218 556 c 0,116,117
 218 546 218 546 221.5 532 c 128,-1,118
 225 518 225 518 230 504 c 128,-1,119
 235 490 235 490 240 477 c 128,-1,120
 245 464 245 464 249 455 c 2,121,-1
 252 449 l 1,122,-1
 257 453 l 2,105,106
348 124 m 2,123,124
 315 174 315 174 284.5 224.5 c 128,-1,125
 254 275 254 275 227 328 c 2,126,-1
 224 334 l 1,127,-1
 220 330 l 2,128,129
 191 304 191 304 171 273 c 128,-1,130
 151 242 151 242 151 201 c 0,131,132
 151 179 151 179 158.5 156 c 128,-1,133
 166 133 166 133 180 113.5 c 128,-1,134
 194 94 194 94 213.5 81.5 c 128,-1,135
 233 69 233 69 258 69 c 0,136,137
 284 69 284 69 308 84 c 128,-1,138
 332 99 332 99 348 118 c 2,139,-1
 350 121 l 1,140,-1
 348 124 l 2,123,124
EndSplineSet
Validated: 8388609
EndChar

StartChar: quotesingle
Encoding: 39 39 13
Width: 650
Flags: W
VStem: 256 139<657.7 838.826> 282 87<491.156 752.774>
LayerCount: 2
Fore
SplineSet
368 548 m 0,0,1
 368 538 368 538 366 526.5 c 128,-1,2
 364 515 364 515 359 505.5 c 128,-1,3
 354 496 354 496 345.5 490 c 128,-1,4
 337 484 337 484 324 484 c 256,5,6
 311 484 311 484 302.5 490.5 c 128,-1,7
 294 497 294 497 289.5 507.5 c 128,-1,8
 285 518 285 518 283.5 530 c 128,-1,9
 282 542 282 542 282 552 c 0,10,11
 282 601 282 601 278.5 647.5 c 128,-1,12
 275 694 275 694 262 742 c 0,13,14
 260 753 260 753 258 764.5 c 128,-1,15
 256 776 256 776 256 788 c 0,16,17
 256 818 256 818 275.5 839.5 c 128,-1,18
 295 861 295 861 326 861 c 0,19,20
 356 861 356 861 375.5 839.5 c 128,-1,21
 395 818 395 818 395 788 c 0,22,23
 395 776 395 776 393 764.5 c 128,-1,24
 391 753 391 753 389 742 c 0,25,26
 378 702 378 702 373.5 661.5 c 128,-1,27
 369 621 369 621 369 579 c 0,28,29
 369 572 369 572 369 564 c 128,-1,30
 369 556 369 556 368 548 c 0,0,1
EndSplineSet
Validated: 8388609
EndChar

StartChar: parenleft
Encoding: 40 40 14
Width: 650
Flags: W
VStem: 193 89<188.022 491.56>
LayerCount: 2
Fore
SplineSet
193 337 m 0,0,1
 193 386 193 386 202 436.5 c 128,-1,2
 211 487 211 487 227 536 c 128,-1,3
 243 585 243 585 264.5 631.5 c 128,-1,4
 286 678 286 678 311 720 c 0,5,6
 318 732 318 732 327.5 750.5 c 128,-1,7
 337 769 337 769 348 787.5 c 128,-1,8
 359 806 359 806 371.5 820.5 c 128,-1,9
 384 835 384 835 397 839 c 1,10,-1
 393 838 l 1,11,12
 398 840 398 840 402 840 c 128,-1,13
 406 840 406 840 411 840 c 0,14,15
 431 840 431 840 444 823.5 c 128,-1,16
 457 807 457 807 457 788 c 0,17,18
 457 780 457 780 450.5 768.5 c 128,-1,19
 444 757 444 757 435.5 746 c 128,-1,20
 427 735 427 735 418 724.5 c 128,-1,21
 409 714 409 714 404 707 c 0,22,23
 373 669 373 669 350 621.5 c 128,-1,24
 327 574 327 574 312 522.5 c 128,-1,25
 297 471 297 471 289.5 418.5 c 128,-1,26
 282 366 282 366 282 318 c 0,27,28
 282 284 282 284 293 232.5 c 128,-1,29
 304 181 304 181 322 128.5 c 128,-1,30
 340 76 340 76 363 29.5 c 128,-1,31
 386 -17 386 -17 410 -42 c 0,32,33
 425 -58 425 -58 436 -79.5 c 128,-1,34
 447 -101 447 -101 447 -123 c 0,35,36
 447 -142 447 -142 434 -158.5 c 128,-1,37
 421 -175 421 -175 401 -175 c 0,38,39
 386 -175 386 -175 375 -168 c 128,-1,40
 364 -161 364 -161 356 -150 c 128,-1,41
 348 -139 348 -139 341 -126.5 c 128,-1,42
 334 -114 334 -114 328 -103 c 0,43,44
 301 -57 301 -57 276.5 -2.5 c 128,-1,45
 252 52 252 52 233.5 109.5 c 128,-1,46
 215 167 215 167 204 225 c 128,-1,47
 193 283 193 283 193 337 c 0,0,1
EndSplineSet
Validated: 1
EndChar

StartChar: parenright
Encoding: 41 41 15
Width: 650
Flags: W
VStem: 368 89<197.547 496.499>
LayerCount: 2
Fore
SplineSet
457 338 m 0,0,1
 457 289 457 289 447.5 234 c 128,-1,2
 438 179 438 179 421.5 123.5 c 128,-1,3
 405 68 405 68 383 15.5 c 128,-1,4
 361 -37 361 -37 335 -81 c 0,5,6
 324 -100 324 -100 314.5 -117 c 128,-1,7
 305 -134 305 -134 296 -147 c 128,-1,8
 287 -160 287 -160 276.5 -167.5 c 128,-1,9
 266 -175 266 -175 252 -175 c 0,10,11
 231 -175 231 -175 217 -159.5 c 128,-1,12
 203 -144 203 -144 203 -121 c 0,13,14
 203 -103 203 -103 212.5 -81.5 c 128,-1,15
 222 -60 222 -60 239 -43 c 0,16,17
 261 -20 261 -20 284 25.5 c 128,-1,18
 307 71 307 71 325.5 126.5 c 128,-1,19
 344 182 344 182 356 241 c 128,-1,20
 368 300 368 300 368 350 c 0,21,22
 368 392 368 392 359 440 c 128,-1,23
 350 488 350 488 334.5 534.5 c 128,-1,24
 319 581 319 581 298 624 c 128,-1,25
 277 667 277 667 253 698 c 0,26,27
 245 708 245 708 234.5 720.5 c 128,-1,28
 224 733 224 733 215 746 c 128,-1,29
 206 759 206 759 199.5 771.5 c 128,-1,30
 193 784 193 784 193 795 c 0,31,32
 193 811 193 811 206.5 825.5 c 128,-1,33
 220 840 220 840 239 840 c 0,34,35
 253 840 253 840 257 838 c 1,36,-1
 253 839 l 1,37,38
 267 835 267 835 279.5 820 c 128,-1,39
 292 805 292 805 304.5 784 c 128,-1,40
 317 763 317 763 330 739 c 128,-1,41
 343 715 343 715 356 692 c 0,42,43
 378 655 378 655 396.5 611 c 128,-1,44
 415 567 415 567 428.5 521 c 128,-1,45
 442 475 442 475 449.5 428.5 c 128,-1,46
 457 382 457 382 457 338 c 0,0,1
EndSplineSet
Validated: 1
EndChar

StartChar: plus
Encoding: 43 43 16
Width: 650
Flags: W
HStem: 252 80<58.2219 282.375 370.706 590.778>
VStem: 284 80<25.2219 244.231 334.681 558.778>
LayerCount: 2
Fore
SplineSet
365 52 m 2,0,1
 365 32 365 32 357 25 c 128,-1,2
 349 18 349 18 326 18 c 0,3,4
 306 18 306 18 297 22.5 c 128,-1,5
 288 27 288 27 285 35 c 128,-1,6
 282 43 282 43 283 55 c 128,-1,7
 284 67 284 67 284 83 c 2,8,-1
 284 225 l 2,9,10
 284 252 284 252 247 252 c 2,11,-1
 85 251 l 2,12,13
 65 251 65 251 58 259 c 128,-1,14
 51 267 51 267 51 290 c 0,15,16
 51 310 51 310 55.5 319 c 128,-1,17
 60 328 60 328 68 331 c 128,-1,18
 76 334 76 334 88 333 c 128,-1,19
 100 332 100 332 116 332 c 2,20,-1
 258 332 l 2,21,22
 284 332 284 332 284 370 c 2,23,-1
 283 532 l 2,24,25
 283 552 283 552 291 559 c 128,-1,26
 299 566 299 566 322 566 c 0,27,28
 342 566 342 566 351 562 c 128,-1,29
 360 558 360 558 363 549.5 c 128,-1,30
 366 541 366 541 365 529 c 128,-1,31
 364 517 364 517 364 501 c 2,32,-1
 364 359 l 2,33,34
 364 333 364 333 402 333 c 2,35,-1
 564 334 l 2,36,37
 584 334 584 334 591 326 c 128,-1,38
 598 318 598 318 598 295 c 0,39,40
 598 275 598 275 594 266 c 128,-1,41
 590 257 590 257 581.5 254 c 128,-1,42
 573 251 573 251 561 252 c 128,-1,43
 549 253 549 253 533 253 c 2,44,-1
 394 253 l 2,45,46
 377 253 377 253 370.5 244.5 c 128,-1,47
 364 236 364 236 364 214 c 2,48,-1
 365 52 l 2,0,1
EndSplineSet
Validated: 1
EndChar

StartChar: comma
Encoding: 44 44 17
Width: 650
Flags: W
HStem: -159 87<181.736 246.402>
LayerCount: 2
Fore
SplineSet
332 233 m 0,0,1
 352 233 352 233 370.5 223.5 c 128,-1,2
 389 214 389 214 403 197.5 c 128,-1,3
 417 181 417 181 425 159 c 128,-1,4
 433 137 433 137 433 113 c 0,5,6
 433 72 433 72 411 24 c 128,-1,7
 389 -24 389 -24 355.5 -64.5 c 128,-1,8
 322 -105 322 -105 283 -132 c 128,-1,9
 244 -159 244 -159 211 -159 c 0,10,11
 174 -159 174 -159 174 -118 c 0,12,13
 174 -98 174 -98 181.5 -85 c 128,-1,14
 189 -72 189 -72 202 -72 c 0,15,16
 214 -72 214 -72 234 -59 c 128,-1,17
 254 -46 254 -46 273 -28.5 c 128,-1,18
 292 -11 292 -11 305.5 7.5 c 128,-1,19
 319 26 319 26 319 38 c 1,20,-1
 316 44 l 1,21,22
 303 53 303 53 289 61 c 128,-1,23
 275 69 275 69 263 79 c 128,-1,24
 251 89 251 89 243.5 102 c 128,-1,25
 236 115 236 115 236 133 c 0,26,27
 236 152 236 152 244 170 c 128,-1,28
 252 188 252 188 265.5 202 c 128,-1,29
 279 216 279 216 296.5 224.5 c 128,-1,30
 314 233 314 233 332 233 c 0,0,1
EndSplineSet
Validated: 1
EndChar

StartChar: hyphen
Encoding: 45 45 18
Width: 650
Flags: W
HStem: 250 83<158.149 492.851>
LayerCount: 2
Fore
SplineSet
233 250 m 0,0,1
 178 250 178 250 157.5 259 c 128,-1,2
 137 268 137 268 137 292 c 0,3,4
 137 308 137 308 144.5 316 c 128,-1,5
 152 324 152 324 160 328 c 0,6,7
 170 332 170 332 183 333 c 0,8,9
 262 333 262 333 320 334 c 128,-1,10
 378 335 378 335 418 335 c 0,11,12
 473 335 473 335 493.5 326 c 128,-1,13
 514 317 514 317 514 293 c 0,14,15
 514 278 514 278 507 269.5 c 128,-1,16
 500 261 500 261 491 257 c 0,17,18
 481 253 481 253 468 252 c 0,19,20
 389 252 389 252 331 251 c 128,-1,21
 273 250 273 250 233 250 c 0,0,1
EndSplineSet
Validated: 1
EndChar

StartChar: period
Encoding: 46 46 19
Width: 650
Flags: W
HStem: 0 229<253.904 396.096>
VStem: 211 228<43.5613 186.096>
LayerCount: 2
Fore
SplineSet
211 115 m 256,0,1
 211 166 211 166 242.5 197.5 c 128,-1,2
 274 229 274 229 325 229 c 256,3,4
 376 229 376 229 407.5 197.5 c 128,-1,5
 439 166 439 166 439 115 c 256,6,7
 439 64 439 64 407.5 32 c 128,-1,8
 376 0 376 0 325 0 c 256,9,10
 274 0 274 0 242.5 32 c 128,-1,11
 211 64 211 64 211 115 c 256,0,1
EndSplineSet
Validated: 1
EndChar

StartChar: slash
Encoding: 47 47 20
Width: 650
Flags: W
LayerCount: 2
Fore
SplineSet
543 868 m 0,0,1
 543 858 543 858 530.5 817.5 c 128,-1,2
 518 777 518 777 496.5 716 c 128,-1,3
 475 655 475 655 448 579 c 128,-1,4
 421 503 421 503 391.5 423 c 128,-1,5
 362 343 362 343 333 265 c 128,-1,6
 304 187 304 187 279 121 c 128,-1,7
 254 55 254 55 236 7 c 128,-1,8
 218 -41 218 -41 211 -60 c 0,9,10
 206 -74 206 -74 198.5 -99 c 128,-1,11
 191 -124 191 -124 179.5 -148.5 c 128,-1,12
 168 -173 168 -173 152.5 -191 c 128,-1,13
 137 -209 137 -209 115 -209 c 0,14,15
 81 -209 81 -209 81 -164 c 0,16,17
 81 -155 81 -155 82 -149.5 c 128,-1,18
 83 -144 83 -144 84 -140 c 0,19,20
 89 -125 89 -125 94 -111 c 128,-1,21
 99 -97 99 -97 106 -79.5 c 128,-1,22
 113 -62 113 -62 122 -39.5 c 128,-1,23
 131 -17 131 -17 144 15 c 0,24,25
 167 73 167 73 196 148.5 c 128,-1,26
 225 224 225 224 254 302 c 128,-1,27
 283 380 283 380 310 453 c 128,-1,28
 337 526 337 526 356 580 c 0,29,30
 383 657 383 657 402.5 715.5 c 128,-1,31
 422 774 422 774 439 814 c 128,-1,32
 456 854 456 854 472.5 874 c 128,-1,33
 489 894 489 894 511 894 c 0,34,35
 524 894 524 894 533.5 886.5 c 128,-1,36
 543 879 543 879 543 868 c 0,0,1
EndSplineSet
Validated: 1
EndChar

StartChar: zero
Encoding: 48 48 21
Width: 650
Flags: W
HStem: 0 80<181.545 318.455> 615 85<182.504 317.496>
VStem: 2.48387 89.5161<205.901 489.69> 408 89.5161<205.901 489.69>
LayerCount: 2
Fore
SplineSet
250 0 m 256,0,1
 189 0 189 0 143 30 c 128,-1,2
 97 60 97 60 66 109.5 c 128,-1,3
 35 159 35 159 19 221.5 c 0,4,5
 2.48387096774 286.016129032 2.48387096774 286.016129032 2.48387096774 354.254422477 c 0,6,7
 2.48387096774 418.016129032 2.48387096774 418.016129032 17 478.5 c 0,8,9
 32 541 32 541 62.5 590.5 c 128,-1,10
 93 640 93 640 140 670 c 128,-1,11
 187 700 187 700 250 700 c 256,12,13
 313 700 313 700 360 670 c 128,-1,14
 407 640 407 640 437.5 590.5 c 128,-1,15
 468 541 468 541 483 478.5 c 0,16,17
 497.516129032 418.016129032 497.516129032 418.016129032 497.516129032 354.254422477 c 0,18,19
 497.516129032 286.016129032 497.516129032 286.016129032 481 221.5 c 0,20,21
 465 159 465 159 434 109.5 c 128,-1,22
 403 60 403 60 357 30 c 128,-1,23
 311 0 311 0 250 0 c 256,0,1
251 615 m 2,24,-1
 249 615 l 2,25,26
 197 615 197 615 162 575.5 c 128,-1,27
 127 536 127 536 109.5 476.5 c 128,-1,28
 92 417 92 417 92 347.5 c 128,-1,29
 92 278 92 278 109.5 218.5 c 128,-1,30
 127 159 127 159 162 119.5 c 128,-1,31
 197 80 197 80 250 80 c 256,32,33
 303 80 303 80 338 119.5 c 128,-1,34
 373 159 373 159 390.5 218.5 c 128,-1,35
 408 278 408 278 408 347.5 c 128,-1,36
 408 417 408 417 390.5 476.5 c 128,-1,37
 373 536 373 536 338 575.5 c 128,-1,38
 303 615 303 615 251 615 c 2,24,-1
EndSplineSet
Validated: 524289
EndChar

StartChar: one
Encoding: 49 49 22
Width: 650
Flags: W
HStem: 1 79<88.0171 249.528 396.384 565.042> 592.429 87.5714<108.959 275.857> 595 77<108.959 177.229>
VStem: 277 90<113.175 592.179>
LayerCount: 2
Fore
SplineSet
278 278 m 0,0,1
 278 301 278 301 277.5 334.5 c 128,-1,2
 277 368 277 368 277 408.5 c 128,-1,3
 277 449 277 449 277 494.5 c 128,-1,4
 277 540 277 540 277 586 c 1,5,6
 270 591 270 591 257.5 592 c 128,-1,7
 245 593 245 593 229 593 c 0,8,9
 208 593 208 593 184.5 592.5 c 0,10,11
 181.142857143 592.428571429 181.142857143 592.428571429 177.846938776 592.428571429 c 0,12,13
 158.071428571 592.428571429 158.071428571 592.428571429 140.5 595 c 0,14,15
 120 598 120 598 107 606.5 c 128,-1,16
 94 615 94 615 94 633 c 256,17,18
 94 651 94 651 108.5 659 c 128,-1,19
 123 667 123 667 161 672 c 0,20,21
 186 675 186 675 216.5 677.5 c 128,-1,22
 247 680 247 680 266 680 c 0,23,24
 320 680 320 680 343.5 659 c 128,-1,25
 367 638 367 638 367 591 c 2,26,-1
 367 508 l 2,27,28
 367 471 367 471 367 435 c 128,-1,29
 367 399 367 399 366.5 367.5 c 128,-1,30
 366 336 366 336 366 311 c 128,-1,31
 366 286 366 286 366 271 c 0,32,33
 366 171 366 171 382.5 127 c 128,-1,34
 399 83 399 83 437 83 c 0,35,36
 446 83 446 83 469 81.5 c 128,-1,37
 492 80 492 80 518 80 c 0,38,39
 551 80 551 80 565.5 71 c 128,-1,40
 580 62 580 62 580 42 c 0,41,42
 580 27 580 27 573 18.5 c 128,-1,43
 566 10 566 10 555 6 c 128,-1,44
 544 2 544 2 531 1.5 c 128,-1,45
 518 1 518 1 506 1 c 2,46,-1
 480 1 l 1,47,-1
 427 0 l 1,48,-1
 210 0 l 2,49,50
 196 0 196 0 172.5 -1 c 0,51,52
 166.625 -1.25 166.625 -1.25 160.8125 -1.25 c 0,53,54
 143.375 -1.25 143.375 -1.25 126.5 1 c 0,55,56
 104 4 104 4 87.5 13.5 c 128,-1,57
 71 23 71 23 71 45 c 0,58,59
 71 64 71 64 85.5 72 c 128,-1,60
 100 80 100 80 133 80 c 0,61,62
 154 80 154 80 176 81.5 c 128,-1,63
 198 83 198 83 206 83 c 0,64,65
 235 84 235 84 250 100 c 128,-1,66
 265 116 265 116 271 143 c 128,-1,67
 277 170 277 170 277.5 204.5 c 128,-1,68
 278 239 278 239 278 278 c 0,0,1
EndSplineSet
Validated: 8912897
EndChar

StartChar: two
Encoding: 50 50 23
Width: 650
Flags: W
HStem: 0 82<191.769 459.965> 623 77<244.87 436.882>
VStem: 85 98<88.5704 194.038> 101 120<503.338 599.561> 466 82.5<85.0947 180.53> 482 84<483.301 585.479>
LayerCount: 2
Fore
SplineSet
464 95 m 0,0,1
 465 97 465 97 465 100.5 c 128,-1,2
 465 104 465 104 466 109 c 0,3,4
 466 117 466 117 466 126.5 c 128,-1,5
 466 136 466 136 467 146 c 0,6,7
 469 166 469 166 476.5 181 c 128,-1,8
 484 196 484 196 504 196 c 0,9,10
 523 196 523 196 532 181.5 c 128,-1,11
 541 167 541 167 546 146 c 0,12,13
 548 135 548 135 548.5 124.5 c 128,-1,14
 549 114 549 114 550 103 c 2,15,-1
 550 50 l 2,16,17
 549 44 549 44 548.5 38 c 128,-1,18
 548 32 548 32 547 27 c 0,19,20
 545 15 545 15 540 7.5 c 128,-1,21
 535 0 535 0 526 0 c 2,22,-1
 136 0 l 2,23,24
 120 0 120 0 110 10 c 128,-1,25
 100 20 100 20 94.5 34.5 c 128,-1,26
 89 49 89 49 87 65.5 c 128,-1,27
 85 82 85 82 85 95 c 0,28,29
 85 145 85 145 102 185 c 128,-1,30
 119 225 119 225 146.5 257 c 128,-1,31
 174 289 174 289 210 315 c 128,-1,32
 246 341 246 341 283 363 c 0,33,34
 321 386 321 386 356 405.5 c 128,-1,35
 391 425 391 425 419 445 c 0,36,37
 447 466 447 466 464.5 488.5 c 128,-1,38
 482 511 482 511 482 538 c 256,39,40
 482 565 482 565 465 581.5 c 128,-1,41
 448 598 448 598 424 607 c 128,-1,42
 400 616 400 616 373.5 619.5 c 128,-1,43
 347 623 347 623 328 623 c 0,44,45
 299 623 299 623 271.5 615 c 128,-1,46
 244 607 244 607 226 581 c 0,47,48
 224 578 224 578 222.5 574.5 c 128,-1,49
 221 571 221 571 221 567 c 256,50,51
 221 563 221 563 223 557 c 0,52,53
 224 553 224 553 228 547 c 0,54,55
 230 542 230 542 232 537 c 128,-1,56
 234 532 234 532 234 526 c 0,57,58
 234 513 234 513 225 502 c 128,-1,59
 216 491 216 491 202.5 482.5 c 128,-1,60
 189 474 189 474 174 469 c 128,-1,61
 159 464 159 464 148 464 c 0,62,63
 132 464 132 464 122.5 472 c 128,-1,64
 113 480 113 480 108.5 492.5 c 128,-1,65
 104 505 104 505 102.5 519.5 c 128,-1,66
 101 534 101 534 101 547 c 0,67,68
 101 592 101 592 119 621.5 c 128,-1,69
 137 651 137 651 166 668.5 c 128,-1,70
 195 686 195 686 232 693 c 128,-1,71
 269 700 269 700 308 700 c 0,72,73
 349 700 349 700 394.5 691.5 c 128,-1,74
 440 683 440 683 478 663 c 128,-1,75
 516 643 516 643 541 609 c 128,-1,76
 566 575 566 575 566 525 c 0,77,78
 566 485 566 485 550 454.5 c 128,-1,79
 534 424 534 424 507 399 c 128,-1,80
 480 374 480 374 446 354 c 128,-1,81
 412 334 412 334 376 315 c 0,82,83
 358 305 358 305 340.5 296 c 128,-1,84
 323 287 323 287 306 276 c 0,85,86
 284 264 284 264 262 249.5 c 128,-1,87
 240 235 240 235 222.5 216.5 c 128,-1,88
 205 198 205 198 194 175.5 c 128,-1,89
 183 153 183 153 183 126 c 0,90,91
 183 103 183 103 191.5 92.5 c 128,-1,92
 200 82 200 82 224 82 c 0,93,94
 229 82 229 82 248 82 c 128,-1,95
 267 82 267 82 293 82.5 c 128,-1,96
 319 83 319 83 348 83 c 128,-1,97
 377 83 377 83 401.5 83.5 c 128,-1,98
 426 84 426 84 442.5 84 c 128,-1,99
 459 84 459 84 460 85 c 0,100,101
 464 88 464 88 464 95 c 0,0,1
EndSplineSet
Validated: 8388609
EndChar

StartChar: three
Encoding: 51 51 24
Width: 650
Flags: W
HStem: 10 85<201.284 386.239> 393 86<348 406.387> 551 149<103.32 163.966> 617 83<173 375>
VStem: 84 105<107.849 195.342> 88 85<561.074 616> 498 69<184.838 316.332>
LayerCount: 2
Fore
SplineSet
349 479 m 0,0,1
 412 457 412 457 454 435.5 c 128,-1,2
 496 414 496 414 521 388.5 c 128,-1,3
 546 363 546 363 556.5 331 c 128,-1,4
 567 299 567 299 567 256 c 0,5,6
 567 201 567 201 549.5 155.5 c 128,-1,7
 532 110 532 110 499.5 78 c 128,-1,8
 467 46 467 46 422 28 c 128,-1,9
 377 10 377 10 321 10 c 0,10,11
 277 10 277 10 235 21 c 0,12,13
 202 30 202 30 174.5 43.5 c 128,-1,14
 147 57 147 57 127 73.5 c 128,-1,15
 107 90 107 90 95.5 109 c 128,-1,16
 84 128 84 128 84 146 c 0,17,18
 84 175 84 175 105 196 c 128,-1,19
 126 217 126 217 156 217 c 0,20,21
 178 217 178 217 184 206.5 c 128,-1,22
 190 196 190 196 190 178 c 0,23,24
 190 173 190 173 189.5 167 c 128,-1,25
 189 161 189 161 189 154 c 0,26,27
 189 135 189 135 196 123.5 c 128,-1,28
 203 112 203 112 214.5 105.5 c 128,-1,29
 226 99 226 99 241.5 97 c 128,-1,30
 257 95 257 95 273 95 c 0,31,32
 319 95 319 95 360 107.5 c 128,-1,33
 401 120 401 120 431.5 141 c 128,-1,34
 462 162 462 162 480 190 c 128,-1,35
 498 218 498 218 498 249 c 0,36,37
 498 276 498 276 484.5 302 c 128,-1,38
 471 328 471 328 449 348.5 c 128,-1,39
 427 369 427 369 398.5 381 c 128,-1,40
 370 393 370 393 340 393 c 0,41,42
 321 393 321 393 294.5 390 c 128,-1,43
 268 387 268 387 239 387 c 0,44,45
 196 387 196 387 196 408 c 0,46,47
 196 419 196 419 207 437 c 128,-1,48
 218 455 218 455 242 480 c 0,49,50
 261 500 261 500 279.5 517 c 128,-1,51
 298 534 298 534 309 544 c 0,52,53
 317 552 317 552 325 560.5 c 128,-1,54
 333 569 333 569 339 576 c 0,55,56
 350 587 350 587 357.5 596 c 128,-1,57
 365 605 365 605 373 613 c 1,58,-1
 373 615 l 1,59,-1
 375 617 l 1,60,-1
 322 617 l 1,61,-1
 223 616 l 1,62,-1
 173 616 l 1,63,-1
 173 615 l 2,64,65
 173 587 173 587 162 569 c 128,-1,66
 151 551 151 551 134 551 c 0,67,68
 115 551 115 551 101.5 570.5 c 128,-1,69
 88 590 88 590 88 616 c 0,70,71
 88 632 88 632 91.5 647 c 128,-1,72
 95 662 95 662 101 674 c 128,-1,73
 107 686 107 686 115 693 c 128,-1,74
 123 700 123 700 131 700 c 2,75,-1
 515 700 l 2,76,77
 528 700 528 700 528 692 c 0,78,79
 528 687 528 687 521.5 676.5 c 128,-1,80
 515 666 515 666 504.5 652.5 c 128,-1,81
 494 639 494 639 480.5 623 c 128,-1,82
 467 607 467 607 453 592 c 0,83,84
 419 556 419 556 377 513 c 0,85,86
 365 501 365 501 359 494.5 c 128,-1,87
 353 488 353 488 350.5 484.5 c 128,-1,88
 348 481 348 481 348 480 c 128,-1,89
 348 479 348 479 349 479 c 0,0,1
EndSplineSet
Validated: 8388609
EndChar

StartChar: four
Encoding: 52 52 25
Width: 650
Flags: W
HStem: 0 21G<309 538> 187 83<182.002 344.813 421 573.306> 679 20G<399 412.5>
VStem: 74 108<254 315.375> 349 72<109.705 186 270.383 508>
LayerCount: 2
Fore
SplineSet
349 187 m 1,0,-1
 129 187 l 2,1,2
 93 187 93 187 83.5 203 c 128,-1,3
 74 219 74 219 74 254 c 0,4,5
 74 268 74 268 76 281 c 128,-1,6
 78 294 78 294 86 304 c 2,7,-1
 351 668 l 2,8,9
 360 681 360 681 375.5 690 c 128,-1,10
 391 699 391 699 407 699 c 0,11,12
 418 699 418 699 421 693 c 128,-1,13
 424 687 424 687 424 673 c 0,14,15
 424 476 424 476 421 276 c 2,16,-1
 421 266 l 1,17,-1
 546 266 l 2,18,19
 559 266 559 266 568 261 c 128,-1,20
 577 256 577 256 577 248 c 0,21,22
 577 234 577 234 576 222.5 c 128,-1,23
 575 211 575 211 571 203 c 0,24,25
 568 196 568 196 561 191.5 c 128,-1,26
 554 187 554 187 540 187 c 2,27,-1
 513 187 l 1,28,-1
 457 186 l 1,29,-1
 420 186 l 1,30,-1
 420 130 l 2,31,32
 423 116 423 116 427 109.5 c 128,-1,33
 431 103 431 103 446 98 c 0,34,35
 464 92 464 92 483 87 c 128,-1,36
 502 82 502 82 520 75 c 0,37,38
 524 73 524 73 527 72.5 c 128,-1,39
 530 72 530 72 533 70 c 0,40,41
 541 66 541 66 542 65 c 0,42,43
 550 60 550 60 550 50 c 0,44,45
 550 45 550 45 550.5 40 c 128,-1,46
 551 35 551 35 551 30 c 256,47,48
 551 25 551 25 551 20.5 c 128,-1,49
 551 16 551 16 550 12 c 0,50,51
 549 7 549 7 546 3.5 c 128,-1,52
 543 0 543 0 533 0 c 2,53,-1
 349 0 l 2,54,55
 342 0 342 0 320 0 c 128,-1,56
 298 0 298 0 275 2 c 0,57,58
 272 2 272 2 263.5 3 c 128,-1,59
 255 4 255 4 246 6 c 128,-1,60
 237 8 237 8 229.5 10.5 c 128,-1,61
 222 13 222 13 222 17 c 2,62,-1
 222 34 l 2,63,64
 222 57 222 57 230.5 64.5 c 128,-1,65
 239 72 239 72 263 81 c 0,66,67
 272 84 272 84 285 87.5 c 128,-1,68
 298 91 298 91 311 97 c 0,69,70
 324 102 324 102 336 112 c 128,-1,71
 348 122 348 122 348 139 c 0,72,73
 348 148 348 148 348.5 157.5 c 128,-1,74
 349 167 349 167 349 177 c 2,75,-1
 349 187 l 1,0,-1
199 270 m 2,76,-1
 202 270 l 1,77,-1
 207 269 l 1,78,-1
 217 269 l 2,79,80
 236 269 236 269 255.5 267 c 128,-1,81
 275 265 275 265 294 265 c 0,82,83
 314 265 314 265 325 269.5 c 128,-1,84
 336 274 336 274 341 283 c 128,-1,85
 346 292 346 292 347.5 304.5 c 128,-1,86
 349 317 349 317 349 332 c 2,87,-1
 349 362 l 1,88,-1
 351 423 l 1,89,-1
 351 453 l 2,90,91
 351 455 351 455 351 462.5 c 128,-1,92
 351 470 351 470 350 478 c 0,93,94
 350 487 350 487 347 494 c 0,95,96
 347 496 347 496 343 502 c 0,97,98
 341 504 341 504 339 506 c 128,-1,99
 337 508 337 508 333 508 c 0,100,101
 328 508 328 508 325 506 c 128,-1,102
 322 504 322 504 321 502 c 2,103,-1
 316 497 l 1,104,105
 291 463 291 463 268.5 428 c 128,-1,106
 246 393 246 393 220 358 c 0,107,108
 217 353 217 353 211 345 c 128,-1,109
 205 337 205 337 199 328 c 0,110,111
 192 319 192 319 187 308 c 0,112,113
 185 304 185 304 183.5 299.5 c 128,-1,114
 182 295 182 295 182 290 c 0,115,116
 182 279 182 279 188.5 275.5 c 128,-1,117
 195 272 195 272 199 270 c 2,76,-1
EndSplineSet
Validated: 1
EndChar

StartChar: five
Encoding: 53 53 26
Width: 650
Flags: W
HStem: -1 84<224.038 430.272> 356 102<230.317 339> 361 89<165 426.772> 603 97<222.843 551.107>
VStem: 85 122<102.95 165.967> 126.5 92.5<477.079 601.671> 491 74<142.289 297.527>
LayerCount: 2
Fore
SplineSet
209 133 m 0,0,1
 207 127 207 127 207 123 c 0,2,3
 207 116 207 116 213.5 111 c 128,-1,4
 220 106 220 106 228 103 c 0,5,6
 240 98 240 98 255.5 94.5 c 128,-1,7
 271 91 271 91 287.5 88.5 c 128,-1,8
 304 86 304 86 320.5 84.5 c 128,-1,9
 337 83 337 83 349 83 c 0,10,11
 379 83 379 83 405 92.5 c 128,-1,12
 431 102 431 102 450 119 c 128,-1,13
 469 136 469 136 480 161.5 c 128,-1,14
 491 187 491 187 491 218 c 0,15,16
 491 252 491 252 479.5 278.5 c 128,-1,17
 468 305 468 305 448 323.5 c 128,-1,18
 428 342 428 342 400.5 351.5 c 128,-1,19
 373 361 373 361 340 361 c 0,20,21
 308 361 308 361 275.5 358.5 c 128,-1,22
 243 356 243 356 211 356 c 0,23,24
 182 356 182 356 165 360 c 128,-1,25
 148 364 148 364 139.5 375 c 128,-1,26
 131 386 131 386 128.5 404.5 c 128,-1,27
 126 423 126 423 126 451 c 0,28,29
 126 480 126 480 126.5 509 c 128,-1,30
 127 538 127 538 127 568 c 0,31,32
 127 599 127 599 129.5 623.5 c 128,-1,33
 132 648 132 648 142 665 c 128,-1,34
 152 682 152 682 172 691 c 128,-1,35
 192 700 192 700 226 700 c 2,36,-1
 502 700 l 2,37,38
 512 700 512 700 522.5 696.5 c 128,-1,39
 533 693 533 693 542 686.5 c 128,-1,40
 551 680 551 680 556.5 671.5 c 128,-1,41
 562 663 562 663 562 652 c 0,42,43
 562 632 562 632 545.5 617.5 c 128,-1,44
 529 603 529 603 510 603 c 2,45,-1
 248 603 l 2,46,47
 238 603 238 603 232 597 c 128,-1,48
 226 591 226 591 223 582 c 128,-1,49
 220 573 220 573 219.5 563.5 c 128,-1,50
 219 554 219 554 219 546 c 0,51,52
 219 539 219 539 219 532.5 c 128,-1,53
 219 526 219 526 220 518 c 0,54,55
 220 495 220 495 230 476.5 c 128,-1,56
 240 458 240 458 267 458 c 0,57,58
 293 458 293 458 318.5 454 c 128,-1,59
 344 450 344 450 370 450 c 0,60,61
 421 450 421 450 457.5 432.5 c 128,-1,62
 494 415 494 415 518 384 c 128,-1,63
 542 353 542 353 553.5 311.5 c 128,-1,64
 565 270 565 270 565 223 c 0,65,66
 565 119 565 119 510.5 59 c 128,-1,67
 456 -1 456 -1 350 -1 c 0,68,69
 324 -1 324 -1 297.5 2 c 128,-1,70
 271 5 271 5 245 12 c 0,71,72
 221 18 221 18 193 29.5 c 128,-1,73
 165 41 165 41 141 58 c 128,-1,74
 117 75 117 75 101 97.5 c 128,-1,75
 85 120 85 120 85 148 c 0,76,77
 85 184 85 184 107.5 203 c 128,-1,78
 130 222 130 222 164 222 c 0,79,80
 188 222 188 222 204.5 211.5 c 128,-1,81
 221 201 221 201 221 175 c 0,82,83
 221 167 221 167 219 159.5 c 128,-1,84
 217 152 217 152 214 144 c 2,85,-1
 213 143 l 1,86,-1
 213 142 l 1,87,-1
 210 136 l 2,88,89
 210 134 210 134 209 133 c 0,0,1
EndSplineSet
Validated: 8388609
EndChar

StartChar: six
Encoding: 54 54 27
Width: 650
Flags: W
HStem: 10 80<256.074 424.633> 354 91<257.743 420.726> 616 84<267.804 390.378>
VStem: 90 97<186.295 416.573> 480 80<143.637 296.405>
LayerCount: 2
Fore
SplineSet
532 583 m 0,0,1
 532 518 532 518 476 518 c 0,2,3
 455 518 455 518 443.5 526.5 c 128,-1,4
 432 535 432 535 424.5 547.5 c 128,-1,5
 417 560 417 560 408.5 574 c 128,-1,6
 400 588 400 588 385 598 c 0,7,8
 359 616 359 616 326 616 c 0,9,10
 272 616 272 616 232.5 553.5 c 128,-1,11
 193 491 193 491 176 379 c 1,12,13
 203 409 203 409 245 427 c 128,-1,14
 287 445 287 445 332 445 c 0,15,16
 380 445 380 445 421.5 427.5 c 128,-1,17
 463 410 463 410 494 379.5 c 128,-1,18
 525 349 525 349 542.5 308 c 128,-1,19
 560 267 560 267 560 220 c 0,20,21
 560 172 560 172 544 133.5 c 128,-1,22
 528 95 528 95 499 67.5 c 128,-1,23
 470 40 470 40 429 25 c 128,-1,24
 388 10 388 10 337 10 c 0,25,26
 279 10 279 10 233 32.5 c 128,-1,27
 187 55 187 55 155.5 98 c 128,-1,28
 124 141 124 141 107 202 c 128,-1,29
 90 263 90 263 90 341 c 0,30,31
 90 525 90 525 195 633 c 0,32,33
 230 669 230 669 265 684.5 c 128,-1,34
 300 700 300 700 347 700 c 0,35,36
 532 700 532 700 532 583 c 0,0,1
340 90 m 0,37,38
 404 90 404 90 442 125 c 128,-1,39
 480 160 480 160 480 219 c 0,40,41
 480 249 480 249 470 274 c 128,-1,42
 460 299 460 299 441.5 316.5 c 128,-1,43
 423 334 423 334 397.5 344 c 128,-1,44
 372 354 372 354 341 354 c 256,45,46
 310 354 310 354 282 343.5 c 128,-1,47
 254 333 254 333 233 315.5 c 128,-1,48
 212 298 212 298 199.5 274.5 c 128,-1,49
 187 251 187 251 187 224 c 0,50,51
 187 196 187 196 199 171.5 c 128,-1,52
 211 147 211 147 231.5 129 c 128,-1,53
 252 111 252 111 280 100.5 c 128,-1,54
 308 90 308 90 340 90 c 0,37,38
EndSplineSet
Validated: 1
EndChar

StartChar: seven
Encoding: 55 55 28
Width: 650
Flags: W
HStem: 0 21G<300.5 315> 626 74<214.5 432.625>
VStem: 278 95<39.4688 278.126> 434 111<562.015 616>
LayerCount: 2
Fore
SplineSet
434 616 m 1,0,-1
 433 617 l 1,1,2
 421 621 421 621 409 622.5 c 128,-1,3
 397 624 397 624 386 625 c 0,4,5
 374 626 374 626 362 626 c 128,-1,6
 350 626 350 626 338 626 c 0,7,8
 325 626 325 626 309 625.5 c 128,-1,9
 293 625 293 625 276.5 623 c 128,-1,10
 260 621 260 621 245 617 c 128,-1,11
 230 613 230 613 218 606 c 0,12,13
 210 602 210 602 202 593.5 c 128,-1,14
 194 585 194 585 189 577 c 0,15,16
 184 571 184 571 176 567 c 128,-1,17
 168 563 168 563 151 563 c 0,18,19
 128 563 128 563 117 572.5 c 128,-1,20
 106 582 106 582 106 605 c 0,21,22
 106 651 106 651 129.5 675.5 c 128,-1,23
 153 700 153 700 198 700 c 2,24,-1
 489 700 l 2,25,26
 515 700 515 700 530 684 c 128,-1,27
 545 668 545 668 545 641 c 0,28,29
 545 615 545 615 530.5 579 c 128,-1,30
 516 543 516 543 496 505 c 0,31,32
 476 466 476 466 455.5 430 c 128,-1,33
 435 394 435 394 423 367 c 0,34,35
 413 343 413 343 404 314 c 128,-1,36
 395 285 395 285 388 254.5 c 128,-1,37
 381 224 381 224 377 194 c 128,-1,38
 373 164 373 164 373 138 c 0,39,40
 373 124 373 124 369.5 101 c 128,-1,41
 366 78 366 78 358 55.5 c 128,-1,42
 350 33 350 33 337 16.5 c 128,-1,43
 324 0 324 0 306 0 c 0,44,45
 295 0 295 0 289 8.5 c 128,-1,46
 283 17 283 17 280 29 c 0,47,48
 278 36 278 36 278 42.5 c 128,-1,49
 278 49 278 49 277 55 c 2,50,-1
 277 98 l 1,51,-1
 278 141 l 1,52,-1
 278 163 l 2,53,54
 278 191 278 191 288 233.5 c 128,-1,55
 298 276 298 276 313 321.5 c 128,-1,56
 328 367 328 367 344.5 408.5 c 128,-1,57
 361 450 361 450 373 476 c 0,58,59
 381 493 381 493 389.5 510 c 128,-1,60
 398 527 398 527 406 544 c 256,61,62
 414 561 414 561 421.5 578.5 c 128,-1,63
 429 596 429 596 434 614 c 1,64,-1
 434 616 l 1,0,-1
EndSplineSet
Validated: 1
EndChar

StartChar: eight
Encoding: 56 56 29
Width: 650
Flags: W
HStem: -1 84<226.56 423.44> 349 73<246.105 403.123> 631 69<249.891 400.109>
VStem: 77 86<141.275 289.088> 122 80<462.903 585.754> 448 80<462.756 585.771> 487 86<141.319 289.495>
LayerCount: 2
Fore
SplineSet
325 -1 m 256,0,1
 273 -1 273 -1 227.5 16 c 128,-1,2
 182 33 182 33 148.5 62.5 c 128,-1,3
 115 92 115 92 96 131.5 c 128,-1,4
 77 171 77 171 77 217 c 0,5,6
 77 248 77 248 85 272.5 c 128,-1,7
 93 297 93 297 106.5 318 c 128,-1,8
 120 339 120 339 138 358 c 128,-1,9
 156 377 156 377 176 396 c 1,10,11
 161 416 161 416 150.5 432.5 c 128,-1,12
 140 449 140 449 133.5 463.5 c 128,-1,13
 127 478 127 478 124.5 492 c 128,-1,14
 122 506 122 506 122 522 c 0,15,16
 122 560 122 560 137.5 592.5 c 128,-1,17
 153 625 153 625 180.5 649 c 128,-1,18
 208 673 208 673 245 686.5 c 128,-1,19
 282 700 282 700 325 700 c 256,20,21
 368 700 368 700 405 686 c 128,-1,22
 442 672 442 672 469.5 648 c 128,-1,23
 497 624 497 624 512.5 591.5 c 128,-1,24
 528 559 528 559 528 521 c 0,25,26
 528 489 528 489 516 461 c 128,-1,27
 504 433 504 433 474 396 c 1,28,29
 494 377 494 377 512 358 c 128,-1,30
 530 339 530 339 543.5 318 c 128,-1,31
 557 297 557 297 565 272.5 c 128,-1,32
 573 248 573 248 573 217 c 0,33,34
 573 171 573 171 554 131.5 c 128,-1,35
 535 92 535 92 501.5 62.5 c 128,-1,36
 468 33 468 33 422.5 16 c 128,-1,37
 377 -1 377 -1 325 -1 c 256,0,1
325 631 m 256,38,39
 299 631 299 631 276.5 622.5 c 128,-1,40
 254 614 254 614 237.5 600 c 128,-1,41
 221 586 221 586 211.5 566.5 c 128,-1,42
 202 547 202 547 202 524 c 0,43,44
 202 479 202 479 236.5 450.5 c 128,-1,45
 271 422 271 422 325 422 c 256,46,47
 379 422 379 422 413.5 450.5 c 128,-1,48
 448 479 448 479 448 524 c 0,49,50
 448 547 448 547 438.5 566.5 c 128,-1,51
 429 586 429 586 412.5 600 c 128,-1,52
 396 614 396 614 373.5 622.5 c 128,-1,53
 351 631 351 631 325 631 c 256,38,39
325 83 m 256,54,55
 400 83 400 83 443.5 118 c 128,-1,56
 487 153 487 153 487 215 c 256,57,58
 487 277 487 277 443.5 313 c 128,-1,59
 400 349 400 349 326 349 c 0,60,61
 251 349 251 349 207 313 c 128,-1,62
 163 277 163 277 163 214 c 0,63,64
 163 153 163 153 206.5 118 c 128,-1,65
 250 83 250 83 325 83 c 256,54,55
EndSplineSet
Validated: 8388609
EndChar

StartChar: nine
Encoding: 57 57 30
Width: 650
Flags: W
HStem: 11 84<262.39 382.196> 266 91<229.274 393.42> 621 80<225.367 393.926>
VStem: 90 80<414.595 567.363> 463 97<294.427 524.705>
LayerCount: 2
Fore
SplineSet
118 128 m 0,0,1
 118 193 118 193 174 193 c 0,2,3
 195 193 195 193 206.5 184.5 c 128,-1,4
 218 176 218 176 225.5 163.5 c 128,-1,5
 233 151 233 151 241.5 137.5 c 128,-1,6
 250 124 250 124 265 113 c 0,7,8
 291 95 291 95 324 95 c 0,9,10
 378 95 378 95 417.5 157.5 c 128,-1,11
 457 220 457 220 474 332 c 1,12,13
 447 302 447 302 405 284 c 128,-1,14
 363 266 363 266 318 266 c 0,15,16
 270 266 270 266 228.5 283.5 c 128,-1,17
 187 301 187 301 156 331.5 c 128,-1,18
 125 362 125 362 107.5 403 c 128,-1,19
 90 444 90 444 90 491 c 0,20,21
 90 539 90 539 106 577.5 c 128,-1,22
 122 616 122 616 151 643.5 c 128,-1,23
 180 671 180 671 221 686 c 128,-1,24
 262 701 262 701 313 701 c 0,25,26
 371 701 371 701 417 678.5 c 128,-1,27
 463 656 463 656 494.5 613 c 128,-1,28
 526 570 526 570 543 509 c 128,-1,29
 560 448 560 448 560 370 c 0,30,31
 560 186 560 186 455 78 c 0,32,33
 420 42 420 42 385 26.5 c 128,-1,34
 350 11 350 11 303 11 c 0,35,36
 118 11 118 11 118 128 c 0,0,1
310 621 m 0,37,38
 246 621 246 621 208 586 c 128,-1,39
 170 551 170 551 170 492 c 0,40,41
 170 462 170 462 180 437 c 128,-1,42
 190 412 190 412 208.5 394.5 c 128,-1,43
 227 377 227 377 252.5 367 c 128,-1,44
 278 357 278 357 309 357 c 0,45,46
 341 357 341 357 369 367.5 c 128,-1,47
 397 378 397 378 418 395.5 c 128,-1,48
 439 413 439 413 451 436.5 c 128,-1,49
 463 460 463 460 463 487 c 0,50,51
 463 515 463 515 451 539.5 c 128,-1,52
 439 564 439 564 418.5 582 c 128,-1,53
 398 600 398 600 370 610.5 c 128,-1,54
 342 621 342 621 310 621 c 0,37,38
EndSplineSet
Validated: 1
EndChar

StartChar: colon
Encoding: 58 58 31
Width: 650
Flags: W
HStem: 4 200<258.725 391.275> 324 200<258.725 391.275>
VStem: 225 200<37.725 170.275 357.725 490.275>
LayerCount: 2
Fore
SplineSet
225 424 m 256,0,1
 225 469 225 469 252.5 496.5 c 128,-1,2
 280 524 280 524 325 524 c 256,3,4
 370 524 370 524 397.5 496.5 c 128,-1,5
 425 469 425 469 425 424 c 256,6,7
 425 379 425 379 397.5 351.5 c 128,-1,8
 370 324 370 324 325 324 c 256,9,10
 280 324 280 324 252.5 351.5 c 128,-1,11
 225 379 225 379 225 424 c 256,0,1
225 104 m 256,12,13
 225 149 225 149 252.5 176.5 c 128,-1,14
 280 204 280 204 325 204 c 256,15,16
 370 204 370 204 397.5 176.5 c 128,-1,17
 425 149 425 149 425 104 c 256,18,19
 425 59 425 59 397.5 31.5 c 128,-1,20
 370 4 370 4 325 4 c 256,21,22
 280 4 280 4 252.5 31.5 c 128,-1,23
 225 59 225 59 225 104 c 256,12,13
EndSplineSet
Validated: 1
EndChar

StartChar: semicolon
Encoding: 59 59 32
Width: 650
Flags: W
HStem: 324 200<258.725 391.275>
VStem: 225 200<357.725 490.275> 325 133<2.5 138>
LayerCount: 2
Fore
SplineSet
225 424 m 256,0,1
 225 469 225 469 252.5 496.5 c 128,-1,2
 280 524 280 524 325 524 c 256,3,4
 370 524 370 524 397.5 496.5 c 128,-1,5
 425 469 425 469 425 424 c 256,6,7
 425 379 425 379 397.5 351.5 c 128,-1,8
 370 324 370 324 325 324 c 256,9,10
 280 324 280 324 252.5 351.5 c 128,-1,11
 225 379 225 379 225 424 c 256,0,1
206 -137 m 0,12,13
 206 -117 206 -117 219 -100 c 128,-1,14
 232 -83 232 -83 252 -76 c 0,15,16
 266 -72 266 -72 279 -62.5 c 128,-1,17
 292 -53 292 -53 302.5 -41 c 128,-1,18
 313 -29 313 -29 319 -16 c 128,-1,19
 325 -3 325 -3 325 8 c 0,20,21
 325 9 325 9 323 11 c 0,22,23
 318 13 318 13 302.5 14 c 128,-1,24
 287 15 287 15 275 20 c 0,25,26
 255 28 255 28 243 52 c 128,-1,27
 231 76 231 76 231 107 c 0,28,29
 231 159 231 159 265 192 c 128,-1,30
 299 225 299 225 353 225 c 0,31,32
 403 225 403 225 430.5 195 c 128,-1,33
 458 165 458 165 458 111 c 0,34,35
 458 68 458 68 441.5 26 c 128,-1,36
 425 -16 425 -16 397.5 -52.5 c 128,-1,37
 370 -89 370 -89 334.5 -118 c 128,-1,38
 299 -147 299 -147 261 -163 c 1,39,-1
 255 -163 l 1,40,-1
 242 -164 l 2,41,42
 227 -164 227 -164 216.5 -160 c 128,-1,43
 206 -156 206 -156 206 -137 c 0,12,13
EndSplineSet
Validated: 8388609
EndChar

StartChar: less
Encoding: 60 60 33
Width: 650
Flags: W
LayerCount: 2
Fore
SplineSet
638 724 m 0,0,1
 641 724 641 724 647 717 c 128,-1,2
 653 710 653 710 658 701 c 128,-1,3
 663 692 663 692 667 682.5 c 128,-1,4
 671 673 671 673 671 667 c 0,5,6
 671 656 671 656 657 649 c 2,7,-1
 183 399 l 2,8,9
 175 394 175 394 166 389 c 128,-1,10
 157 384 157 384 157 374 c 0,11,12
 157 369 157 369 160.5 364.5 c 128,-1,13
 164 360 164 360 172 355 c 128,-1,14
 180 350 180 350 194 343 c 128,-1,15
 208 336 208 336 229 325 c 0,16,17
 271 303 271 303 321.5 278 c 128,-1,18
 372 253 372 253 424 227 c 128,-1,19
 476 201 476 201 526.5 174 c 128,-1,20
 577 147 577 147 619 121 c 0,21,22
 648 103 648 103 659.5 94.5 c 128,-1,23
 671 86 671 86 671 80 c 0,24,25
 671 75 671 75 667 65.5 c 128,-1,26
 663 56 663 56 658 47 c 128,-1,27
 653 38 653 38 647.5 31 c 128,-1,28
 642 24 642 24 639 24 c 0,29,30
 635 24 635 24 608.5 37 c 128,-1,31
 582 50 582 50 540.5 71 c 128,-1,32
 499 92 499 92 446.5 119.5 c 128,-1,33
 394 147 394 147 339.5 176 c 128,-1,34
 285 205 285 205 232 233 c 128,-1,35
 179 261 179 261 135.5 284.5 c 128,-1,36
 92 308 92 308 62.5 324 c 128,-1,37
 33 340 33 340 25 344 c 0,38,39
 11 351 11 351 1 356.5 c 128,-1,40
 -9 362 -9 362 -9 373 c 256,41,42
 -9 384 -9 384 3.5 391 c 128,-1,43
 16 398 16 398 42 412 c 0,44,45
 47 415 47 415 74 429.5 c 128,-1,46
 101 444 101 444 143 466.5 c 128,-1,47
 185 489 185 489 236.5 517 c 128,-1,48
 288 545 288 545 341.5 573.5 c 128,-1,49
 395 602 395 602 446.5 629 c 128,-1,50
 498 656 498 656 539 677 c 128,-1,51
 580 698 580 698 607 711 c 128,-1,52
 634 724 634 724 638 724 c 0,0,1
EndSplineSet
Validated: 1
EndChar

StartChar: equal
Encoding: 61 61 34
Width: 650
Flags: W
HStem: 172 80<24.7386 529.261> 362 80<24.7386 529.261>
LayerCount: 2
Fore
SplineSet
497 442 m 2,0,1
 522 442 522 442 529.5 434.5 c 128,-1,2
 537 427 537 427 537 402 c 256,3,4
 537 377 537 377 529.5 369.5 c 128,-1,5
 522 362 522 362 497 362 c 2,6,-1
 57 362 l 2,7,8
 32 362 32 362 24.5 369.5 c 128,-1,9
 17 377 17 377 17 402 c 256,10,11
 17 427 17 427 24.5 434.5 c 128,-1,12
 32 442 32 442 57 442 c 2,13,-1
 497 442 l 2,0,1
497 252 m 2,14,15
 522 252 522 252 529.5 244.5 c 128,-1,16
 537 237 537 237 537 212 c 256,17,18
 537 187 537 187 529.5 179.5 c 128,-1,19
 522 172 522 172 497 172 c 2,20,-1
 57 172 l 2,21,22
 32 172 32 172 24.5 179.5 c 128,-1,23
 17 187 17 187 17 212 c 256,24,25
 17 237 17 237 24.5 244.5 c 128,-1,26
 32 252 32 252 57 252 c 2,27,-1
 497 252 l 2,14,15
EndSplineSet
Validated: 1
EndChar

StartChar: greater
Encoding: 62 62 35
Width: 650
Flags: W
LayerCount: 2
Fore
SplineSet
24 724 m 0,0,1
 28 724 28 724 55 711 c 128,-1,2
 82 698 82 698 123 677 c 128,-1,3
 164 656 164 656 215.5 629 c 128,-1,4
 267 602 267 602 320.5 573.5 c 128,-1,5
 374 545 374 545 425.5 517 c 128,-1,6
 477 489 477 489 519 466.5 c 128,-1,7
 561 444 561 444 588 429.5 c 128,-1,8
 615 415 615 415 620 412 c 0,9,10
 646 398 646 398 658.5 391 c 128,-1,11
 671 384 671 384 671 373 c 256,12,13
 671 362 671 362 661 356.5 c 128,-1,14
 651 351 651 351 637 344 c 0,15,16
 629 340 629 340 599.5 324 c 128,-1,17
 570 308 570 308 526.5 284.5 c 128,-1,18
 483 261 483 261 430 233 c 128,-1,19
 377 205 377 205 322.5 176 c 128,-1,20
 268 147 268 147 215.5 119.5 c 128,-1,21
 163 92 163 92 121.5 71 c 128,-1,22
 80 50 80 50 53.5 37 c 128,-1,23
 27 24 27 24 23 24 c 0,24,25
 20 24 20 24 14.5 31 c 128,-1,26
 9 38 9 38 4 47 c 128,-1,27
 -1 56 -1 56 -5 65.5 c 128,-1,28
 -9 75 -9 75 -9 80 c 0,29,30
 -9 86 -9 86 2.5 94.5 c 128,-1,31
 14 103 14 103 43 121 c 0,32,33
 85 147 85 147 135.5 174 c 128,-1,34
 186 201 186 201 238 227 c 128,-1,35
 290 253 290 253 340.5 278 c 128,-1,36
 391 303 391 303 433 325 c 0,37,38
 454 336 454 336 468 343 c 128,-1,39
 482 350 482 350 490 355 c 128,-1,40
 498 360 498 360 501.5 364.5 c 128,-1,41
 505 369 505 369 505 374 c 0,42,43
 505 384 505 384 496 389 c 128,-1,44
 487 394 487 394 479 399 c 2,45,-1
 5 649 l 2,46,47
 -9 656 -9 656 -9 667 c 0,48,49
 -9 673 -9 673 -5 682.5 c 128,-1,50
 -1 692 -1 692 4 701 c 128,-1,51
 9 710 9 710 15 717 c 128,-1,52
 21 724 21 724 24 724 c 0,0,1
EndSplineSet
Validated: 1
EndChar

StartChar: question
Encoding: 63 63 36
Width: 650
Flags: W
HStem: 31 176<254.561 374.433> 659 71<270.314 399.68>
VStem: 137 124<537.211 647.052> 225 179<58.8416 177.439> 427 85<533.263 632.237>
LayerCount: 2
Fore
SplineSet
276 557 m 0,0,1
 276 543 276 543 269.5 531.5 c 128,-1,2
 263 520 263 520 252.5 512 c 128,-1,3
 242 504 242 504 229 499.5 c 128,-1,4
 216 495 216 495 203 495 c 0,5,6
 186 495 186 495 173.5 503.5 c 128,-1,7
 161 512 161 512 153 525 c 128,-1,8
 145 538 145 538 141 554 c 128,-1,9
 137 570 137 570 137 584 c 0,10,11
 137 621 137 621 151 648.5 c 128,-1,12
 165 676 165 676 189 694 c 128,-1,13
 213 712 213 712 244 721 c 128,-1,14
 275 730 275 730 309 730 c 0,15,16
 346 730 346 730 382 719.5 c 128,-1,17
 418 709 418 709 447 688.5 c 128,-1,18
 476 668 476 668 494 637 c 128,-1,19
 512 606 512 606 512 565 c 0,20,21
 512 529 512 529 499 507.5 c 128,-1,22
 486 486 486 486 466.5 469.5 c 128,-1,23
 447 453 447 453 425 437.5 c 128,-1,24
 403 422 403 422 385 399 c 0,25,26
 371 381 371 381 367.5 359 c 128,-1,27
 364 337 364 337 360.5 318.5 c 128,-1,28
 357 300 357 300 348.5 287 c 128,-1,29
 340 274 340 274 316 274 c 0,30,31
 277 274 277 274 277 312 c 0,32,33
 277 355 277 355 288 386 c 128,-1,34
 299 417 299 417 316 440.5 c 128,-1,35
 333 464 333 464 352 481.5 c 128,-1,36
 371 499 371 499 388 515 c 128,-1,37
 405 531 405 531 416 547 c 128,-1,38
 427 563 427 563 427 583 c 0,39,40
 427 601 427 601 418.5 615.5 c 128,-1,41
 410 630 410 630 396.5 639.5 c 128,-1,42
 383 649 383 649 366 654 c 128,-1,43
 349 659 349 659 333 659 c 0,44,45
 323 659 323 659 310.5 657 c 128,-1,46
 298 655 298 655 287 649.5 c 128,-1,47
 276 644 276 644 268.5 635.5 c 128,-1,48
 261 627 261 627 261 615 c 0,49,50
 261 600 261 600 268.5 586 c 128,-1,51
 276 572 276 572 276 557 c 0,0,1
225 118 m 0,52,53
 225 156 225 156 250.5 181.5 c 128,-1,54
 276 207 276 207 314 207 c 0,55,56
 353 207 353 207 378.5 181.5 c 128,-1,57
 404 156 404 156 404 118 c 0,58,59
 404 79 404 79 378.5 55 c 128,-1,60
 353 31 353 31 314 31 c 0,61,62
 276 31 276 31 250.5 55 c 128,-1,63
 225 79 225 79 225 118 c 0,52,53
EndSplineSet
Validated: 8388609
EndChar

StartChar: at
Encoding: 64 64 37
Width: 650
Flags: W
HStem: -64 73<245.164 402.574> 193 80<398.312 429.806> 193 70<261.498 309.355> 489 69<312.043 400.5> 713 79<308.004 453.904>
VStem: 73 77<135.472 459.602> 187 70<263.599 409.652> 367 84<398.921 511.5> 497 70<412.784 663.886>
LayerCount: 2
Fore
SplineSet
272 193 m 0,0,1
 234 193 234 193 210.5 230.5 c 128,-1,2
 187 268 187 268 187 331 c 0,3,4
 187 380 187 380 201.5 421.5 c 128,-1,5
 216 463 216 463 242.5 493.5 c 128,-1,6
 269 524 269 524 304.5 541 c 128,-1,7
 340 558 340 558 382 558 c 0,8,9
 419 558 419 558 435 543.5 c 128,-1,10
 451 529 451 529 451 494 c 0,11,12
 451 466 451 466 442.5 439 c 128,-1,13
 434 412 434 412 424.5 385.5 c 128,-1,14
 415 359 415 359 406.5 331.5 c 128,-1,15
 398 304 398 304 398 275 c 1,16,17
 406 273 406 273 408 273 c 0,18,19
 419 273 419 273 436 305.5 c 128,-1,20
 453 338 453 338 468 387 c 128,-1,21
 483 436 483 436 490 481.5 c 128,-1,22
 497 527 497 527 497 559 c 0,23,24
 497 579 497 579 493 613.5 c 128,-1,25
 489 648 489 648 464 680.5 c 128,-1,26
 439 713 439 713 387 713 c 0,27,28
 343 713 343 713 308 691 c 128,-1,29
 273 669 273 669 246.5 633 c 128,-1,30
 220 597 220 597 201.5 551.5 c 128,-1,31
 183 506 183 506 171.5 458 c 128,-1,32
 160 410 160 410 155 364.5 c 128,-1,33
 150 319 150 319 150 284 c 0,34,35
 150 244 150 244 157 196 c 128,-1,36
 164 148 164 148 183.5 106.5 c 128,-1,37
 203 65 203 65 236.5 37 c 128,-1,38
 270 9 270 9 322 9 c 0,39,40
 360 9 360 9 396 27.5 c 128,-1,41
 432 46 432 46 462 68 c 128,-1,42
 492 90 492 90 513.5 108.5 c 128,-1,43
 535 127 535 127 543 127 c 0,44,45
 550 127 550 127 556.5 111 c 128,-1,46
 563 95 563 95 563 79 c 0,47,48
 563 60 563 60 542 35.5 c 128,-1,49
 521 11 521 11 486.5 -10.5 c 128,-1,50
 452 -32 452 -32 408 -47 c 128,-1,51
 364 -62 364 -62 339 -63 c 128,-1,52
 314 -64 314 -64 311 -64 c 0,53,54
 268 -64 268 -64 226 -47.5 c 128,-1,55
 184 -31 184 -31 149.5 11.5 c 128,-1,56
 115 54 115 54 94 126 c 128,-1,57
 73 198 73 198 73 307 c 0,58,59
 73 351 73 351 81.5 403.5 c 128,-1,60
 90 456 90 456 107 510 c 128,-1,61
 124 564 124 564 149.5 615 c 128,-1,62
 175 666 175 666 209 705 c 128,-1,63
 243 744 243 744 286 768 c 128,-1,64
 329 792 329 792 380 792 c 0,65,66
 438 792 438 792 475.5 766.5 c 128,-1,67
 513 741 513 741 534.5 698.5 c 128,-1,68
 556 656 556 656 561.5 613 c 128,-1,69
 567 570 567 570 567 536 c 0,70,71
 567 515 567 515 564 475.5 c 128,-1,72
 561 436 561 436 547.5 382.5 c 128,-1,73
 534 329 534 329 514 286.5 c 128,-1,74
 494 244 494 244 470.5 218.5 c 128,-1,75
 447 193 447 193 422 193 c 0,76,77
 404 193 404 193 386 200 c 128,-1,78
 368 207 368 207 349 207 c 0,79,80
 329 207 329 207 311 200 c 128,-1,81
 293 193 293 193 272 193 c 0,0,1
257 312 m 0,82,83
 257 292 257 292 264.5 277.5 c 128,-1,84
 272 263 272 263 283 263 c 256,85,86
 294 263 294 263 308.5 283.5 c 128,-1,87
 323 304 323 304 336 334 c 128,-1,88
 349 364 349 364 358 398 c 128,-1,89
 367 432 367 432 367 458 c 0,90,91
 367 472 367 472 360.5 480.5 c 128,-1,92
 354 489 354 489 343 489 c 0,93,94
 330 489 330 489 315 471.5 c 128,-1,95
 300 454 300 454 287 427.5 c 128,-1,96
 274 401 274 401 265.5 370 c 128,-1,97
 257 339 257 339 257 312 c 0,82,83
EndSplineSet
Validated: 8388609
EndChar

StartChar: bracketleft
Encoding: 91 91 38
Width: 650
Flags: W
HStem: -128 80<298.126 486.812> -127.5 70<446.953 492.265> 711 80<298.126 486.812> 720.5 70<446.953 492.265>
VStem: 200 92<-48.452 711.452>
LayerCount: 2
Fore
SplineSet
201 349 m 1,0,-1
 200 730 l 1,1,-1
 200 733 l 2,2,3
 200 752 200 752 199.5 763.5 c 128,-1,4
 199 775 199 775 203 781 c 128,-1,5
 207 787 207 787 218.5 789 c 128,-1,6
 230 791 230 791 254 791 c 0,7,8
 265 791 265 791 288 791 c 128,-1,9
 311 791 311 791 336 791 c 128,-1,10
 361 791 361 791 384 791 c 128,-1,11
 407 791 407 791 418 791 c 0,12,13
 432 791 432 791 446.5 792 c 128,-1,14
 461 793 461 793 473 790.5 c 128,-1,15
 485 788 485 788 492.5 781 c 128,-1,16
 500 774 500 774 500 758 c 0,17,18
 500 744 500 744 489.5 735 c 128,-1,19
 479 726 479 726 465.5 720.5 c 128,-1,20
 452 715 452 715 438 713 c 128,-1,21
 424 711 424 711 416 711 c 2,22,-1
 330 711 l 2,23,24
 317 711 317 711 309.5 712 c 128,-1,25
 302 713 302 713 298 711.5 c 128,-1,26
 294 710 294 710 293 704 c 128,-1,27
 292 698 292 698 292 684 c 2,28,-1
 292 -21 l 2,29,30
 292 -35 292 -35 293 -41 c 128,-1,31
 294 -47 294 -47 298 -48.5 c 128,-1,32
 302 -50 302 -50 309.5 -49 c 128,-1,33
 317 -48 317 -48 330 -48 c 2,34,-1
 416 -48 l 2,35,36
 424 -48 424 -48 438 -50 c 128,-1,37
 452 -52 452 -52 465.5 -57.5 c 128,-1,38
 479 -63 479 -63 489.5 -72 c 128,-1,39
 500 -81 500 -81 500 -95 c 0,40,41
 500 -111 500 -111 492.5 -118 c 128,-1,42
 485 -125 485 -125 473 -127.5 c 128,-1,43
 461 -130 461 -130 446.5 -129 c 128,-1,44
 432 -128 432 -128 418 -128 c 0,45,46
 407 -128 407 -128 384 -128 c 128,-1,47
 361 -128 361 -128 336 -128 c 128,-1,48
 311 -128 311 -128 288 -128 c 128,-1,49
 265 -128 265 -128 254 -128 c 0,50,51
 230 -128 230 -128 218.5 -126 c 128,-1,52
 207 -124 207 -124 203 -118 c 128,-1,53
 199 -112 199 -112 199.5 -100.5 c 128,-1,54
 200 -89 200 -89 200 -70 c 2,55,-1
 200 -67 l 1,56,-1
 201 314 l 1,57,-1
 201 349 l 1,0,-1
EndSplineSet
Validated: 8388609
EndChar

StartChar: backslash
Encoding: 92 92 39
Width: 650
Flags: W
LayerCount: 2
Fore
SplineSet
81 868 m 0,0,1
 81 879 81 879 90.5 886.5 c 128,-1,2
 100 894 100 894 113 894 c 0,3,4
 135 894 135 894 151.5 874 c 128,-1,5
 168 854 168 854 185 814 c 128,-1,6
 202 774 202 774 221.5 715.5 c 128,-1,7
 241 657 241 657 268 580 c 0,8,9
 287 526 287 526 314 453 c 128,-1,10
 341 380 341 380 370 302 c 128,-1,11
 399 224 399 224 428 148.5 c 128,-1,12
 457 73 457 73 480 15 c 0,13,14
 493 -17 493 -17 502 -39.5 c 128,-1,15
 511 -62 511 -62 518 -79.5 c 128,-1,16
 525 -97 525 -97 530.5 -111 c 128,-1,17
 536 -125 536 -125 540 -140 c 0,18,19
 541 -144 541 -144 542 -149.5 c 128,-1,20
 543 -155 543 -155 543 -164 c 0,21,22
 543 -209 543 -209 509 -209 c 0,23,24
 487 -209 487 -209 471.5 -191 c 128,-1,25
 456 -173 456 -173 444.5 -148.5 c 128,-1,26
 433 -124 433 -124 425.5 -99 c 128,-1,27
 418 -74 418 -74 413 -60 c 0,28,29
 406 -41 406 -41 388 7 c 128,-1,30
 370 55 370 55 345 121 c 128,-1,31
 320 187 320 187 291 265 c 128,-1,32
 262 343 262 343 232.5 423 c 128,-1,33
 203 503 203 503 176 579 c 128,-1,34
 149 655 149 655 127.5 716 c 128,-1,35
 106 777 106 777 93.5 817.5 c 128,-1,36
 81 858 81 858 81 868 c 0,0,1
EndSplineSet
Validated: 1
EndChar

StartChar: bracketright
Encoding: 93 93 40
Width: 650
Flags: W
HStem: -131 80<163.188 351.874> -130.5 70<157.735 203.047> 708 80<163.188 351.874> 717.5 70<157.735 203.047>
VStem: 358 92<-51.452 708.452>
LayerCount: 2
Fore
SplineSet
449 311 m 1,0,-1
 450 -70 l 1,1,-1
 450 -73 l 2,2,3
 450 -92 450 -92 450.5 -103.5 c 128,-1,4
 451 -115 451 -115 447 -121 c 128,-1,5
 443 -127 443 -127 431.5 -129 c 128,-1,6
 420 -131 420 -131 396 -131 c 0,7,8
 385 -131 385 -131 362 -131 c 128,-1,9
 339 -131 339 -131 314 -131 c 128,-1,10
 289 -131 289 -131 266 -131 c 128,-1,11
 243 -131 243 -131 232 -131 c 0,12,13
 218 -131 218 -131 203.5 -132 c 128,-1,14
 189 -133 189 -133 177 -130.5 c 128,-1,15
 165 -128 165 -128 157.5 -121 c 128,-1,16
 150 -114 150 -114 150 -98 c 0,17,18
 150 -84 150 -84 160.5 -75 c 128,-1,19
 171 -66 171 -66 184.5 -60.5 c 128,-1,20
 198 -55 198 -55 212.5 -53 c 128,-1,21
 227 -51 227 -51 234 -51 c 2,22,-1
 320 -51 l 2,23,24
 333 -51 333 -51 340.5 -52 c 128,-1,25
 348 -53 348 -53 352 -51.5 c 128,-1,26
 356 -50 356 -50 357 -44 c 128,-1,27
 358 -38 358 -38 358 -24 c 2,28,-1
 358 681 l 2,29,30
 358 695 358 695 357 701 c 128,-1,31
 356 707 356 707 352 708.5 c 128,-1,32
 348 710 348 710 340.5 709 c 128,-1,33
 333 708 333 708 320 708 c 2,34,-1
 234 708 l 2,35,36
 227 708 227 708 212.5 710 c 128,-1,37
 198 712 198 712 184.5 717.5 c 128,-1,38
 171 723 171 723 160.5 732 c 128,-1,39
 150 741 150 741 150 755 c 0,40,41
 150 771 150 771 157.5 778 c 128,-1,42
 165 785 165 785 177 787.5 c 128,-1,43
 189 790 189 790 203.5 789 c 128,-1,44
 218 788 218 788 232 788 c 0,45,46
 243 788 243 788 266 788 c 128,-1,47
 289 788 289 788 314 788 c 128,-1,48
 339 788 339 788 362 788 c 128,-1,49
 385 788 385 788 396 788 c 0,50,51
 420 788 420 788 431.5 786 c 128,-1,52
 443 784 443 784 447 778 c 128,-1,53
 451 772 451 772 450.5 760.5 c 128,-1,54
 450 749 450 749 450 730 c 2,55,-1
 450 727 l 1,56,-1
 449 346 l 1,57,-1
 449 311 l 1,0,-1
EndSplineSet
Validated: 8388609
EndChar

StartChar: asciicircum
Encoding: 94 94 41
Width: 650
Flags: W
HStem: 759 110<287.055 335.086>
LayerCount: 2
Fore
SplineSet
486 588 m 2,0,-1
 322 751 l 2,1,2
 314 759 314 759 311 759 c 128,-1,3
 308 759 308 759 300 751 c 2,4,-1
 136 588 l 2,5,6
 129 581 129 581 121 581 c 0,7,8
 110 581 110 581 100.5 589.5 c 128,-1,9
 91 598 91 598 86 603 c 0,10,11
 73 617 73 617 72 626.5 c 128,-1,12
 71 636 71 636 82 647 c 2,13,-1
 297 861 l 2,14,15
 305 869 305 869 311 869 c 0,16,17
 318 869 318 869 325 861 c 0,18,19
 356 830 356 830 376 810 c 128,-1,20
 396 790 396 790 410.5 775.5 c 128,-1,21
 425 761 425 761 437 749.5 c 128,-1,22
 449 738 449 738 462.5 724.5 c 128,-1,23
 476 711 476 711 494 693 c 128,-1,24
 512 675 512 675 540 647 c 0,25,26
 551 636 551 636 550 626.5 c 128,-1,27
 549 617 549 617 536 603 c 0,28,29
 531 598 531 598 521.5 589.5 c 128,-1,30
 512 581 512 581 501 581 c 0,31,32
 493 581 493 581 486 588 c 2,0,-1
EndSplineSet
Validated: 1
EndChar

StartChar: underscore
Encoding: 95 95 42
Width: 650
Flags: W
HStem: -80 80<-28.2938 678.294>
LayerCount: 2
Fore
SplineSet
-3 -80 m 2,0,1
 -22 -80 -22 -80 -28.5 -68 c 128,-1,2
 -35 -56 -35 -56 -35 -40 c 256,3,4
 -35 -24 -35 -24 -28.5 -12 c 128,-1,5
 -22 0 -22 0 -3 0 c 2,6,-1
 653 0 l 2,7,8
 672 0 672 0 678.5 -12 c 128,-1,9
 685 -24 685 -24 685 -40 c 256,10,11
 685 -56 685 -56 678.5 -68 c 128,-1,12
 672 -80 672 -80 653 -80 c 2,13,-1
 -3 -80 l 2,0,1
EndSplineSet
Validated: 1
EndChar

StartChar: grave
Encoding: 96 96 43
Width: 650
Flags: W
HStem: 584 286
VStem: 104 264
LayerCount: 2
Fore
SplineSet
313 584 m 0,0,1
 296 584 296 584 283 598 c 128,-1,2
 270 612 270 612 249 635 c 0,3,4
 245 640 245 640 232.5 653.5 c 128,-1,5
 220 667 220 667 204 686 c 128,-1,6
 188 705 188 705 170.5 727 c 128,-1,7
 153 749 153 749 138 770.5 c 128,-1,8
 123 792 123 792 113.5 810 c 128,-1,9
 104 828 104 828 104 840 c 256,10,11
 104 852 104 852 117 861 c 128,-1,12
 130 870 130 870 147 870 c 0,13,14
 158 870 158 870 167.5 865.5 c 128,-1,15
 177 861 177 861 185.5 854 c 128,-1,16
 194 847 194 847 200.5 839.5 c 128,-1,17
 207 832 207 832 212 827 c 0,18,19
 237 800 237 800 264.5 765.5 c 128,-1,20
 292 731 292 731 315 699.5 c 128,-1,21
 338 668 338 668 353 644 c 128,-1,22
 368 620 368 620 368 613 c 0,23,24
 368 603 368 603 350 593.5 c 128,-1,25
 332 584 332 584 313 584 c 0,0,1
EndSplineSet
Validated: 1
EndChar

StartChar: d
Encoding: 100 100 44
Width: 650
Flags: W
HStem: -1 81.9184<219.656 377.322 516.226 582.219> 418 82<229.509 383.226> 620 80<302.757 422.293>
VStem: 68 86<150.856 342.992> 430.4 83.1<475 619.047> 436 79<148.429 360.141>
LayerCount: 2
Fore
SplineSet
422 28 m 1,0,1
 410 21 410 21 400.5 16 c 128,-1,2
 391 11 391 11 380 7 c 128,-1,3
 369 3 369 3 353 1 c 128,-1,4
 337 -1 337 -1 312 -1 c 0,5,6
 259 -1 259 -1 214 13.5 c 128,-1,7
 169 28 169 28 136.5 59.5 c 128,-1,8
 104 91 104 91 86 140 c 128,-1,9
 68 189 68 189 68 258 c 0,10,11
 68 312 68 312 85.5 356.5 c 128,-1,12
 103 401 103 401 132.5 433 c 128,-1,13
 162 465 162 465 201.5 482.5 c 128,-1,14
 241 500 241 500 285 500 c 0,15,16
 320 500 320 500 357 494.5 c 128,-1,17
 394 489 394 489 429 475 c 1,18,19
 429 482 429 482 430 506 c 0,20,21
 430.4 515.6 430.4 515.6 430.4 525.44 c 0,22,23
 430.4 540.2 430.4 540.2 429.5 555.5 c 0,24,25
 428 581 428 581 421.5 601 c 128,-1,26
 415 621 415 621 400 621 c 0,27,28
 397 621 397 621 388 620.5 c 128,-1,29
 379 620 379 620 368 620 c 0,30,31
 351 620 351 620 334.5 621 c 128,-1,32
 318 622 318 622 305.5 626 c 128,-1,33
 293 630 293 630 285.5 638 c 128,-1,34
 278 646 278 646 278 659 c 0,35,36
 278 684 278 684 302 692 c 128,-1,37
 326 700 326 700 377 700 c 2,38,-1
 462 700 l 2,39,40
 476 700 476 700 490 687.5 c 128,-1,41
 504 675 504 675 511 655 c 1,42,-1
 513 658 l 1,43,44
 512 642 512 642 512 624 c 128,-1,45
 512 606 512 606 512.5 582.5 c 128,-1,46
 513 559 513 559 513.5 527.5 c 128,-1,47
 514 496 514 496 514 453 c 0,48,49
 514 428 514 428 514 390.5 c 128,-1,50
 514 353 514 353 514.5 307.5 c 128,-1,51
 515 262 515 262 515 211.5 c 128,-1,52
 515 161 515 161 515 109 c 0,53,54
 515 96 515 96 526 89.5 c 128,-1,55
 537 83 537 83 553 79.5 c 128,-1,56
 569 76 569 76 587.5 74.5 c 128,-1,57
 606 73 606 73 621.5 69.5 c 128,-1,58
 637 66 637 66 647.5 58.5 c 128,-1,59
 658 51 658 51 658 36 c 0,60,61
 658 16 658 16 640 7 c 128,-1,62
 622 -2 622 -2 583 -2 c 0,63,64
 558 -2 558 -2 533 0.5 c 128,-1,65
 508 3 508 3 486.5 7.5 c 128,-1,66
 465 12 465 12 448 17.5 c 128,-1,67
 431 23 431 23 422 28 c 1,0,1
313 418 m 0,68,69
 277 418 277 418 248 405.5 c 128,-1,70
 219 393 219 393 198 372 c 128,-1,71
 177 351 177 351 165.5 322.5 c 128,-1,72
 154 294 154 294 154 262 c 0,73,74
 154 213 154 213 164.5 179 c 128,-1,75
 175 145 175 145 194.5 123.5 c 128,-1,76
 214 102 214 102 241 92 c 128,-1,77
 268 82 268 82 301 81 c 0,78,79
 303.653061224 80.9183673469 303.653061224 80.9183673469 306.256143274 80.9183673469 c 0,80,81
 367.428571429 80.9183673469 367.428571429 80.9183673469 401 126 c 0,82,83
 436 173 436 173 436 259 c 0,84,85
 436 338 436 338 402.5 378 c 128,-1,86
 369 418 369 418 313 418 c 0,68,69
EndSplineSet
Validated: 8912897
EndChar

StartChar: e
Encoding: 101 101 45
Width: 650
Flags: W
HStem: -0.047619 75.0476<273.56 466.852> 238 78<200.143 482.356> 424 76<265.084 430.039>
VStem: 99.5385 95.948<153.698 253.763 316 364.49>
LayerCount: 2
Fore
SplineSet
549 383 m 0,0,1
 553 375 553 375 555.5 369.5 c 128,-1,2
 558 364 558 364 560 356 c 0,3,4
 562 347 562 347 565.5 328.5 c 0,5,6
 568.5625 312.3125 568.5625 312.3125 568.5625 295.359375 c 0,7,8
 568.5625 272.165178571 568.5625 272.165178571 561 256.5 c 0,9,10
 554 242 554 242 536 241 c 0,11,12
 484 239 484 239 432 238 c 128,-1,13
 380 237 380 237 335.5 237 c 128,-1,14
 291 237 291 237 258.5 237.5 c 128,-1,15
 226 238 226 238 213 238 c 0,16,17
 195.486486486 238 195.486486486 238 195.486486486 214.333089847 c 0,18,19
 195.486486486 188.860482104 195.486486486 188.860482104 214.5 157 c 0,20,21
 233 126 233 126 268 100.5 c 128,-1,22
 303 75 303 75 353 75 c 0,23,24
 382 75 382 75 410 81.5 c 128,-1,25
 438 88 438 88 462.5 95.5 c 128,-1,26
 487 103 487 103 507.5 109 c 128,-1,27
 528 115 528 115 542 115 c 0,28,29
 559 115 559 115 563 103 c 0,30,31
 565.882352941 94.7647058824 565.882352941 94.7647058824 565.882352941 87.2923875433 c 0,32,33
 565.882352941 76.6176470588 565.882352941 76.6176470588 560 67.5 c 0,34,35
 550 52 550 52 529.5 40.5 c 128,-1,36
 509 29 509 29 482 21.5 c 128,-1,37
 455 14 455 14 428.5 9 c 128,-1,38
 402 4 402 4 380 2 c 128,-1,39
 358 0 358 0 346 0 c 0,40,41
 343.238095238 -0.047619047619 343.238095238 -0.047619047619 340.502267574 -0.047619047619 c 0,42,43
 285.785714286 -0.047619047619 285.785714286 -0.047619047619 241.5 19 c 0,44,45
 195 39 195 39 162.5 75 c 128,-1,46
 130 111 130 111 113.5 161.5 c 0,47,48
 99.5384615385 204.230769231 99.5384615385 204.230769231 99.5384615385 253.763313609 c 0,49,50
 99.5384615385 262.769230769 99.5384615385 262.769230769 100 272 c 0,51,52
 102 326 102 326 120.5 368.5 c 128,-1,53
 139 411 139 411 171.5 440 c 128,-1,54
 204 469 204 469 248.5 484.5 c 128,-1,55
 293 500 293 500 346 500 c 0,56,57
 388 500 388 500 422.5 489 c 128,-1,58
 457 478 457 478 482.5 460.5 c 128,-1,59
 508 443 508 443 525 422.5 c 128,-1,60
 542 402 542 402 549 383 c 0,0,1
349 424 m 0,61,62
 331 423 331 423 310 418.5 c 128,-1,63
 289 414 289 414 268.5 404 c 128,-1,64
 248 394 248 394 230.5 379 c 128,-1,65
 213 364 213 364 203 342 c 0,66,67
 200 336 200 336 200 326 c 128,-1,68
 200 316 200 316 216 316 c 0,69,70
 252 316 252 316 280 316 c 128,-1,71
 308 316 308 316 335 316 c 128,-1,72
 362 316 362 316 392 316.5 c 128,-1,73
 422 317 422 317 461 318 c 0,74,75
 478 319 478 319 482.5 327 c 128,-1,76
 487 335 487 335 485 344 c 0,77,78
 481 362 481 362 465.5 377 c 128,-1,79
 450 392 450 392 429.5 402.5 c 128,-1,80
 409 413 409 413 387.5 418.5 c 128,-1,81
 366 424 366 424 349 424 c 0,61,62
EndSplineSet
Validated: 524289
EndChar

StartChar: f
Encoding: 102 102 46
Width: 650
Flags: W
HStem: -1 80<112.705 248 319 472.842> 420 80<116.799 248 319 452.749> 671 72<386.091 548.258>
VStem: 248 71<79 420 500 610.92> 559 97<548.965 654.51>
LayerCount: 2
Fore
SplineSet
248 500 m 1,0,-1
 248 556 l 2,1,2
 248 590 248 590 262.5 623.5 c 128,-1,3
 277 657 277 657 304 683.5 c 128,-1,4
 331 710 331 710 370 726.5 c 128,-1,5
 409 743 409 743 458 743 c 0,6,7
 501 743 501 743 537 731 c 128,-1,8
 573 719 573 719 599.5 697.5 c 128,-1,9
 626 676 626 676 641 646 c 128,-1,10
 656 616 656 616 656 580 c 0,11,12
 656 548 656 548 642 534 c 128,-1,13
 628 520 628 520 607 520 c 0,14,15
 576 520 576 520 557.5 534 c 0,16,17
 544.078431373 544.156862745 544.078431373 544.156862745 544.078431373 563.261437908 c 0,18,19
 544.078431373 570.490196078 544.078431373 570.490196078 546 579 c 0,20,21
 549 593 549 593 554 610.5 c 128,-1,22
 559 628 559 628 559 637 c 0,23,24
 559 643 559 643 548.5 649 c 128,-1,25
 538 655 538 655 524 660 c 128,-1,26
 510 665 510 665 495 668 c 128,-1,27
 480 671 480 671 471 671 c 0,28,29
 452 671 452 671 425.5 664.5 c 128,-1,30
 399 658 399 658 375.5 643 c 128,-1,31
 352 628 352 628 335.5 603.5 c 128,-1,32
 319 579 319 579 319 542 c 2,33,-1
 319 500 l 1,34,-1
 428 500 l 2,35,36
 446 500 446 500 453.5 491.5 c 128,-1,37
 461 483 461 483 461 462 c 0,38,39
 461 442 461 442 453 431 c 128,-1,40
 445 420 445 420 431 420 c 2,41,-1
 319 420 l 1,42,-1
 319 79 l 1,43,-1
 452 79 l 2,44,45
 483 79 483 79 483 41 c 0,46,47
 483 36 483 36 483 29 c 128,-1,48
 483 22 483 22 480.5 15 c 128,-1,49
 478 8 478 8 473 3.5 c 128,-1,50
 468 -1 468 -1 457 -1 c 2,51,-1
 134 -1 l 2,52,53
 119 -1 119 -1 112.5 6.5 c 128,-1,54
 106 14 106 14 106 33 c 0,55,56
 106 38 106 38 106 45.5 c 128,-1,57
 106 53 106 53 108.5 60.5 c 128,-1,58
 111 68 111 68 116 73.5 c 128,-1,59
 121 79 121 79 131 79 c 2,60,-1
 248 79 l 1,61,-1
 248 420 l 1,62,-1
 143 420 l 2,63,64
 107 420 107 420 107 455 c 0,65,66
 107 475 107 475 116.5 487.5 c 128,-1,67
 126 500 126 500 143 500 c 2,68,-1
 248 500 l 1,0,-1
EndSplineSet
Validated: 524289
EndChar

StartChar: braceleft
Encoding: 123 123 47
Width: 650
Flags: W
HStem: 782 79.5<437.921 482.81>
VStem: 162 127.778<293.969 384.821> 223 78<206.593 275.572 487.627 740.833> 232 82<-83.8848 263.469 406.397 672.498>
LayerCount: 2
Fore
SplineSet
290 335 m 0,0,1
 292 316 292 316 295.5 301 c 128,-1,2
 299 286 299 286 303.5 271 c 128,-1,3
 308 256 308 256 311 240.5 c 128,-1,4
 314 225 314 225 314 206 c 0,5,6
 314 190 314 190 313.5 163.5 c 128,-1,7
 313 137 313 137 312.5 108 c 128,-1,8
 312 79 312 79 311.5 52 c 128,-1,9
 311 25 311 25 311 7 c 0,10,11
 311 -33 311 -33 322 -59 c 128,-1,12
 333 -85 333 -85 350.5 -101 c 128,-1,13
 368 -117 368 -117 388 -125 c 128,-1,14
 408 -133 408 -133 426.5 -138 c 128,-1,15
 445 -143 445 -143 458.5 -147 c 128,-1,16
 472 -151 472 -151 476 -158 c 0,17,18
 480 -166 480 -166 480 -179 c 0,19,20
 480 -193 480 -193 474 -200.5 c 128,-1,21
 468 -208 468 -208 460 -211 c 128,-1,22
 452 -214 452 -214 444 -214.5 c 128,-1,23
 436 -215 436 -215 431 -215 c 0,24,25
 385 -215 385 -215 348.5 -198.5 c 128,-1,26
 312 -182 312 -182 286.5 -152 c 128,-1,27
 261 -122 261 -122 247 -78.5 c 128,-1,28
 233 -35 233 -35 233 19 c 0,29,30
 233 25 233 25 233 42.5 c 128,-1,31
 233 60 233 60 232.5 79.5 c 128,-1,32
 232 99 232 99 232 117.5 c 128,-1,33
 232 136 232 136 232 143 c 0,34,35
 232 188 232 188 227 215 c 128,-1,36
 222 242 222 242 214 257 c 128,-1,37
 206 272 206 272 197 279.5 c 128,-1,38
 188 287 188 287 180.5 293.5 c 128,-1,39
 173 300 173 300 167.5 308.5 c 128,-1,40
 162 317 162 317 162 335 c 0,41,42
 162 354 162 354 167 364 c 128,-1,43
 172 374 172 374 179.5 381 c 128,-1,44
 187 388 187 388 196.5 394 c 128,-1,45
 206 400 206 400 213.5 410.5 c 128,-1,46
 221 421 221 421 226.5 439 c 128,-1,47
 232 457 232 457 232 487 c 0,48,49
 232 507 232 507 230.5 534 c 128,-1,50
 229 561 229 561 227.5 590 c 128,-1,51
 226 619 226 619 224.5 647 c 128,-1,52
 223 675 223 675 223 696 c 0,53,54
 223 777 223 777 270 821 c 128,-1,55
 317 865 317 865 412 865 c 0,56,57
 424 865 424 865 437.5 865 c 128,-1,58
 451 865 451 865 462.5 861.5 c 128,-1,59
 474 858 474 858 482 849 c 128,-1,60
 490 840 490 840 490 823 c 0,61,62
 490 804 490 804 483 793 c 0,63,64
 477 784 477 784 461.5 782 c 128,-1,65
 446 780 446 780 425.5 778.5 c 128,-1,66
 405 777 405 777 383 773.5 c 128,-1,67
 361 770 361 770 343 759.5 c 128,-1,68
 325 749 325 749 313 729 c 128,-1,69
 301 709 301 709 301 673 c 0,70,71
 301 657 301 657 303 631 c 128,-1,72
 305 605 305 605 307.5 577 c 128,-1,73
 310 549 310 549 312 523.5 c 128,-1,74
 314 498 314 498 314 482 c 0,75,76
 314 461 314 461 310 441.5 c 128,-1,77
 306 422 306 422 301 403.5 c 128,-1,78
 296 385 296 385 292.5 368 c 0,79,80
 289.777777778 354.777777778 289.777777778 354.777777778 289.777777778 342.160493827 c 0,81,82
 289.777777778 338.555555556 289.777777778 338.555555556 290 335 c 0,0,1
EndSplineSet
Validated: 8912897
EndChar

StartChar: bar
Encoding: 124 124 48
Width: 650
Flags: W
VStem: 240 80<-554.294 841.294>
LayerCount: 2
Fore
SplineSet
240 816 m 2,0,1
 240 835 240 835 252 841.5 c 128,-1,2
 264 848 264 848 280 848 c 256,3,4
 296 848 296 848 308 841.5 c 128,-1,5
 320 835 320 835 320 816 c 2,6,-1
 320 -529 l 2,7,8
 320 -548 320 -548 308 -554.5 c 128,-1,9
 296 -561 296 -561 280 -561 c 256,10,11
 264 -561 264 -561 252 -554.5 c 128,-1,12
 240 -548 240 -548 240 -529 c 2,13,-1
 240 816 l 2,0,1
EndSplineSet
Validated: 1
EndChar

StartChar: braceright
Encoding: 125 125 49
Width: 650
Flags: W
HStem: 782 79.5<168.19 213.079>
VStem: 337 82<-83.8848 263.469 406.397 672.498> 350 76.5<206.593 273.812 487.627 740.833> 361.222 127.778<290.688 384.821>
LayerCount: 2
Fore
SplineSet
361 335 m 0,0,1
 361.222222222 338.555555556 361.222222222 338.555555556 361.222222222 342.160493827 c 0,2,3
 361.222222222 354.777777778 361.222222222 354.777777778 358.5 368 c 0,4,5
 355 385 355 385 350 403.5 c 128,-1,6
 345 422 345 422 341 441.5 c 128,-1,7
 337 461 337 461 337 482 c 0,8,9
 337 498 337 498 339 523.5 c 128,-1,10
 341 549 341 549 343.5 577 c 128,-1,11
 346 605 346 605 348 631 c 128,-1,12
 350 657 350 657 350 673 c 0,13,14
 350 709 350 709 338 729 c 128,-1,15
 326 749 326 749 308 759.5 c 128,-1,16
 290 770 290 770 268 773.5 c 128,-1,17
 246 777 246 777 225.5 778.5 c 128,-1,18
 205 780 205 780 189.5 782 c 128,-1,19
 174 784 174 784 168 793 c 0,20,21
 161 804 161 804 161 823 c 0,22,23
 161 840 161 840 169 849 c 128,-1,24
 177 858 177 858 188.5 861.5 c 128,-1,25
 200 865 200 865 213.5 865 c 128,-1,26
 227 865 227 865 239 865 c 0,27,28
 334 865 334 865 381 821 c 128,-1,29
 428 777 428 777 428 696 c 0,30,31
 428 675 428 675 426.5 647 c 128,-1,32
 425 619 425 619 423.5 590 c 128,-1,33
 422 561 422 561 420.5 534 c 128,-1,34
 419 507 419 507 419 487 c 0,35,36
 419 457 419 457 424.5 439 c 128,-1,37
 430 421 430 421 437.5 410.5 c 128,-1,38
 445 400 445 400 454.5 394 c 128,-1,39
 464 388 464 388 471.5 381 c 128,-1,40
 479 374 479 374 484 364 c 128,-1,41
 489 354 489 354 489 335 c 0,42,43
 489 317 489 317 483.5 308.5 c 128,-1,44
 478 300 478 300 470.5 293.5 c 128,-1,45
 463 287 463 287 454 279.5 c 128,-1,46
 445 272 445 272 437 257 c 128,-1,47
 429 242 429 242 424 215 c 128,-1,48
 419 188 419 188 419 143 c 0,49,50
 419 136 419 136 419 117.5 c 128,-1,51
 419 99 419 99 418.5 79.5 c 128,-1,52
 418 60 418 60 418 42.5 c 128,-1,53
 418 25 418 25 418 19 c 0,54,55
 418 -35 418 -35 404 -78.5 c 128,-1,56
 390 -122 390 -122 364.5 -152 c 128,-1,57
 339 -182 339 -182 302.5 -198.5 c 128,-1,58
 266 -215 266 -215 220 -215 c 0,59,60
 215 -215 215 -215 207 -214.5 c 128,-1,61
 199 -214 199 -214 191 -211 c 128,-1,62
 183 -208 183 -208 177 -200.5 c 128,-1,63
 171 -193 171 -193 171 -179 c 0,64,65
 171 -166 171 -166 175 -158 c 0,66,67
 179 -151 179 -151 192.5 -147 c 128,-1,68
 206 -143 206 -143 224.5 -138 c 128,-1,69
 243 -133 243 -133 263 -125 c 128,-1,70
 283 -117 283 -117 300.5 -101 c 128,-1,71
 318 -85 318 -85 329 -59 c 128,-1,72
 340 -33 340 -33 340 7 c 0,73,74
 340 25 340 25 339.5 52 c 128,-1,75
 339 79 339 79 338.5 108 c 128,-1,76
 338 137 338 137 337.5 163.5 c 128,-1,77
 337 190 337 190 337 206 c 0,78,79
 337 225 337 225 340 240.5 c 128,-1,80
 343 256 343 256 347.5 271 c 128,-1,81
 352 286 352 286 356 301 c 128,-1,82
 360 316 360 316 361 335 c 0,0,1
EndSplineSet
Validated: 8912897
EndChar

StartChar: asciitilde
Encoding: 126 126 50
Width: 650
Flags: W
HStem: 182 90.6667<366.707 560.656> 332 89<61.2354 193.059>
VStem: -68 85<213.568 291.823>
LayerCount: 2
Fore
SplineSet
150 421 m 0,0,1
 180 421 180 421 204 409.5 c 128,-1,2
 228 398 228 398 250 380.5 c 128,-1,3
 272 363 272 363 294.5 343.5 c 128,-1,4
 317 324 317 324 343 307.5 c 128,-1,5
 369 291 369 291 400 281 c 0,6,7
 425.833333333 272.666666667 425.833333333 272.666666667 458.611111111 272.666666667 c 0,8,9
 465.166666667 272.666666667 465.166666667 272.666666667 472 273 c 0,10,11
 516 275 516 275 551 290 c 128,-1,12
 586 305 586 305 611.5 323.5 c 128,-1,13
 637 342 637 342 653.5 359.5 c 128,-1,14
 670 377 670 377 677 383 c 0,15,16
 687 393 687 393 698 393 c 0,17,18
 710 393 710 393 718 381 c 128,-1,19
 726 369 726 369 726 349 c 0,20,21
 726 319 726 319 702.5 289 c 128,-1,22
 679 259 679 259 641 235.5 c 128,-1,23
 603 212 603 212 555.5 197 c 128,-1,24
 508 182 508 182 460 182 c 0,25,26
 416 182 416 182 381.5 193 c 128,-1,27
 347 204 347 204 318.5 221 c 128,-1,28
 290 238 290 238 266.5 257 c 128,-1,29
 243 276 243 276 219.5 293 c 128,-1,30
 196 310 196 310 172 321 c 128,-1,31
 148 332 148 332 120 332 c 0,32,33
 78 332 78 332 54.5 309 c 128,-1,34
 31 286 31 286 17 258 c 128,-1,35
 3 230 3 230 -8 207 c 128,-1,36
 -19 184 -19 184 -36 184 c 0,37,38
 -50 184 -50 184 -59 200.5 c 128,-1,39
 -68 217 -68 217 -68 241 c 0,40,41
 -68 273 -68 273 -48.5 305 c 128,-1,42
 -29 337 -29 337 2.5 362.5 c 128,-1,43
 34 388 34 388 73 404.5 c 128,-1,44
 112 421 112 421 150 421 c 0,0,1
EndSplineSet
Validated: 524289
EndChar

StartChar: asterisk
Encoding: 42 42 52
Width: 650
Flags: W
HStem: 416 89<61.502 235.388 413.127 587.498>
LayerCount: 2
Fore
SplineSet
339 575 m 0,0,1
 344 583 344 583 352 596.5 c 128,-1,2
 360 610 360 610 369 625.5 c 128,-1,3
 378 641 378 641 386.5 655 c 128,-1,4
 395 669 395 669 399 677 c 0,5,6
 407 692 407 692 417.5 701 c 128,-1,7
 428 710 428 710 442 710 c 0,8,9
 454 710 454 710 465 703 c 0,10,11
 487.071428571 690.387755102 487.071428571 690.387755102 487.071428571 669.275510204 c 0,12,13
 487.071428571 651.5 487.071428571 651.5 475 632 c 0,14,15
 471 625 471 625 462.5 611 c 128,-1,16
 454 597 454 597 445.5 581.5 c 128,-1,17
 437 566 437 566 429 552 c 128,-1,18
 421 538 421 538 416 530 c 0,19,20
 409 519 409 519 413 512 c 128,-1,21
 417 505 417 505 430 505 c 2,22,-1
 549 505 l 2,23,24
 572 505 572 505 588 495.5 c 128,-1,25
 604 486 604 486 604 461 c 0,26,27
 604 435 604 435 588 425.5 c 128,-1,28
 572 416 572 416 549 416 c 2,29,-1
 430 416 l 2,30,31
 417 417 417 417 413 409.5 c 128,-1,32
 409 402 409 402 416 391 c 2,33,-1
 475 289 l 2,34,35
 486.52 268.84 486.52 268.84 486.52 251.4448 c 0,36,37
 486.52 232.321904762 486.52 232.321904762 465 219 c 0,38,39
 454 212 454 212 442 212 c 0,40,41
 428 212 428 212 417.5 221 c 128,-1,42
 407 230 407 230 399 245 c 0,43,44
 395 253 395 253 386.5 267 c 128,-1,45
 378 281 378 281 369 296 c 128,-1,46
 360 311 360 311 352 325 c 128,-1,47
 344 339 344 339 339 347 c 0,48,49
 333 358 333 358 325 358 c 0,50,51
 316 358 316 358 310 347 c 0,52,53
 305 339 305 339 297 325 c 128,-1,54
 289 311 289 311 280 296 c 128,-1,55
 271 281 271 281 263 267 c 128,-1,56
 255 253 255 253 250 245 c 0,57,58
 242 230 242 230 231.5 221 c 128,-1,59
 221 212 221 212 208 212 c 0,60,61
 196 212 196 212 185 219 c 0,62,63
 162.48 232.307272727 162.48 232.307272727 162.48 251.4448 c 0,64,65
 162.48 268.84 162.48 268.84 174 289 c 2,66,-1
 233 391 l 2,67,68
 237.225 399.125 237.225 399.125 237.225 404.609375 c 0,69,70
 237.225 416 237.225 416 219 416 c 2,71,-1
 101 416 l 2,72,73
 77 416 77 416 61 425.5 c 128,-1,74
 45 435 45 435 45 461 c 0,75,76
 45 486 45 486 61 495.5 c 128,-1,77
 77 505 77 505 101 505 c 2,78,-1
 219 505 l 2,79,80
 232 504 232 504 235.5 511.5 c 128,-1,81
 239 519 239 519 233 530 c 0,82,83
 229 538 229 538 220.5 552 c 128,-1,84
 212 566 212 566 203.5 581.5 c 128,-1,85
 195 597 195 597 187 611 c 128,-1,86
 179 625 179 625 174 632 c 0,87,88
 161.928571429 651.5 161.928571429 651.5 161.928571429 668.844387755 c 0,89,90
 161.928571429 689.366883117 161.928571429 689.366883117 185 703 c 0,91,92
 196 710 196 710 208 710 c 0,93,94
 221 710 221 710 231.5 701 c 128,-1,95
 242 692 242 692 250 677 c 0,96,97
 255 669 255 669 263 655 c 128,-1,98
 271 641 271 641 280 625.5 c 128,-1,99
 289 610 289 610 297.5 596.5 c 128,-1,100
 306 583 306 583 310 575 c 0,101,102
 318 564 318 564 325 564 c 0,103,104
 333 564 333 564 339 575 c 0,0,1
EndSplineSet
Validated: 524289
EndChar

StartChar: g
Encoding: 103 103 53
Width: 650
Flags: W
HStem: -177 77<197.851 466.182> 49 66<196.43 452.087> 158 73<233.373 357.031> 381 111<454.378 581.589> 384.5 96<512.184 581.589> 415 77<235.09 360.231>
VStem: 60 84<-62.0619 10.3947> 76 80<117.774 172.432> 127 75<261.416 381.681> 392 81.6667<266.245 383.833> 507 79<-66.2532 9.19098>
LayerCount: 2
Fore
SplineSet
454 398 m 1,0,1
 454 390 454 390 458 381.5 c 128,-1,2
 462 373 462 373 466.5 362.5 c 128,-1,3
 471 352 471 352 473 338 c 0,4,5
 473.666666667 333.333333333 473.666666667 333.333333333 473.666666667 328 c 0,6,7
 473.666666667 317.333333333 473.666666667 317.333333333 471 304 c 0,8,9
 461 259 461 259 443.5 231 c 128,-1,10
 426 203 426 203 403.5 186.5 c 128,-1,11
 381 170 381 170 356 164 c 128,-1,12
 331 158 331 158 306 158 c 0,13,14
 276 158 276 158 249 163.5 c 128,-1,15
 222 169 222 169 204 173 c 0,16,17
 196.903225806 174.612903226 196.903225806 174.612903226 190.742976067 174.612903226 c 0,18,19
 177.806451613 174.612903226 177.806451613 174.612903226 169 167.5 c 0,20,21
 156 157 156 157 156 143 c 0,22,23
 156 115 156 115 202 115 c 0,24,25
 220 115 220 115 257.5 118 c 128,-1,26
 295 121 295 121 345 121 c 0,27,28
 391 121 391 121 434.5 112 c 128,-1,29
 478 103 478 103 511.5 85 c 128,-1,30
 545 67 545 67 565.5 40.5 c 128,-1,31
 586 14 586 14 586 -20 c 0,32,33
 586 -59 586 -59 567.5 -88.5 c 128,-1,34
 549 -118 549 -118 515 -137.5 c 128,-1,35
 481 -157 481 -157 433.5 -167 c 128,-1,36
 386 -177 386 -177 328 -177 c 0,37,38
 268 -177 268 -177 219 -165.5 c 128,-1,39
 170 -154 170 -154 134.5 -134.5 c 128,-1,40
 99 -115 99 -115 79.5 -88.5 c 128,-1,41
 60 -62 60 -62 60 -33 c 0,42,43
 60 -15 60 -15 66.5 -0.5 c 128,-1,44
 73 14 73 14 81 26 c 128,-1,45
 89 38 89 38 95.5 49.5 c 128,-1,46
 102 61 102 61 102 73 c 0,47,48
 102 83 102 83 98 91.5 c 128,-1,49
 94 100 94 100 89 108.5 c 128,-1,50
 84 117 84 117 80 126.5 c 128,-1,51
 76 136 76 136 76 147 c 0,52,53
 76 165 76 165 84 178.5 c 128,-1,54
 92 192 92 192 101.5 204.5 c 128,-1,55
 111 217 111 217 119 230 c 128,-1,56
 127 243 127 243 127 258 c 256,57,58
 127 273 127 273 125 289.5 c 128,-1,59
 123 306 123 306 123 330 c 0,60,61
 123 360 123 360 136 389 c 128,-1,62
 149 418 149 418 170.5 441 c 128,-1,63
 192 464 192 464 220.5 478 c 128,-1,64
 249 492 249 492 279 492 c 0,65,66
 297 492 297 492 314.5 488.5 c 128,-1,67
 332 485 332 485 348 480.5 c 128,-1,68
 364 476 364 476 379 472.5 c 128,-1,69
 394 469 394 469 408 469 c 256,70,71
 422 469 422 469 433 472.5 c 128,-1,72
 444 476 444 476 455.5 480.5 c 128,-1,73
 467 485 467 485 480 488.5 c 128,-1,74
 493 492 493 492 511 492 c 0,75,76
 549 492 549 492 572 481.5 c 128,-1,77
 595 471 595 471 595 432 c 0,78,79
 595 411 595 411 582 396 c 128,-1,80
 569 381 569 381 537 381 c 0,81,82
 511 381 511 381 488.5 384.5 c 128,-1,83
 466 388 466 388 454 398 c 1,0,1
202 317 m 0,84,85
 202 278 202 278 231 254.5 c 128,-1,86
 260 231 260 231 300 231 c 0,87,88
 318 231 318 231 334.5 238.5 c 128,-1,89
 351 246 351 246 364 259 c 128,-1,90
 377 272 377 272 384.5 289.5 c 128,-1,91
 392 307 392 307 392 327 c 0,92,93
 392 364 392 364 364.5 389.5 c 128,-1,94
 337 415 337 415 295 415 c 0,95,96
 255 415 255 415 228.5 387 c 128,-1,97
 202 359 202 359 202 317 c 0,84,85
144 -28 m 0,98,99
 144 -59 144 -59 201 -79.5 c 128,-1,100
 258 -100 258 -100 358 -100 c 0,101,102
 390 -100 390 -100 417 -94.5 c 128,-1,103
 444 -89 444 -89 464 -79.5 c 128,-1,104
 484 -70 484 -70 495.5 -56.5 c 128,-1,105
 507 -43 507 -43 507 -28 c 0,106,107
 507 -10 507 -10 491.5 4 c 128,-1,108
 476 18 476 18 450 28 c 128,-1,109
 424 38 424 38 390 43.5 c 128,-1,110
 356 49 356 49 318 49 c 0,111,112
 285 49 285 49 253.5 43.5 c 128,-1,113
 222 38 222 38 197.5 28 c 128,-1,114
 173 18 173 18 158.5 4 c 128,-1,115
 144 -10 144 -10 144 -28 c 0,98,99
EndSplineSet
Validated: 8912897
EndChar

StartChar: h
Encoding: 104 104 54
Width: 650
Flags: W
HStem: 0 21G<101.5 268 405.5 583> 426 72<319.225 430.156> 618 81<40.2202 127.084>
VStem: 147.625 67.375<102.037 312.539 421.094 597.815> 461 70<103.598 391.592>
LayerCount: 2
Fore
SplineSet
227 421 m 1,0,-1
 232 425 l 2,1,2
 251 438 251 438 268 451 c 128,-1,3
 285 464 285 464 303.5 474.5 c 128,-1,4
 322 485 322 485 343.5 491.5 c 128,-1,5
 365 498 365 498 394 498 c 0,6,7
 444 498 444 498 472.5 472.5 c 128,-1,8
 501 447 501 447 514.5 409.5 c 128,-1,9
 528 372 528 372 531 328.5 c 128,-1,10
 534 285 534 285 534 248 c 2,11,-1
 531 195 l 1,12,-1
 531 168 l 2,13,14
 531 129 531 129 544.5 112.5 c 128,-1,15
 558 96 558 96 575 88 c 0,16,17
 579 86 579 86 582.5 84.5 c 128,-1,18
 586 83 586 83 589 81 c 0,19,20
 596 78 596 78 601 73 c 0,21,22
 612 65 612 65 612 46 c 256,23,24
 612 27 612 27 602 13.5 c 128,-1,25
 592 0 592 0 574 0 c 2,26,-1
 414 0 l 2,27,28
 397 2 397 2 383.5 7 c 128,-1,29
 370 12 370 12 370 34 c 0,30,31
 370 50 370 50 376.5 58.5 c 128,-1,32
 383 67 383 67 396 75 c 0,33,34
 401 77 401 77 405 79.5 c 128,-1,35
 409 82 409 82 413 84 c 0,36,37
 430 93 430 93 445.5 106 c 128,-1,38
 461 119 461 119 461 149 c 0,39,40
 461 160 461 160 461 170 c 128,-1,41
 461 180 461 180 462 191 c 2,42,-1
 464 218 l 2,43,44
 465 229 465 229 465 239 c 128,-1,45
 465 249 465 249 465 260 c 0,46,47
 465 279 465 279 463 307 c 128,-1,48
 461 335 461 335 453 361.5 c 128,-1,49
 445 388 445 388 428.5 407 c 128,-1,50
 412 426 412 426 383 426 c 0,51,52
 355 426 355 426 325 408 c 128,-1,53
 295 390 295 390 270.5 362 c 128,-1,54
 246 334 246 334 230.5 300 c 128,-1,55
 215 266 215 266 215 234 c 2,56,-1
 215 125 l 2,57,58
 215 113 215 113 219.5 105.5 c 128,-1,59
 224 98 224 98 232 93 c 0,60,61
 238 89 238 89 248 86 c 0,62,63
 253 84 253 84 257.5 83 c 128,-1,64
 262 82 262 82 267 80 c 0,65,66
 284 75 284 75 297 66.5 c 128,-1,67
 310 58 310 58 310 38 c 0,68,69
 310 15 310 15 294.5 7.5 c 128,-1,70
 279 0 279 0 257 0 c 2,71,-1
 112 0 l 2,72,73
 91 0 91 0 79 13 c 128,-1,74
 67 26 67 26 67 47 c 0,75,76
 67 59 67 59 74 65.5 c 128,-1,77
 81 72 81 72 91 77.5 c 128,-1,78
 101 83 101 83 111.5 89 c 128,-1,79
 122 95 122 95 129 107 c 0,80,81
 138 121 138 121 141.5 140.5 c 128,-1,82
 145 160 145 160 146.5 180 c 0,83,84
 147.625 195 147.625 195 147.625 210 c 0,85,86
 147.625 215 147.625 215 147.5 220 c 0,87,88
 147 240 147 240 147 255 c 2,89,-1
 147 303 l 1,90,-1
 148 400 l 1,91,-1
 148 448 l 2,92,93
 148 464 148 464 148 486 c 128,-1,94
 148 508 148 508 146 530.5 c 128,-1,95
 144 553 144 553 137.5 573.5 c 128,-1,96
 131 594 131 594 119 607 c 0,97,98
 113 614 113 614 106 616 c 128,-1,99
 99 618 99 618 91.5 618 c 128,-1,100
 84 618 84 618 76 617.5 c 128,-1,101
 68 617 68 617 60 620 c 0,102,103
 47 624 47 624 40 629.5 c 128,-1,104
 33 635 33 635 33 652 c 0,105,106
 33 668 33 668 40 677 c 128,-1,107
 47 686 47 686 58.5 691 c 128,-1,108
 70 696 70 696 84.5 697.5 c 128,-1,109
 99 699 99 699 114 699 c 0,110,111
 145 699 145 699 166 696.5 c 128,-1,112
 187 694 187 694 200 684 c 128,-1,113
 213 674 213 674 218.5 654.5 c 128,-1,114
 224 635 224 635 224 601 c 256,115,116
 224 567 224 567 221.5 534 c 128,-1,117
 219 501 219 501 219 467 c 0,118,119
 219 462 219 462 219 457 c 128,-1,120
 219 452 219 452 220 447 c 0,121,122
 220 442 220 442 221 437 c 128,-1,123
 222 432 222 432 224 427 c 2,124,-1
 227 421 l 1,0,-1
EndSplineSet
Validated: 524289
EndChar

StartChar: i
Encoding: 105 105 55
Width: 650
Flags: W
HStem: -5 86<115.721 288.455 384.489 537.749> 410 87<132.47 276.015> 410 78.5<132.47 276.015> 535 165<268.098 384.309>
VStem: 244 163<558.92 676.793> 292 80<92.5461 397.2>
LayerCount: 2
Fore
SplineSet
326 535 m 256,0,1
 289 535 289 535 266.5 558 c 128,-1,2
 244 581 244 581 244 617 c 0,3,4
 244 655 244 655 266 677.5 c 128,-1,5
 288 700 288 700 326 700 c 0,6,7
 363 700 363 700 385 677.5 c 128,-1,8
 407 655 407 655 407 617 c 0,9,10
 407 580 407 580 385 557.5 c 128,-1,11
 363 535 363 535 326 535 c 256,0,1
107 35 m 0,12,13
 107 51 107 51 116 59.5 c 128,-1,14
 125 68 125 68 138.5 72.5 c 128,-1,15
 152 77 152 77 166.5 78 c 128,-1,16
 181 79 181 79 193 79 c 2,17,-1
 228 79 l 2,18,19
 236 79 236 79 246.5 80 c 128,-1,20
 257 81 257 81 267 86 c 0,21,22
 277 90 277 90 284.5 97.5 c 128,-1,23
 292 105 292 105 292 119 c 2,24,-1
 292 365 l 2,25,26
 292 388 292 388 276.5 397.5 c 128,-1,27
 261 407 261 407 242 410 c 0,28,29
 232 411 232 411 222 411 c 128,-1,30
 212 411 212 411 202 411 c 0,31,32
 193 411 193 411 184.5 410.5 c 128,-1,33
 176 410 176 410 169 410 c 0,34,35
 147 410 147 410 132 418 c 128,-1,36
 117 426 117 426 117 448 c 0,37,38
 117 464 117 464 125 473.5 c 128,-1,39
 133 483 133 483 145.5 488.5 c 128,-1,40
 158 494 158 494 173.5 495.5 c 128,-1,41
 189 497 189 497 203 497 c 2,42,-1
 268 497 l 2,43,44
 276 497 276 497 287 496.5 c 128,-1,45
 298 496 298 496 309.5 494.5 c 128,-1,46
 321 493 321 493 331 490 c 128,-1,47
 341 487 341 487 346 482 c 0,48,49
 356 473 356 473 361.5 445.5 c 128,-1,50
 367 418 367 418 370 386 c 128,-1,51
 373 354 373 354 373.5 324 c 128,-1,52
 374 294 374 294 374 278 c 2,53,-1
 374 248 l 1,54,-1
 372 189 l 1,55,-1
 372 159 l 2,56,57
 372 101 372 101 401 88 c 0,58,59
 408 84 408 84 416 83 c 128,-1,60
 424 82 424 82 434 81 c 2,61,-1
 476 81 l 2,62,63
 488 81 488 81 500.5 79.5 c 128,-1,64
 513 78 513 78 523 73.5 c 128,-1,65
 533 69 533 69 539.5 61 c 128,-1,66
 546 53 546 53 546 40 c 0,67,68
 546 23 546 23 538 14.5 c 128,-1,69
 530 6 530 6 517 1 c 256,70,71
 504 -4 504 -4 488.5 -4.5 c 128,-1,72
 473 -5 473 -5 459 -5 c 2,73,-1
 455 -5 l 1,74,-1
 186 -4 l 2,75,76
 176 -4 176 -4 162.5 -3.5 c 128,-1,77
 149 -3 149 -3 136.5 1 c 128,-1,78
 124 5 124 5 115.5 13 c 128,-1,79
 107 21 107 21 107 35 c 0,12,13
EndSplineSet
Validated: 8388609
EndChar

StartChar: j
Encoding: 106 106 56
Width: 650
Flags: W
HStem: -183 80<249.276 383.875> 415 83<280.595 427.684> 535 164<374.722 492.793>
VStem: 134 92<-79.7949 -47> 351 165<558.92 675.609> 438 80<-43.3828 408.168>
LayerCount: 2
Fore
SplineSet
351 617 m 0,0,1
 351 655 351 655 374 677 c 128,-1,2
 397 699 397 699 434 699 c 256,3,4
 471 699 471 699 493.5 677 c 128,-1,5
 516 655 516 655 516 617 c 0,6,7
 516 580 516 580 493.5 557.5 c 128,-1,8
 471 535 471 535 434 535 c 256,9,10
 397 535 397 535 374 557.5 c 128,-1,11
 351 580 351 580 351 617 c 0,0,1
226 -47 m 1,12,-1
 226 -49 l 2,13,14
 226 -64 226 -64 239 -74 c 128,-1,15
 252 -84 252 -84 267 -91 c 0,16,17
 283 -97 283 -97 299 -100 c 128,-1,18
 315 -103 315 -103 325 -103 c 0,19,20
 350 -103 350 -103 370.5 -90.5 c 128,-1,21
 391 -78 391 -78 406 -58.5 c 128,-1,22
 421 -39 421 -39 429.5 -16 c 128,-1,23
 438 7 438 7 438 29 c 2,24,-1
 438 373 l 2,25,26
 438 398 438 398 428 408.5 c 128,-1,27
 418 419 418 419 393 419 c 0,28,29
 376 419 376 419 358 417 c 128,-1,30
 340 415 340 415 323 415 c 0,31,32
 299 415 299 415 280 422.5 c 128,-1,33
 261 430 261 430 261 456 c 0,34,35
 261 470 261 470 267 478 c 128,-1,36
 273 486 273 486 282.5 490.5 c 128,-1,37
 292 495 292 495 304 496.5 c 128,-1,38
 316 498 316 498 329 498 c 2,39,-1
 432 498 l 2,40,41
 453 498 453 498 469 496.5 c 128,-1,42
 485 495 485 495 496 488 c 128,-1,43
 507 481 507 481 512.5 468.5 c 128,-1,44
 518 456 518 456 518 433 c 2,45,-1
 518 -5 l 2,46,47
 518 -40 518 -40 500.5 -72 c 128,-1,48
 483 -104 483 -104 455.5 -129 c 128,-1,49
 428 -154 428 -154 393.5 -168.5 c 128,-1,50
 359 -183 359 -183 325 -183 c 0,51,52
 294 -183 294 -183 260 -170 c 128,-1,53
 226 -157 226 -157 198 -135 c 128,-1,54
 170 -113 170 -113 152 -83.5 c 128,-1,55
 134 -54 134 -54 134 -20 c 0,56,57
 134 -2 134 -2 140 17 c 128,-1,58
 146 36 146 36 157.5 51.5 c 128,-1,59
 169 67 169 67 185 77 c 128,-1,60
 201 87 201 87 220 87 c 0,61,62
 247 87 247 87 260 67 c 128,-1,63
 273 47 273 47 273 20 c 0,64,65
 273 4 273 4 269 -4 c 128,-1,66
 265 -12 265 -12 254 -23 c 0,67,68
 252 -25 l 1,69,-1
 248 -28 l 2,70,71
 247 -29 247 -29 246 -29 c 0,72,73
 241 -32 241 -32 236.5 -36 c 128,-1,74
 232 -40 232 -40 227 -45 c 2,75,-1
 226 -47 l 1,12,-1
EndSplineSet
Validated: 8388609
EndChar

StartChar: k
Encoding: 107 107 57
Width: 650
Flags: W
HStem: 11 65<243 294.296 388 389 394 395 531.707 596.718> 12 75<62.9557 146.161> 620 79<58.9531 128.948>
VStem: 147 74<89.9132 212 291.062 602.313>
LayerCount: 2
Fore
SplineSet
227 291 m 1,0,-1
 231 292 l 2,1,2
 239 294 239 294 257.5 309.5 c 128,-1,3
 276 325 276 325 296.5 344.5 c 128,-1,4
 317 364 317 364 333 382.5 c 128,-1,5
 349 401 349 401 351 408 c 2,6,-1
 352 411 l 1,7,-1
 348 414 l 2,8,9
 336 422 336 422 326.5 430.5 c 128,-1,10
 317 439 317 439 317 452 c 0,11,12
 317 467 317 467 330.5 475.5 c 128,-1,13
 344 484 344 484 362.5 488.5 c 128,-1,14
 381 493 381 493 400 494 c 128,-1,15
 419 495 419 495 429 495 c 0,16,17
 440 495 440 495 461.5 493.5 c 128,-1,18
 483 492 483 492 504.5 486.5 c 128,-1,19
 526 481 526 481 542 472 c 128,-1,20
 558 463 558 463 558 448 c 0,21,22
 558 437 558 437 549.5 431 c 128,-1,23
 541 425 541 425 530 425 c 0,24,25
 515 425 515 425 486.5 413.5 c 128,-1,26
 458 402 458 402 430.5 384.5 c 128,-1,27
 403 367 403 367 382 346.5 c 128,-1,28
 361 326 361 326 361 308 c 0,29,30
 361 294 361 294 373 272 c 128,-1,31
 385 250 385 250 404 224.5 c 128,-1,32
 423 199 423 199 447 173.5 c 128,-1,33
 471 148 471 148 494.5 127 c 128,-1,34
 518 106 518 106 539 93 c 128,-1,35
 560 80 560 80 574 80 c 256,36,37
 588 80 588 80 597 69 c 128,-1,38
 606 58 606 58 606 43 c 0,39,40
 606 29 606 29 600.5 23 c 128,-1,41
 595 17 595 17 587 14 c 0,42,43
 582 12 582 12 577 12 c 128,-1,44
 572 12 572 12 566 11 c 2,45,-1
 515 11 l 1,46,-1
 461 12 l 1,47,-1
 410 12 l 2,48,49
 404 13 404 13 398 13.5 c 128,-1,50
 392 14 392 14 387 16 c 0,51,52
 376 19 376 19 369.5 25 c 128,-1,53
 363 31 363 31 363 43 c 0,54,55
 363 57 363 57 370 63.5 c 128,-1,56
 377 70 377 70 388 74 c 1,57,-1
 388 75 l 1,58,-1
 389 75 l 1,59,-1
 394 77 l 1,60,-1
 395 77 l 1,61,-1
 395 78 l 1,62,63
 402 80 402 80 405 83 c 0,64,65
 410 85 410 85 413.5 89.5 c 128,-1,66
 417 94 417 94 417 100 c 2,67,-1
 417 102 l 1,68,-1
 416 103 l 2,69,70
 411 111 411 111 394 135.5 c 128,-1,71
 377 160 377 160 357 186 c 0,72,73
 346 203 346 203 332.5 220.5 c 128,-1,74
 319 238 319 238 303 251 c 0,75,76
 296 258 296 258 290 258 c 0,77,78
 282 258 282 258 270 246 c 128,-1,79
 258 234 258 234 247 218 c 128,-1,80
 236 202 236 202 228.5 186 c 128,-1,81
 221 170 221 170 221 163 c 2,82,-1
 221 133 l 2,83,84
 221 128 221 128 221 121 c 128,-1,85
 221 114 221 114 222 106 c 0,86,87
 223 99 223 99 225.5 91.5 c 128,-1,88
 228 84 228 84 233 81 c 0,89,90
 238 79 238 79 243 78 c 128,-1,91
 248 77 248 77 253 76 c 0,92,93
 258 76 258 76 264.5 76 c 128,-1,94
 271 76 271 76 277 74 c 0,95,96
 288 72 288 72 294.5 67 c 128,-1,97
 301 62 301 62 301 49 c 256,98,99
 301 36 301 36 294 28.5 c 128,-1,100
 287 21 287 21 277 17 c 128,-1,101
 267 13 267 13 255 12 c 128,-1,102
 243 11 243 11 234 11 c 0,103,104
 198 11 198 11 161.5 11.5 c 128,-1,105
 125 12 125 12 88 12 c 0,106,107
 68 12 68 12 58 19 c 128,-1,108
 48 26 48 26 48 46 c 0,109,110
 48 72 48 72 62.5 79.5 c 128,-1,111
 77 87 77 87 102 87 c 0,112,113
 108 87 108 87 115.5 88 c 128,-1,114
 123 89 123 89 129 91 c 0,115,116
 136 94 136 94 141.5 100 c 128,-1,117
 147 106 147 106 147 116 c 2,118,-1
 147 553 l 2,119,120
 147 596 147 596 129.5 608 c 128,-1,121
 112 620 112 620 74 620 c 0,122,123
 68 620 68 620 60 622 c 0,124,125
 55 624 55 624 52 628.5 c 128,-1,126
 49 633 49 633 49 645 c 0,127,128
 49 664 49 664 62 681.5 c 128,-1,129
 75 699 75 699 94 699 c 2,130,-1
 162 699 l 2,131,132
 186 699 186 699 200.5 693 c 128,-1,133
 215 687 215 687 222.5 675 c 128,-1,134
 230 663 230 663 232.5 645 c 128,-1,135
 235 627 235 627 235 604 c 0,136,137
 235 550 235 550 227.5 497.5 c 128,-1,138
 220 445 220 445 220 391 c 2,139,-1
 220 330 l 2,140,141
 221 319 221 319 222 309.5 c 128,-1,142
 223 300 223 300 226 295 c 2,143,-1
 227 291 l 1,0,-1
EndSplineSet
Validated: 8388609
EndChar

StartChar: l
Encoding: 108 108 58
Width: 650
Flags: W
HStem: 1 79<78.5201 279.274 396.409 563.431> 1 67.5<78.5201 189.912 405.248 573.101> 626 73<126.443 261.994> 632 67<117.908 176.818>
VStem: 297 79<97.926 583.875>
LayerCount: 2
Fore
SplineSet
112 655 m 0,0,1
 112 673 112 673 124.5 686 c 128,-1,2
 137 699 137 699 154 699 c 2,3,-1
 302 699 l 2,4,5
 331 699 331 699 345 693 c 128,-1,6
 359 687 359 687 365 675 c 128,-1,7
 371 663 371 663 372.5 645.5 c 128,-1,8
 374 628 374 628 376 606 c 0,9,10
 378 595 378 595 378 583.5 c 128,-1,11
 378 572 378 572 379 564 c 0,12,13
 379 554 379 554 379 545 c 0,14,15
 379 445 379 445 377.5 367.5 c 128,-1,16
 376 290 376 290 376 231 c 256,17,18
 376 172 376 172 379.5 141.5 c 128,-1,19
 383 111 383 111 396 97.5 c 128,-1,20
 409 84 409 84 433.5 82.5 c 128,-1,21
 458 81 458 81 500 81 c 0,22,23
 546 81 546 81 564 73.5 c 128,-1,24
 582 66 582 66 582 48 c 256,25,26
 582 30 582 30 566.5 15.5 c 128,-1,27
 551 1 551 1 531 1 c 2,28,-1
 113 1 l 2,29,30
 99 1 99 1 85 15 c 128,-1,31
 71 29 71 29 71 44 c 0,32,33
 71 61 71 61 93.5 68.5 c 128,-1,34
 116 76 116 76 144.5 78.5 c 0,35,36
 168.25 80.5833333333 168.25 80.5833333333 190.611111111 80.5833333333 c 0,37,38
 195.083333333 80.5833333333 195.083333333 80.5833333333 199.5 80.5 c 0,39,40
 226 80 226 80 234 80 c 0,41,42
 258 80 258 80 270.5 92 c 128,-1,43
 283 104 283 104 289 118 c 0,44,45
 296 134 296 134 297 155 c 0,46,47
 297 270 297 270 296.5 348.5 c 128,-1,48
 296 427 296 427 296 446 c 0,49,50
 296 515 296 515 286.5 552 c 128,-1,51
 277 589 277 589 261 605.5 c 128,-1,52
 245 622 245 622 223.5 624 c 128,-1,53
 202 626 202 626 178 626 c 0,54,55
 140 626 140 626 126 632 c 128,-1,56
 112 638 112 638 112 655 c 0,0,1
EndSplineSet
Validated: 8912897
EndChar

StartChar: m
Encoding: 109 109 59
Width: 650
Flags: W
HStem: 0 80<-24.1708 100.105 607.954 671.046> 409 88.5<34.752 92.7499> 417 81<56.3741 112.07 230.489 305.703 428.995 504.582>
VStem: 113 74<97.0186 371.578> 274 154<11.5 83.3828> 316.5 73.8333<85.0205 376.984> 519 74<101.276 411.139>
LayerCount: 2
Fore
SplineSet
593 304 m 2,0,-1
 593 124 l 2,1,2
 593 98 593 98 607.5 90.5 c 128,-1,3
 622 83 622 83 639.5 80 c 128,-1,4
 657 77 657 77 671.5 71 c 128,-1,5
 686 65 686 65 686 42 c 0,6,7
 686 0 686 0 622 0 c 2,8,-1
 494 0 l 2,9,10
 473 0 473 0 460 9.5 c 128,-1,11
 447 19 447 19 447 34 c 256,12,13
 447 49 447 49 458 57.5 c 128,-1,14
 469 66 469 66 482.5 80.5 c 128,-1,15
 496 95 496 95 507 121.5 c 128,-1,16
 518 148 518 148 518 200 c 0,17,18
 518 209 518 209 518.5 222 c 128,-1,19
 519 235 519 235 519 250 c 128,-1,20
 519 265 519 265 519.5 280.5 c 128,-1,21
 520 296 520 296 520 309 c 0,22,23
 520 326 520 326 519.5 346 c 128,-1,24
 519 366 519 366 514.5 383 c 128,-1,25
 510 400 510 400 500 411.5 c 128,-1,26
 490 423 490 423 470 423 c 0,27,28
 447 423 447 423 432.5 408 c 128,-1,29
 418 393 418 393 409 369 c 128,-1,30
 400 345 400 345 396 315.5 c 128,-1,31
 392 286 392 286 391 257.5 c 0,32,33
 390.333333333 238.5 390.333333333 238.5 390.333333333 221.277777778 c 0,34,35
 390.333333333 212.666666667 390.333333333 212.666666667 390.5 204.5 c 0,36,37
 391 180 391 180 391 166 c 0,38,39
 391 130 391 130 397 113.5 c 128,-1,40
 403 97 403 97 409.5 88.5 c 128,-1,41
 416 80 416 80 422 73.5 c 128,-1,42
 428 67 428 67 428 51 c 0,43,44
 428 -1 428 -1 346 -1 c 0,45,46
 274 -1 274 -1 274 49 c 0,47,48
 274 67 274 67 281 71.5 c 128,-1,49
 288 76 288 76 296 83.5 c 128,-1,50
 304 91 304 91 311 111.5 c 128,-1,51
 318 132 318 132 318 181 c 0,52,53
 318 207 318 207 316.5 245 c 128,-1,54
 315 283 315 283 315 325 c 0,55,56
 315 334 315 334 314.5 350.5 c 128,-1,57
 314 367 314 367 310 382.5 c 128,-1,58
 306 398 306 398 298 410 c 128,-1,59
 290 422 290 422 275 422 c 0,60,61
 262 422 262 422 246.5 411 c 128,-1,62
 231 400 231 400 218 384 c 128,-1,63
 205 368 205 368 196 349 c 128,-1,64
 187 330 187 330 187 314 c 2,65,-1
 187 299 l 2,66,67
 187 265 187 265 188.5 233 c 128,-1,68
 190 201 190 201 190 181 c 0,69,70
 190 132 190 132 201 110.5 c 128,-1,71
 212 89 212 89 225 78.5 c 128,-1,72
 238 68 238 68 249 62 c 128,-1,73
 260 56 260 56 260 38 c 256,74,75
 260 20 260 20 248.5 12 c 128,-1,76
 237 4 237 4 220.5 1.5 c 0,77,78
 206.75 -0.583333333333 206.75 -0.583333333333 190.916666667 -0.583333333333 c 0,79,80
 187.75 -0.583333333333 187.75 -0.583333333333 184.5 -0.5 c 0,81,82
 165 0 165 0 148 0 c 0,83,84
 137 0 137 0 118 -0.5 c 128,-1,85
 99 -1 99 -1 84 -1 c 256,86,87
 69 -1 69 -1 48.5 -1 c 128,-1,88
 28 -1 28 -1 9.5 3 c 128,-1,89
 -9 7 -9 7 -22 16 c 128,-1,90
 -35 25 -35 25 -35 43 c 0,91,92
 -35 60 -35 60 -24.5 67.5 c 128,-1,93
 -14 75 -14 75 1 77.5 c 128,-1,94
 16 80 16 80 32 79.5 c 128,-1,95
 48 79 48 79 59 79 c 0,96,97
 88 79 88 79 100.5 90.5 c 128,-1,98
 113 102 113 102 113 130 c 2,99,-1
 113 387 l 2,100,101
 113 400 113 400 107 408.5 c 128,-1,102
 101 417 101 417 93 417 c 256,103,104
 85 417 85 417 76.5 413 c 128,-1,105
 68 409 68 409 56 409 c 0,106,107
 27 409 27 409 27 445 c 0,108,109
 27 465 27 465 35 476 c 128,-1,110
 43 487 43 487 54 492 c 128,-1,111
 65 497 65 497 75.5 497.5 c 128,-1,112
 86 498 86 498 92 498 c 0,113,114
 130 498 130 498 151.5 488.5 c 128,-1,115
 173 479 173 479 192 455 c 1,116,-1
 194 455 l 1,117,118
 217 469 217 469 242.5 483 c 128,-1,119
 268 497 268 497 295 497 c 0,120,121
 312 497 312 497 324.5 491 c 128,-1,122
 337 485 337 485 347 477.5 c 128,-1,123
 357 470 357 470 366 464 c 128,-1,124
 375 458 375 458 385 458 c 256,125,126
 395 458 395 458 407 464.5 c 128,-1,127
 419 471 419 471 433.5 478.5 c 128,-1,128
 448 486 448 486 466 492 c 128,-1,129
 484 498 484 498 507 498 c 0,130,131
 547 498 547 498 565.5 478 c 128,-1,132
 584 458 584 458 590 428.5 c 0,133,134
 594.8 404.9 594.8 404.9 594.8 378.42 c 0,135,136
 594.8 371.8 594.8 371.8 594.5 365 c 0,137,138
 593 331 593 331 593 304 c 2,0,-1
EndSplineSet
Validated: 8912897
EndChar

StartChar: n
Encoding: 110 110 60
Width: 650
Flags: W
HStem: 0 80<58.9264 129.652 226.923 286.077 540.438 598.466> 416 82<76.6021 140.419 372.837 438.039> 428 79<283.63 430.41>
VStem: 141 72<97.3496 362.956> 447 79<105.355 411.003>
LayerCount: 2
Fore
SplineSet
526 304 m 2,0,-1
 526 124 l 2,1,2
 526 98 526 98 540 90.5 c 128,-1,3
 554 83 554 83 571 80 c 128,-1,4
 588 77 588 77 602 71 c 128,-1,5
 616 65 616 65 616 41 c 256,6,7
 616 17 616 17 599 8.5 c 128,-1,8
 582 0 582 0 552 0 c 2,9,-1
 424 0 l 2,10,11
 406 0 406 0 391.5 13.5 c 128,-1,12
 377 27 377 27 377 44 c 0,13,14
 377 64 377 64 388 72 c 128,-1,15
 399 80 399 80 411.5 90.5 c 128,-1,16
 424 101 424 101 435 120.5 c 128,-1,17
 446 140 446 140 446 182 c 0,18,19
 446 189 446 189 446.5 207 c 128,-1,20
 447 225 447 225 447 247 c 128,-1,21
 447 269 447 269 447.5 290 c 128,-1,22
 448 311 448 311 448 324 c 0,23,24
 448 351 448 351 445 370.5 c 128,-1,25
 442 390 442 390 433 403 c 128,-1,26
 424 416 424 416 407 422 c 128,-1,27
 390 428 390 428 362 428 c 0,28,29
 339 428 339 428 314 420 c 128,-1,30
 289 412 289 412 268 397 c 128,-1,31
 247 382 247 382 233.5 361 c 128,-1,32
 220 340 220 340 220 314 c 0,33,34
 220 295 220 295 219 273 c 128,-1,35
 218 251 218 251 216.5 228.5 c 128,-1,36
 215 206 215 206 214 184 c 128,-1,37
 213 162 213 162 213 143 c 0,38,39
 213 108 213 108 226.5 97 c 128,-1,40
 240 86 240 86 256.5 82 c 128,-1,41
 273 78 273 78 286.5 73 c 128,-1,42
 300 68 300 68 300 45 c 0,43,44
 300 25 300 25 294.5 15.5 c 128,-1,45
 289 6 289 6 276.5 2.5 c 0,46,47
 265.5625 -0.5625 265.5625 -0.5625 248.5 -0.5625 c 0,48,49
 246.0625 -0.5625 246.0625 -0.5625 243.5 -0.5 c 0,50,51
 223 0 223 0 193 0 c 0,52,53
 185 0 185 0 172.5 0 c 128,-1,54
 160 0 160 0 147 -0.5 c 128,-1,55
 134 -1 134 -1 122.5 -1 c 128,-1,56
 111 -1 111 -1 104 -1 c 0,57,58
 72 -1 72 -1 58.5 14.5 c 128,-1,59
 45 30 45 30 45 41 c 0,60,61
 45 53 45 53 56 66 c 128,-1,62
 67 79 67 79 90 79 c 0,63,64
 119 79 119 79 130 90 c 128,-1,65
 141 101 141 101 141 130 c 2,66,-1
 141 387 l 2,67,68
 141 398 141 398 136.5 404 c 128,-1,69
 132 410 132 410 124.5 412.5 c 128,-1,70
 117 415 117 415 108 415.5 c 128,-1,71
 99 416 99 416 90 416 c 0,72,73
 73 416 73 416 65 424.5 c 128,-1,74
 57 433 57 433 57 446 c 0,75,76
 57 476 57 476 76 487 c 128,-1,77
 95 498 95 498 148 498 c 0,78,79
 173 498 173 498 189 487.5 c 128,-1,80
 205 477 205 477 222 455 c 1,81,-1
 224 455 l 1,82,83
 239 464 239 464 257 473 c 128,-1,84
 275 482 275 482 294.5 489.5 c 128,-1,85
 314 497 314 497 333.5 502 c 128,-1,86
 353 507 353 507 371 507 c 0,87,88
 430 507 430 507 462 495 c 128,-1,89
 494 483 494 483 508 458 c 128,-1,90
 522 433 522 433 524 395 c 128,-1,91
 526 357 526 357 526 304 c 2,0,-1
EndSplineSet
Validated: 8912897
EndChar

StartChar: o
Encoding: 111 111 61
Width: 650
Flags: W
HStem: 0 80<241.556 408.573> 420 80<236.815 413.288>
VStem: 72 90<162.458 343.659> 488 90<162.458 343.659>
LayerCount: 2
Fore
SplineSet
72 250 m 256,0,1
 72 306 72 306 90 352 c 128,-1,2
 108 398 108 398 141 431 c 128,-1,3
 174 464 174 464 220.5 482 c 128,-1,4
 267 500 267 500 325 500 c 256,5,6
 383 500 383 500 429.5 482 c 128,-1,7
 476 464 476 464 509 431 c 128,-1,8
 542 398 542 398 560 352 c 128,-1,9
 578 306 578 306 578 250 c 256,10,11
 578 194 578 194 557.5 148 c 128,-1,12
 537 102 537 102 502 69 c 128,-1,13
 467 36 467 36 421 18 c 128,-1,14
 375 0 375 0 325 0 c 256,15,16
 275 0 275 0 229 18 c 128,-1,17
 183 36 183 36 148 69 c 128,-1,18
 113 102 113 102 92.5 148 c 128,-1,19
 72 194 72 194 72 250 c 256,0,1
162 254 m 0,20,21
 162 218 162 218 173.5 186 c 128,-1,22
 185 154 185 154 206 130.5 c 128,-1,23
 227 107 227 107 257.5 93.5 c 128,-1,24
 288 80 288 80 325 80 c 0,25,26
 363 80 363 80 393 93.5 c 128,-1,27
 423 107 423 107 444 130.5 c 128,-1,28
 465 154 465 154 476.5 186 c 128,-1,29
 488 218 488 218 488 254 c 0,30,31
 488 291 488 291 476.5 321.5 c 128,-1,32
 465 352 465 352 444 374 c 128,-1,33
 423 396 423 396 393 408 c 128,-1,34
 363 420 363 420 325 420 c 0,35,36
 288 420 288 420 257.5 408 c 128,-1,37
 227 396 227 396 206 374 c 128,-1,38
 185 352 185 352 173.5 321.5 c 128,-1,39
 162 291 162 291 162 254 c 0,20,21
EndSplineSet
Validated: 1
EndChar

StartChar: p
Encoding: 112 112 62
Width: 650
Flags: W
HStem: -169 81<73.6326 172.427 256.221 374.945> 19 78<318.524 458.243> 435 79<64.2661 166.78 317.895 463.818>
VStem: 174 76<-82.4749 65.9358 174.868 361.722> 521 78<166.067 368.543>
LayerCount: 2
Fore
SplineSet
599 264 m 0,0,1
 599 216 599 216 583 171.5 c 128,-1,2
 567 127 567 127 540.5 93 c 128,-1,3
 514 59 514 59 479 39 c 128,-1,4
 444 19 444 19 406 19 c 0,5,6
 389 19 389 19 367.5 23.5 c 128,-1,7
 346 28 346 28 325.5 34.5 c 128,-1,8
 305 41 305 41 288 49.5 c 128,-1,9
 271 58 271 58 263 66 c 1,10,11
 258 64 258 64 255 55 c 128,-1,12
 252 46 252 46 250 36 c 0,13,14
 248 25 248 25 248 11 c 0,15,16
 248 -21 248 -21 250 -40.5 c 128,-1,17
 252 -60 252 -60 258.5 -70.5 c 128,-1,18
 265 -81 265 -81 277 -84.5 c 128,-1,19
 289 -88 289 -88 309 -88 c 0,20,21
 358 -88 358 -88 375.5 -96 c 128,-1,22
 393 -104 393 -104 393 -126 c 0,23,24
 393 -169 393 -169 319 -169 c 0,25,26
 280 -169 280 -169 252 -169 c 128,-1,27
 224 -169 224 -169 203.5 -168.5 c 128,-1,28
 183 -168 183 -168 169 -167.5 c 128,-1,29
 155 -167 155 -167 144 -167 c 0,30,31
 93 -165 93 -165 73 -155 c 128,-1,32
 53 -145 53 -145 53 -122 c 0,33,34
 53 -100 53 -100 68.5 -94.5 c 128,-1,35
 84 -89 84 -89 104.5 -88 c 128,-1,36
 125 -87 125 -87 144.5 -84.5 c 128,-1,37
 164 -82 164 -82 173 -65 c 1,38,39
 174 -39 174 -39 174 -12 c 128,-1,40
 174 15 174 15 174 41 c 2,41,-1
 174 409 l 2,42,43
 174 421 174 421 167 426.5 c 128,-1,44
 160 432 160 432 149.5 434 c 128,-1,45
 139 436 139 436 127 435.5 c 128,-1,46
 115 435 115 435 104 435 c 0,47,48
 54 435 54 435 54 468 c 0,49,50
 54 488 54 488 75.5 501 c 128,-1,51
 97 514 97 514 132 514 c 0,52,53
 150 514 150 514 171 514.5 c 0,54,55
 173.625 514.5625 173.625 514.5625 176.1953125 514.5625 c 0,56,57
 194.1875 514.5625 194.1875 514.5625 209.5 511.5 c 0,58,59
 227 508 227 508 239 498 c 128,-1,60
 251 488 251 488 252 467 c 1,61,62
 278 489 278 489 314.5 501 c 128,-1,63
 351 513 351 513 389 513 c 0,64,65
 434 513 434 513 472 494 c 128,-1,66
 510 475 510 475 538.5 441.5 c 128,-1,67
 567 408 567 408 583 362.5 c 128,-1,68
 599 317 599 317 599 264 c 0,0,1
521 264 m 0,69,70
 521 342 521 342 486.5 389.5 c 128,-1,71
 452 437 452 437 395 437 c 0,72,73
 364 437 364 437 337.5 424.5 c 128,-1,74
 311 412 311 412 291.5 390 c 128,-1,75
 272 368 272 368 261 337.5 c 128,-1,76
 250 307 250 307 250 272 c 0,77,78
 250 235 250 235 260.5 203 c 128,-1,79
 271 171 271 171 289 147.5 c 128,-1,80
 307 124 307 124 332 110.5 c 128,-1,81
 357 97 357 97 386 97 c 0,82,83
 447 97 447 97 484 143 c 128,-1,84
 521 189 521 189 521 264 c 0,69,70
EndSplineSet
Validated: 524289
EndChar

StartChar: q
Encoding: 113 113 63
Width: 650
Flags: W
HStem: -169 81<277.055 395.779 479.573 578.367> 19 78<193.757 333.476> 437 76<190.695 330.89>
VStem: 53 78<166.067 368.543> 402 84<-40.5 428> 404 74<-81.4495 65.9358 179.297 357.464>
LayerCount: 2
Fore
SplineSet
53 264 m 0,0,1
 53 317 53 317 69 362.5 c 128,-1,2
 85 408 85 408 113.5 441.5 c 128,-1,3
 142 475 142 475 180 494 c 128,-1,4
 218 513 218 513 263 513 c 0,5,6
 301 513 301 513 337.5 501 c 128,-1,7
 374 489 374 489 400 467 c 1,8,9
 401 485 401 485 410 497 c 128,-1,10
 419 509 419 509 433 509 c 0,11,12
 452 509 452 509 462.5 499 c 128,-1,13
 473 489 473 489 478.5 476 c 128,-1,14
 484 463 484 463 485 449.5 c 128,-1,15
 486 436 486 436 486 428 c 0,16,17
 486 423 486 423 482 393.5 c 128,-1,18
 478 364 478 364 478 319 c 2,19,-1
 478 41 l 2,20,21
 478 15 478 15 478 -12 c 128,-1,22
 478 -39 478 -39 479 -65 c 1,23,24
 488 -82 488 -82 507.5 -84.5 c 128,-1,25
 527 -87 527 -87 547.5 -88 c 128,-1,26
 568 -89 568 -89 583.5 -94.5 c 128,-1,27
 599 -100 599 -100 599 -122 c 0,28,29
 599 -145 599 -145 579 -155 c 128,-1,30
 559 -165 559 -165 508 -167 c 0,31,32
 498 -167 498 -167 483.5 -167.5 c 128,-1,33
 469 -168 469 -168 448.5 -168.5 c 128,-1,34
 428 -169 428 -169 400 -169 c 128,-1,35
 372 -169 372 -169 333 -169 c 0,36,37
 259 -169 259 -169 259 -126 c 0,38,39
 259 -104 259 -104 276.5 -96 c 128,-1,40
 294 -88 294 -88 343 -88 c 0,41,42
 363 -88 363 -88 375 -84.5 c 128,-1,43
 387 -81 387 -81 393.5 -70.5 c 128,-1,44
 400 -60 400 -60 402 -40.5 c 128,-1,45
 404 -21 404 -21 404 11 c 0,46,47
 404 25 404 25 402 36 c 0,48,49
 400 46 400 46 397.5 55 c 128,-1,50
 395 64 395 64 389 66 c 1,51,52
 381 58 381 58 364 49.5 c 128,-1,53
 347 41 347 41 326.5 34.5 c 128,-1,54
 306 28 306 28 284.5 23.5 c 128,-1,55
 263 19 263 19 246 19 c 0,56,57
 208 19 208 19 173 39 c 128,-1,58
 138 59 138 59 111.5 93 c 128,-1,59
 85 127 85 127 69 171.5 c 128,-1,60
 53 216 53 216 53 264 c 0,0,1
131 264 m 0,61,62
 131 189 131 189 168 143 c 128,-1,63
 205 97 205 97 266 97 c 0,64,65
 295 97 295 97 320 110.5 c 128,-1,66
 345 124 345 124 363 147.5 c 128,-1,67
 381 171 381 171 391.5 203 c 128,-1,68
 402 235 402 235 402 272 c 0,69,70
 402 307 402 307 391 337.5 c 128,-1,71
 380 368 380 368 360.5 390 c 128,-1,72
 341 412 341 412 314.5 424.5 c 128,-1,73
 288 437 288 437 257 437 c 0,74,75
 200 437 200 437 165.5 389.5 c 128,-1,76
 131 342 131 342 131 264 c 0,61,62
EndSplineSet
Validated: 8388609
EndChar

StartChar: r
Encoding: 114 114 64
Width: 650
Flags: W
HStem: 0 79.5<78.8291 183.848 276.359 391.046> 423 77<102.5 204.369 395.134 470.679>
VStem: 190 80<85.4512 295.928> 449 140<340.82 421.517>
LayerCount: 2
Fore
SplineSet
68 36 m 0,0,1
 68 54 68 54 78.5 63 c 128,-1,2
 89 72 89 72 103.5 75.5 c 128,-1,3
 118 79 118 79 133.5 79.5 c 128,-1,4
 149 80 149 80 160 80 c 0,5,6
 176 80 176 80 183 99 c 128,-1,7
 190 118 190 118 190 139 c 2,8,-1
 190 184 l 1,9,-1
 189 273 l 1,10,-1
 189 318 l 2,11,12
 189 338 189 338 197.5 355.5 c 128,-1,13
 206 373 206 373 206 393 c 0,14,15
 206 409 206 409 191 417 c 128,-1,16
 176 425 176 425 162 425 c 0,17,18
 146 425 146 425 132 418 c 128,-1,19
 118 411 118 411 102 411 c 256,20,21
 86 411 86 411 76 424 c 128,-1,22
 66 437 66 437 66 452 c 256,23,24
 66 467 66 467 72.5 476.5 c 128,-1,25
 79 486 79 486 88.5 491.5 c 128,-1,26
 98 497 98 497 110.5 498.5 c 128,-1,27
 123 500 123 500 135 500 c 2,28,-1
 198 500 l 2,29,30
 217 500 217 500 230.5 497.5 c 128,-1,31
 244 495 244 495 252.5 488 c 128,-1,32
 261 481 261 481 266 468.5 c 128,-1,33
 271 456 271 456 273 436 c 0,34,35
 274 427 274 427 278 415 c 128,-1,36
 282 403 282 403 292 408 c 0,37,38
 314 419 314 419 334 435 c 128,-1,39
 354 451 354 451 375 465.5 c 128,-1,40
 396 480 396 480 419 490 c 128,-1,41
 442 500 442 500 469 500 c 0,42,43
 493 500 493 500 514.5 492 c 128,-1,44
 536 484 536 484 552.5 469.5 c 128,-1,45
 569 455 569 455 579 434.5 c 128,-1,46
 589 414 589 414 589 389 c 0,47,48
 589 374 589 374 582 360.5 c 128,-1,49
 575 347 575 347 564 337.5 c 128,-1,50
 553 328 553 328 539 322 c 128,-1,51
 525 316 525 316 510 316 c 0,52,53
 485 316 485 316 467 333 c 128,-1,54
 449 350 449 350 449 375 c 0,55,56
 449 384 449 384 451 392.5 c 128,-1,57
 453 401 453 401 453 410 c 0,58,59
 453 418 453 418 448.5 420.5 c 128,-1,60
 444 423 444 423 430 423 c 0,61,62
 424 423 424 423 416.5 418.5 c 128,-1,63
 409 414 409 414 401 407.5 c 128,-1,64
 393 401 393 401 386 394 c 128,-1,65
 379 387 379 387 374 383 c 0,66,67
 368 377 368 377 351 362.5 c 128,-1,68
 334 348 334 348 316 328 c 128,-1,69
 298 308 298 308 284 283 c 128,-1,70
 270 258 270 258 270 232 c 2,71,-1
 270 137 l 2,72,73
 270 112 270 112 277 100 c 128,-1,74
 284 88 284 88 296 83.5 c 128,-1,75
 308 79 308 79 324 79.5 c 128,-1,76
 340 80 340 80 358 80 c 0,77,78
 377 80 377 80 391.5 71.5 c 128,-1,79
 406 63 406 63 406 42 c 0,80,81
 406 26 406 26 390.5 13 c 128,-1,82
 375 0 375 0 360 0 c 2,83,-1
 119 0 l 2,84,85
 101 0 101 0 84.5 6.5 c 128,-1,86
 68 13 68 13 68 36 c 0,0,1
EndSplineSet
Validated: 1
EndChar

StartChar: s
Encoding: 115 115 65
Width: 650
Flags: W
HStem: -1 69<245.375 440.44> 339 152<438.18 502.312> 431 69<235.548 400.197> 431 55<235.75 317.782 319.654 400.197>
VStem: 122 81<313.895 399.445> 462 80<89.5743 184.995>
LayerCount: 2
Fore
SplineSet
122 356 m 0,0,1
 122 394 122 394 138 421 c 128,-1,2
 154 448 154 448 181.5 465.5 c 128,-1,3
 209 483 209 483 244.5 491.5 c 128,-1,4
 280 500 280 500 319 500 c 0,5,6
 340 500 340 500 353.5 498 c 128,-1,7
 367 496 367 496 377 493 c 128,-1,8
 387 490 387 490 397 488 c 128,-1,9
 407 486 407 486 420 486 c 0,10,11
 435 486 435 486 446.5 488.5 c 128,-1,12
 458 491 458 491 473 491 c 0,13,14
 484 491 484 491 492.5 482.5 c 128,-1,15
 501 474 501 474 507 461.5 c 128,-1,16
 513 449 513 449 516.5 436 c 128,-1,17
 520 423 520 423 520 414 c 0,18,19
 520 404 520 404 516.5 390.5 c 128,-1,20
 513 377 513 377 506 366 c 128,-1,21
 499 355 499 355 489 347 c 128,-1,22
 479 339 479 339 466 339 c 0,23,24
 454 339 454 339 448 346 c 128,-1,25
 442 353 442 353 437 363 c 128,-1,26
 432 373 432 373 425 385 c 128,-1,27
 418 397 418 397 403.5 407 c 128,-1,28
 389 417 389 417 363.5 424 c 128,-1,29
 338 431 338 431 296 431 c 0,30,31
 281 431 281 431 264.5 425 c 128,-1,32
 248 419 248 419 234.5 408.5 c 128,-1,33
 221 398 221 398 212 383.5 c 128,-1,34
 203 369 203 369 203 352 c 0,35,36
 203 325 203 325 228 312 c 128,-1,37
 253 299 253 299 291 292 c 128,-1,38
 329 285 329 285 372.5 278.5 c 128,-1,39
 416 272 416 272 454 258 c 128,-1,40
 492 244 492 244 517 216.5 c 128,-1,41
 542 189 542 189 542 140 c 0,42,43
 542 100 542 100 523 72.5 c 128,-1,44
 504 45 504 45 474.5 29 c 128,-1,45
 445 13 445 13 409.5 6 c 128,-1,46
 374 -1 374 -1 340 -1 c 0,47,48
 315 -1 315 -1 296 3 c 128,-1,49
 277 7 277 7 261 12.5 c 128,-1,50
 245 18 245 18 230.5 22 c 128,-1,51
 216 26 216 26 199 26 c 0,52,53
 194 26 194 26 189.5 22 c 128,-1,54
 185 18 185 18 179.5 13.5 c 128,-1,55
 174 9 174 9 167.5 5 c 128,-1,56
 161 1 161 1 153 1 c 0,57,58
 138 1 138 1 129 8.5 c 128,-1,59
 120 16 120 16 116 27.5 c 128,-1,60
 112 39 112 39 111 52 c 128,-1,61
 110 65 110 65 110 77 c 0,62,63
 110 91 110 91 110 109.5 c 128,-1,64
 110 128 110 128 114 144.5 c 128,-1,65
 118 161 118 161 128.5 172.5 c 128,-1,66
 139 184 139 184 159 184 c 0,67,68
 170 184 170 184 177 175.5 c 128,-1,69
 184 167 184 167 191.5 154 c 128,-1,70
 199 141 199 141 208.5 126 c 128,-1,71
 218 111 218 111 234 98 c 128,-1,72
 250 85 250 85 274 76.5 c 128,-1,73
 298 68 298 68 334 68 c 0,74,75
 353 68 353 68 375.5 69 c 128,-1,76
 398 70 398 70 417 76.5 c 128,-1,77
 436 83 436 83 449 97.5 c 128,-1,78
 462 112 462 112 462 140 c 0,79,80
 462 173 462 173 437 187 c 128,-1,81
 412 201 412 201 374 208 c 128,-1,82
 336 215 336 215 292 219.5 c 128,-1,83
 248 224 248 224 210 237.5 c 128,-1,84
 172 251 172 251 147 277.5 c 128,-1,85
 122 304 122 304 122 356 c 0,0,1
EndSplineSet
Validated: 8388609
EndChar

StartChar: t
Encoding: 116 116 66
Width: 650
Flags: W
HStem: 0 81<347.359 460.924> 431 63.5<76 227.75 321.281 514.982>
VStem: 227 78<132.61 429.687> 228 95<501 671.883> 228 85<257.437 430 604.555 674.982> 498 81<118.719 210.857>
LayerCount: 2
Fore
SplineSet
121 430 m 2,0,1
 73 430 73 430 73 460 c 0,2,3
 73 483 73 483 103 491.5 c 128,-1,4
 133 500 133 500 212 500 c 2,5,-1
 228 500 l 1,6,-1
 229 633 l 2,7,8
 229 659 229 659 244 675.5 c 128,-1,9
 259 692 259 692 282 692 c 256,10,11
 305 692 305 692 314.5 672.5 c 128,-1,12
 324 653 324 653 324 603 c 0,13,14
 324 579 324 579 323 554 c 128,-1,15
 322 529 322 529 320 501 c 1,16,-1
 402 501 l 2,17,18
 441 501 441 501 466 499.5 c 128,-1,19
 491 498 491 498 505.5 494.5 c 128,-1,20
 520 491 520 491 526 484.5 c 128,-1,21
 532 478 532 478 532 469 c 0,22,23
 532 452 532 452 515.5 441.5 c 128,-1,24
 499 431 499 431 473 431 c 2,25,-1
 313 431 l 1,26,27
 310 389 310 389 307.5 345.5 c 128,-1,28
 305 302 305 302 305 256 c 0,29,30
 305 172 305 172 330 126.5 c 128,-1,31
 355 81 355 81 400 81 c 0,32,33
 442 81 442 81 470 111 c 128,-1,34
 498 141 498 141 498 185 c 0,35,36
 498 232 498 232 532 232 c 0,37,38
 553 232 553 232 566 211.5 c 128,-1,39
 579 191 579 191 579 159 c 256,40,41
 579 127 579 127 564.5 98 c 128,-1,42
 550 69 550 69 526 47.5 c 128,-1,43
 502 26 502 26 470 13 c 128,-1,44
 438 0 438 0 403 0 c 0,45,46
 367 0 367 0 335 14 c 128,-1,47
 303 28 303 28 279 51.5 c 128,-1,48
 255 75 255 75 241 107 c 128,-1,49
 227 139 227 139 227 175 c 2,50,-1
 228 430 l 1,51,-1
 121 430 l 2,0,1
EndSplineSet
Validated: 8388609
EndChar

StartChar: u
Encoding: 117 117 67
Width: 650
Flags: W
HStem: 1 90<242.544 333.043 528.389 601.309> 418 82<53.149 134.479 353.313 439.071>
VStem: 138 76<124.617 415.876> 441 77<175.221 416.762>
LayerCount: 2
Fore
SplineSet
256 1 m 0,0,1
 230 1 230 1 208 14 c 128,-1,2
 186 27 186 27 170.5 50 c 128,-1,3
 155 73 155 73 146.5 105 c 128,-1,4
 138 137 138 137 138 176 c 0,5,6
 138 184 138 184 138.5 202 c 128,-1,7
 139 220 139 220 139 241.5 c 128,-1,8
 139 263 139 263 139.5 286 c 128,-1,9
 140 309 140 309 140 326 c 0,10,11
 140 356 140 356 138.5 374 c 128,-1,12
 137 392 137 392 132.5 401.5 c 128,-1,13
 128 411 128 411 120.5 414.5 c 128,-1,14
 113 418 113 418 100 418 c 0,15,16
 69 418 69 418 50.5 430.5 c 128,-1,17
 32 443 32 443 32 465 c 0,18,19
 32 485 32 485 52.5 492.5 c 128,-1,20
 73 500 73 500 128 500 c 0,21,22
 144 500 144 500 159.5 498.5 c 128,-1,23
 175 497 175 497 187.5 486.5 c 128,-1,24
 200 476 200 476 207.5 452.5 c 128,-1,25
 215 429 215 429 215 384 c 0,26,27
 215 377 215 377 215 364.5 c 128,-1,28
 215 352 215 352 214.5 337 c 128,-1,29
 214 322 214 322 214 307.5 c 128,-1,30
 214 293 214 293 214 282 c 0,31,32
 214 182 214 182 230.5 136.5 c 128,-1,33
 247 91 247 91 282 91 c 0,34,35
 303 91 303 91 330.5 105 c 128,-1,36
 358 119 358 119 382.5 139 c 128,-1,37
 407 159 407 159 424 181.5 c 128,-1,38
 441 204 441 204 441 222 c 2,39,-1
 441 388 l 2,40,41
 441 418 441 418 407 418 c 0,42,43
 381 418 381 418 362 432 c 128,-1,44
 343 446 343 446 343 466 c 0,45,46
 343 481 343 481 353 488 c 128,-1,47
 363 495 363 495 377 497.5 c 128,-1,48
 391 500 391 500 407 500 c 128,-1,49
 423 500 423 500 435 500 c 0,50,51
 479 500 479 500 498.5 486.5 c 128,-1,52
 518 473 518 473 518 444 c 2,53,-1
 518 150 l 2,54,55
 518 127 518 127 526 115.5 c 128,-1,56
 534 104 534 104 545.5 99 c 128,-1,57
 557 94 557 94 571 92.5 c 128,-1,58
 585 91 585 91 596.5 88 c 128,-1,59
 608 85 608 85 616 78.5 c 128,-1,60
 624 72 624 72 624 56 c 0,61,62
 624 30 624 30 602 15 c 128,-1,63
 580 0 580 0 542 0 c 0,64,65
 505 0 505 0 475.5 14.5 c 128,-1,66
 446 29 446 29 434 56 c 0,67,68
 432 61 432 61 430.5 64 c 128,-1,69
 429 67 429 67 424 67 c 0,70,71
 415 67 415 67 397 56.5 c 128,-1,72
 379 46 379 46 356 34 c 128,-1,73
 333 22 333 22 307 11.5 c 128,-1,74
 281 1 281 1 256 1 c 0,0,1
EndSplineSet
Validated: 1
EndChar

StartChar: v
Encoding: 118 118 68
Width: 650
Flags: W
HStem: 0 21G<317 334.5> 480 20G<66.75 259.5 390.5 565>
LayerCount: 2
Fore
SplineSet
325 168 m 0,0,1
 328 168 328 168 336.5 183 c 128,-1,2
 345 198 345 198 356 221 c 128,-1,3
 367 244 367 244 379 272 c 128,-1,4
 391 300 391 300 401 326 c 128,-1,5
 411 352 411 352 417.5 373 c 128,-1,6
 424 394 424 394 424 403 c 0,7,8
 424 414 424 414 413 419 c 128,-1,9
 402 424 402 424 389.5 429 c 128,-1,10
 377 434 377 434 366 441.5 c 128,-1,11
 355 449 355 449 355 465 c 0,12,13
 355 500 355 500 426 500 c 2,14,-1
 561 500 l 2,15,16
 569 500 569 500 578.5 499.5 c 128,-1,17
 588 499 588 499 597 497 c 128,-1,18
 606 495 606 495 612 489.5 c 128,-1,19
 618 484 618 484 618 473 c 0,20,21
 618 457 618 457 605.5 448 c 128,-1,22
 593 439 593 439 576.5 434 c 128,-1,23
 560 429 560 429 543 425.5 c 128,-1,24
 526 422 526 422 517 415 c 0,25,26
 507 408 507 408 494.5 374 c 128,-1,27
 482 340 482 340 466.5 294 c 128,-1,28
 451 248 451 248 434.5 196.5 c 128,-1,29
 418 145 418 145 399.5 101 c 128,-1,30
 381 57 381 57 362.5 28.5 c 128,-1,31
 344 0 344 0 325 0 c 0,32,33
 309 0 309 0 292 28.5 c 128,-1,34
 275 57 275 57 258 100.5 c 128,-1,35
 241 144 241 144 224.5 195.5 c 128,-1,36
 208 247 208 247 193 293 c 128,-1,37
 178 339 178 339 165.5 372.5 c 128,-1,38
 153 406 153 406 143 414 c 256,39,40
 133 422 133 422 114.5 426 c 128,-1,41
 96 430 96 430 77.5 435 c 128,-1,42
 59 440 59 440 45.5 449 c 128,-1,43
 32 458 32 458 32 475 c 0,44,45
 32 485 32 485 38 490 c 128,-1,46
 44 495 44 495 53 497.5 c 128,-1,47
 62 500 62 500 71.5 500 c 128,-1,48
 81 500 81 500 88 500 c 2,49,-1
 224 500 l 2,50,51
 295 500 295 500 295 463 c 0,52,53
 295 448 295 448 286 440.5 c 128,-1,54
 277 433 277 433 265.5 428.5 c 128,-1,55
 254 424 254 424 245 419.5 c 128,-1,56
 236 415 236 415 236 405 c 256,57,58
 236 395 236 395 244 366 c 128,-1,59
 252 337 252 337 264 302.5 c 128,-1,60
 276 268 276 268 289.5 235 c 128,-1,61
 303 202 303 202 313 184 c 0,62,63
 317 177 317 177 320 172.5 c 128,-1,64
 323 168 323 168 325 168 c 0,0,1
EndSplineSet
Validated: 1
EndChar

StartChar: w
Encoding: 119 119 69
Width: 650
Flags: W
HStem: 0 21G<233.5 241.5 423.5 431> 423.5 67.5<28.8917 79.8185 391.469 439.818> 480 20G<185.5 212.5 545.5 572.5>
LayerCount: 2
Fore
SplineSet
554 402 m 256,0,1
 551 392 551 392 545 369 c 128,-1,2
 539 346 539 346 531.5 317 c 128,-1,3
 524 288 524 288 516 255.5 c 128,-1,4
 508 223 508 223 500.5 192.5 c 128,-1,5
 493 162 493 162 487 137 c 128,-1,6
 481 112 481 112 478 98 c 0,7,8
 472 80 472 80 466 62.5 c 128,-1,9
 460 45 460 45 453 31 c 128,-1,10
 446 17 446 17 440 8.5 c 128,-1,11
 434 0 434 0 428 0 c 0,12,13
 419 0 419 0 410.5 14 c 128,-1,14
 402 28 402 28 394 49 c 128,-1,15
 386 70 386 70 379 94 c 128,-1,16
 372 118 372 118 365 139 c 128,-1,17
 358 160 358 160 351.5 174 c 128,-1,18
 345 188 345 188 338 188 c 0,19,20
 332 188 332 188 324.5 174 c 128,-1,21
 317 160 317 160 309 139 c 128,-1,22
 301 118 301 118 292 94 c 128,-1,23
 283 70 283 70 273.5 49 c 128,-1,24
 264 28 264 28 255 14 c 128,-1,25
 246 0 246 0 237 0 c 0,26,27
 230 0 230 0 223.5 10 c 128,-1,28
 217 20 217 20 211.5 34.5 c 128,-1,29
 206 49 206 49 201.5 66 c 128,-1,30
 197 83 197 83 194 97 c 0,31,32
 191 112 191 112 185 137 c 128,-1,33
 179 162 179 162 172 192.5 c 128,-1,34
 165 223 165 223 157.5 255 c 128,-1,35
 150 287 150 287 143 315.5 c 128,-1,36
 136 344 136 344 129.5 366 c 128,-1,37
 123 388 123 388 118 398 c 0,38,39
 109 416 109 416 92 419 c 128,-1,40
 75 422 75 422 58 423.5 c 128,-1,41
 41 425 41 425 28.5 432 c 128,-1,42
 16 439 16 439 16 464 c 0,43,44
 16 484 16 484 29.5 491 c 128,-1,45
 43 498 43 498 81 498 c 0,46,47
 91 498 91 498 106 498.5 c 128,-1,48
 121 499 121 499 136.5 499 c 128,-1,49
 152 499 152 499 166.5 499.5 c 128,-1,50
 181 500 181 500 190 500 c 0,51,52
 235 500 235 500 254.5 490.5 c 128,-1,53
 274 481 274 481 274 461 c 0,54,55
 274 443 274 443 261.5 435.5 c 128,-1,56
 249 428 249 428 234 424 c 128,-1,57
 219 420 219 420 206.5 416 c 128,-1,58
 194 412 194 412 194 402 c 0,59,60
 195 395 195 395 198.5 375.5 c 128,-1,61
 202 356 202 356 208 331 c 128,-1,62
 214 306 214 306 221 279 c 128,-1,63
 228 252 228 252 234 229.5 c 128,-1,64
 240 207 240 207 244.5 192.5 c 128,-1,65
 249 178 249 178 250 178 c 0,66,67
 256 178 256 178 265.5 201.5 c 128,-1,68
 275 225 275 225 287 253.5 c 128,-1,69
 299 282 299 282 313 305.5 c 128,-1,70
 327 329 327 329 341 329 c 256,71,72
 355 329 355 329 367.5 305.5 c 128,-1,73
 380 282 380 282 390 253.5 c 128,-1,74
 400 225 400 225 408 201.5 c 128,-1,75
 416 178 416 178 422 178 c 0,76,77
 427 178 427 178 433.5 193.5 c 128,-1,78
 440 209 440 209 446.5 232.5 c 128,-1,79
 453 256 453 256 459 283.5 c 128,-1,80
 465 311 465 311 469.5 335.5 c 128,-1,81
 474 360 474 360 476.5 377.5 c 128,-1,82
 479 395 479 395 478 398 c 0,83,84
 475 417 475 417 458.5 420.5 c 128,-1,85
 442 424 442 424 424 425 c 128,-1,86
 406 426 406 426 391 432.5 c 128,-1,87
 376 439 376 439 376 464 c 0,88,89
 376 484 376 484 389.5 491 c 128,-1,90
 403 498 403 498 441 498 c 0,91,92
 451 498 451 498 466 498.5 c 128,-1,93
 481 499 481 499 496.5 499 c 128,-1,94
 512 499 512 499 526.5 499.5 c 128,-1,95
 541 500 541 500 550 500 c 0,96,97
 595 500 595 500 614.5 490.5 c 128,-1,98
 634 481 634 481 634 461 c 0,99,100
 634 443 634 443 622.5 435 c 128,-1,101
 611 427 611 427 597 423 c 128,-1,102
 583 419 583 419 570 415.5 c 128,-1,103
 557 412 557 412 554 402 c 256,0,1
EndSplineSet
Validated: 8388609
EndChar

StartChar: x
Encoding: 120 120 70
Width: 650
Flags: W
HStem: -1 85<69.6316 167.968 474.869 600.291> 414 85<59.7086 165.75 476.812 590.368>
VStem: 276 108<215.094 292.378>
LayerCount: 2
Fore
SplineSet
384 259 m 0,0,1
 384 245 384 245 391 234.5 c 128,-1,2
 398 224 398 224 406 215 c 0,3,4
 415 205 415 205 426.5 185.5 c 128,-1,5
 438 166 438 166 449.5 145.5 c 128,-1,6
 461 125 461 125 473 108.5 c 128,-1,7
 485 92 485 92 496 87 c 0,8,9
 502 84 502 84 510.5 84 c 128,-1,10
 519 84 519 84 531 84 c 256,11,12
 543 84 543 84 557 84 c 128,-1,13
 571 84 571 84 583 81 c 128,-1,14
 595 78 595 78 603 70.5 c 128,-1,15
 611 63 611 63 611 48 c 0,16,17
 611 28 611 28 596.5 17.5 c 128,-1,18
 582 7 582 7 561.5 3 c 128,-1,19
 541 -1 541 -1 519 -1 c 128,-1,20
 497 -1 497 -1 483 -1 c 0,21,22
 477 -1 477 -1 458.5 -0.5 c 128,-1,23
 440 0 440 0 421 4 c 128,-1,24
 402 8 402 8 387 17 c 128,-1,25
 372 26 372 26 372 42 c 0,26,27
 372 51 372 51 376 56 c 128,-1,28
 380 61 380 61 384.5 65 c 128,-1,29
 389 69 389 69 393 73.5 c 128,-1,30
 397 78 397 78 397 84 c 0,31,32
 397 93 397 93 388.5 110 c 128,-1,33
 380 127 380 127 369 144 c 128,-1,34
 358 161 358 161 347 173.5 c 128,-1,35
 336 186 336 186 330 186 c 256,36,37
 324 186 324 186 313 173.5 c 128,-1,38
 302 161 302 161 291 144 c 128,-1,39
 280 127 280 127 271.5 110 c 128,-1,40
 263 93 263 93 263 84 c 0,41,42
 263 78 263 78 267 73.5 c 128,-1,43
 271 69 271 69 275.5 65 c 128,-1,44
 280 61 280 61 284 56 c 128,-1,45
 288 51 288 51 288 42 c 0,46,47
 288 26 288 26 273 17 c 128,-1,48
 258 8 258 8 239 4 c 128,-1,49
 220 0 220 0 201.5 -0.5 c 128,-1,50
 183 -1 183 -1 177 -1 c 0,51,52
 163 -1 163 -1 141 -1 c 128,-1,53
 119 -1 119 -1 98.5 3 c 128,-1,54
 78 7 78 7 63.5 17 c 128,-1,55
 49 27 49 27 49 46 c 0,56,57
 49 66 49 66 69 75 c 128,-1,58
 89 84 89 84 136 84 c 0,59,60
 148 84 148 84 154.5 83.5 c 128,-1,61
 161 83 161 83 164 83 c 128,-1,62
 167 83 167 83 168 84 c 128,-1,63
 169 85 169 85 171 88 c 0,64,65
 188 111 188 111 199.5 130 c 128,-1,66
 211 149 211 149 220 164 c 128,-1,67
 229 179 229 179 236 191 c 128,-1,68
 243 203 243 203 252 212 c 0,69,70
 262 223 262 223 269 234 c 128,-1,71
 276 245 276 245 276 259 c 0,72,73
 276 268 276 268 272.5 271 c 128,-1,74
 269 274 269 274 261 284 c 0,75,76
 251 296 251 296 237.5 316 c 128,-1,77
 224 336 224 336 210.5 356 c 128,-1,78
 197 376 197 376 185.5 391.5 c 128,-1,79
 174 407 174 407 166 411 c 0,80,81
 158 414 158 414 149.5 414 c 128,-1,82
 141 414 141 414 129 414 c 256,83,84
 117 414 117 414 103 414 c 128,-1,85
 89 414 89 414 77 417 c 128,-1,86
 65 420 65 420 57 427.5 c 128,-1,87
 49 435 49 435 49 450 c 0,88,89
 49 470 49 470 63.5 480.5 c 128,-1,90
 78 491 78 491 98.5 495 c 128,-1,91
 119 499 119 499 141 499 c 128,-1,92
 163 499 163 499 177 499 c 0,93,94
 183 499 183 499 201.5 498.5 c 128,-1,95
 220 498 220 498 239 494 c 128,-1,96
 258 490 258 490 273 481.5 c 128,-1,97
 288 473 288 473 288 456 c 0,98,99
 288 447 288 447 284 442 c 128,-1,100
 280 437 280 437 275.5 433 c 128,-1,101
 271 429 271 429 267 425 c 128,-1,102
 263 421 263 421 263 415 c 0,103,104
 263 406 263 406 271 390.5 c 128,-1,105
 279 375 279 375 290 360 c 128,-1,106
 301 345 301 345 312.5 333.5 c 128,-1,107
 324 322 324 322 330 322 c 256,108,109
 336 322 336 322 347.5 333.5 c 128,-1,110
 359 345 359 345 370 360 c 128,-1,111
 381 375 381 375 389 390.5 c 128,-1,112
 397 406 397 406 397 415 c 0,113,114
 397 421 397 421 393 425 c 128,-1,115
 389 429 389 429 384.5 433 c 128,-1,116
 380 437 380 437 376 442 c 128,-1,117
 372 447 372 447 372 456 c 0,118,119
 372 473 372 473 387 481.5 c 128,-1,120
 402 490 402 490 421 494 c 128,-1,121
 440 498 440 498 458.5 498.5 c 128,-1,122
 477 499 477 499 483 499 c 0,123,124
 497 499 497 499 519 499 c 128,-1,125
 541 499 541 499 561.5 495 c 128,-1,126
 582 491 582 491 596.5 481.5 c 128,-1,127
 611 472 611 472 611 452 c 256,128,129
 611 432 611 432 591 423 c 128,-1,130
 571 414 571 414 524 414 c 0,131,132
 512 414 512 414 506 414 c 128,-1,133
 500 414 500 414 496 413.5 c 128,-1,134
 492 413 492 413 490 410 c 128,-1,135
 488 407 488 407 483 401 c 0,136,137
 454 363 454 363 438 338 c 128,-1,138
 422 313 422 313 404 291 c 0,139,140
 393 277 393 277 388.5 273 c 128,-1,141
 384 269 384 269 384 259 c 0,0,1
EndSplineSet
Validated: 1
EndChar

StartChar: y
Encoding: 121 121 71
Width: 650
Flags: W
HStem: -190 72<179.158 238.577> 427 73<49.6287 152.402 544.505 608.371>
VStem: 47 131<-115.622 -41.2745>
LayerCount: 2
Fore
SplineSet
629 453 m 0,0,1
 629 438 629 438 620.5 432.5 c 128,-1,2
 612 427 612 427 598.5 423.5 c 128,-1,3
 585 420 585 420 567 415 c 128,-1,4
 549 410 549 410 529.5 395 c 128,-1,5
 510 380 510 380 490.5 350.5 c 128,-1,6
 471 321 471 321 454 270 c 0,7,8
 451 261 451 261 445 243.5 c 128,-1,9
 439 226 439 226 431.5 204.5 c 128,-1,10
 424 183 424 183 415.5 159 c 128,-1,11
 407 135 407 135 399.5 113.5 c 128,-1,12
 392 92 392 92 385.5 74 c 128,-1,13
 379 56 379 56 376 47 c 0,14,15
 334 -77 334 -77 287 -133.5 c 128,-1,16
 240 -190 240 -190 180 -190 c 0,17,18
 153 -190 153 -190 129 -180.5 c 128,-1,19
 105 -171 105 -171 86.5 -154.5 c 128,-1,20
 68 -138 68 -138 57.5 -116 c 128,-1,21
 47 -94 47 -94 47 -70 c 0,22,23
 47 -37 47 -37 64.5 -17.5 c 128,-1,24
 82 2 82 2 111 2 c 0,25,26
 142 2 142 2 164.5 -17.5 c 128,-1,27
 187 -37 187 -37 187 -64 c 0,28,29
 187 -78 187 -78 182.5 -87 c 128,-1,30
 178 -96 178 -96 178 -104 c 0,31,32
 178 -110 178 -110 183 -114 c 128,-1,33
 188 -118 188 -118 196 -118 c 0,34,35
 202 -118 202 -118 211 -114 c 128,-1,36
 220 -110 220 -110 228.5 -104 c 128,-1,37
 237 -98 237 -98 244.5 -91 c 128,-1,38
 252 -84 252 -84 255 -77 c 0,39,40
 258 -71 258 -71 265 -51 c 128,-1,41
 272 -31 272 -31 278.5 -8.5 c 128,-1,42
 285 14 285 14 290 33.5 c 128,-1,43
 295 53 295 53 295 57 c 0,44,45
 295 63 295 63 287 86 c 128,-1,46
 279 109 279 109 266.5 140 c 128,-1,47
 254 171 254 171 239 207 c 128,-1,48
 224 243 224 243 210.5 275.5 c 128,-1,49
 197 308 197 308 186.5 334 c 128,-1,50
 176 360 176 360 172 371 c 0,51,52
 163 396 163 396 150 407.5 c 128,-1,53
 137 419 137 419 122 423.5 c 128,-1,54
 107 428 107 428 91.5 427.5 c 128,-1,55
 76 427 76 427 63 427 c 0,56,57
 48 427 48 427 38.5 431.5 c 128,-1,58
 29 436 29 436 29 453 c 0,59,60
 29 475 29 475 49 487.5 c 128,-1,61
 69 500 69 500 104 500 c 2,62,-1
 208 500 l 2,63,64
 271 500 271 500 271 465 c 0,65,66
 271 453 271 453 265 446 c 128,-1,67
 259 439 259 439 252 434.5 c 128,-1,68
 245 430 245 430 239 427 c 128,-1,69
 233 424 233 424 233 419 c 0,70,71
 233 416 233 416 238.5 397.5 c 128,-1,72
 244 379 244 379 253 353 c 128,-1,73
 262 327 262 327 273 297 c 128,-1,74
 284 267 284 267 294 240.5 c 128,-1,75
 304 214 304 214 312.5 194 c 128,-1,76
 321 174 321 174 325 168 c 256,77,78
 329 162 329 162 332 162 c 0,79,80
 336 162 336 162 344.5 176.5 c 128,-1,81
 353 191 353 191 363 214.5 c 128,-1,82
 373 238 373 238 383.5 266 c 128,-1,83
 394 294 394 294 403 320.5 c 128,-1,84
 412 347 412 347 417.5 369.5 c 128,-1,85
 423 392 423 392 423 403 c 256,86,87
 423 414 423 414 417.5 420 c 128,-1,88
 412 426 412 426 405 432 c 128,-1,89
 398 438 398 438 392.5 445 c 128,-1,90
 387 452 387 452 387 464 c 0,91,92
 387 500 387 500 450 500 c 2,93,-1
 554 500 l 2,94,95
 589 500 589 500 609 487.5 c 128,-1,96
 629 475 629 475 629 453 c 0,0,1
EndSplineSet
Validated: 1
EndChar

StartChar: z
Encoding: 122 122 72
Width: 650
Flags: W
HStem: 0.5 79.5<238.004 449.157> 420 80<209.282 384.998>
VStem: 114 81<311.537 406.83> 464 83<93.0542 199.906>
LayerCount: 2
Fore
SplineSet
238 91 m 4,0,1
 238 87 238 87 252.5 83.5 c 132,-1,2
 267 80 267 80 283 80 c 6,3,-1
 424 80 l 6,4,5
 441 80 441 80 452.5 109 c 132,-1,6
 464 138 464 138 464 178 c 4,7,8
 464 197 464 197 470.5 204.5 c 132,-1,9
 477 212 477 212 493 212 c 4,10,11
 547 212 547 212 547 126 c 4,12,13
 547 0 547 0 387 0 c 4,14,15
 381 0 381 0 359 0 c 132,-1,16
 337 0 337 0 311.5 0.5 c 132,-1,17
 286 1 286 1 261.5 1 c 132,-1,18
 237 1 237 1 225 1 c 4,19,20
 162 1 162 1 132 6.5 c 132,-1,21
 102 12 102 12 102 23 c 260,22,23
 102 34 102 34 123 63.5 c 132,-1,24
 144 93 144 93 175.5 132 c 132,-1,25
 207 171 207 171 243.5 214.5 c 132,-1,26
 280 258 280 258 311.5 296.5 c 132,-1,27
 343 335 343 335 364 364 c 132,-1,28
 385 393 385 393 385 403 c 4,29,30
 385 409 385 409 377 414.5 c 132,-1,31
 369 420 369 420 359 420 c 6,32,-1
 260 420 l 6,33,34
 195 420 195 420 195 346 c 4,35,36
 195 294 195 294 155 294 c 4,37,38
 133 294 133 294 123.5 311 c 132,-1,39
 114 328 114 328 114 367 c 6,40,-1
 114 422 l 6,41,42
 114 468 114 468 132.5 484 c 132,-1,43
 151 500 151 500 203 500 c 6,44,-1
 450 500 l 6,45,46
 477 500 477 500 493 492 c 132,-1,47
 509 484 509 484 509 470 c 4,48,49
 509 454 509 454 489 421.5 c 132,-1,50
 469 389 469 389 439 348.5 c 132,-1,51
 409 308 409 308 373.5 265 c 132,-1,52
 338 222 338 222 308 185 c 132,-1,53
 278 148 278 148 258 122 c 132,-1,54
 238 96 238 96 238 91 c 4,0,1
EndSplineSet
Validated: 1
EndChar

StartChar: B
Encoding: 66 66 73
Width: 650
Flags: W
HStem: 0 90<47.7183 159 161 162> 0 77<261.911 464.774> 331 75<262.037 444.642> 619 82<63.8602 166.153 272.051 446.309>
VStem: 173 82<92.0625 324.104 409.755 607.557> 489 82<445.893 578.509> 528 85<130.941 272.372>
LayerCount: 2
Fore
SplineSet
162 91 m 1,0,-1
 162 92 l 1,1,2
 162 92 162 92 164 96 c 0,3,4
 168 108 168 108 169.5 121.5 c 128,-1,5
 171 135 171 135 171 147 c 0,6,7
 173 170 173 170 173 189.5 c 128,-1,8
 173 209 173 209 173 216 c 0,9,10
 173 294 173 294 173.5 370 c 128,-1,11
 174 446 174 446 174 523 c 0,12,13
 174 541 174 541 172 567 c 128,-1,14
 170 593 170 593 161 609 c 0,15,16
 157 619 157 619 147 619 c 2,17,-1
 120 619 l 2,18,19
 107 618 107 618 90 621 c 0,20,21
 75 623 75 623 63.5 631.5 c 128,-1,22
 52 640 52 640 52 660 c 0,23,24
 52 673 52 673 59.5 681 c 128,-1,25
 67 689 67 689 78 693.5 c 128,-1,26
 89 698 89 698 101.5 699.5 c 128,-1,27
 114 701 114 701 124 701 c 2,28,-1
 262 701 l 2,29,30
 313 701 313 701 368 697.5 c 128,-1,31
 423 694 423 694 468 676 c 128,-1,32
 513 658 513 658 542 620.5 c 128,-1,33
 571 583 571 583 571 515 c 0,34,35
 571 491 571 491 569.5 473.5 c 128,-1,36
 568 456 568 456 562 441.5 c 128,-1,37
 556 427 556 427 543.5 414 c 128,-1,38
 531 401 531 401 510 385 c 1,39,-1
 509 385 l 2,40,41
 506 382 506 382 505 382 c 0,42,43
 503 378 l 1,44,-1
 504 377 l 2,45,46
 506 375 506 375 507 373 c 2,47,-1
 509 372 l 2,48,49
 513 370 513 370 514 369 c 0,50,51
 561 339 561 339 587 297 c 128,-1,52
 613 255 613 255 613 198 c 0,53,54
 613 161 613 161 597.5 125.5 c 128,-1,55
 582 90 582 90 555.5 62 c 128,-1,56
 529 34 529 34 493.5 17 c 128,-1,57
 458 0 458 0 418 0 c 2,58,-1
 117 0 l 2,59,60
 107 0 107 0 93.5 2 c 128,-1,61
 80 4 80 4 68 9 c 256,62,63
 56 14 56 14 46.5 23 c 128,-1,64
 37 32 37 32 37 46 c 0,65,66
 37 62 37 62 46 70.5 c 128,-1,67
 55 79 55 79 67.5 83.5 c 128,-1,68
 80 88 80 88 94.5 89 c 128,-1,69
 109 90 109 90 121 90 c 2,70,-1
 159 90 l 1,71,-1
 161 91 l 1,72,-1
 162 91 l 1,0,-1
303 406 m 0,73,74
 335 406 335 406 368 408 c 128,-1,75
 401 410 401 410 428 420 c 128,-1,76
 455 430 455 430 472 451.5 c 128,-1,77
 489 473 489 473 489 511 c 0,78,79
 489 546 489 546 475 568 c 128,-1,80
 461 590 461 590 438 602 c 128,-1,81
 415 614 415 614 385.5 618 c 128,-1,82
 356 622 356 622 324 622 c 0,83,84
 289 622 289 622 271.5 608 c 128,-1,85
 254 594 254 594 254 559 c 0,86,87
 254 526 254 526 255.5 494 c 128,-1,88
 257 462 257 462 257 430 c 0,89,90
 257 423 257 423 262 418 c 128,-1,91
 267 413 267 413 274.5 410.5 c 128,-1,92
 282 408 282 408 289.5 407 c 128,-1,93
 297 406 297 406 303 406 c 0,73,74
255 126 m 2,94,95
 255 109 255 109 261.5 99.5 c 128,-1,96
 268 90 268 90 279.5 85 c 128,-1,97
 291 80 291 80 305.5 78.5 c 128,-1,98
 320 77 320 77 335 77 c 0,99,100
 370 77 370 77 404.5 81.5 c 128,-1,101
 439 86 439 86 466.5 99.5 c 128,-1,102
 494 113 494 113 511 137.5 c 128,-1,103
 528 162 528 162 528 201 c 256,104,105
 528 240 528 240 511.5 265 c 128,-1,106
 495 290 495 290 468 304.5 c 128,-1,107
 441 319 441 319 407 325 c 128,-1,108
 373 331 373 331 338 331 c 0,109,110
 314 331 314 331 298 329.5 c 128,-1,111
 282 328 282 328 272.5 321.5 c 128,-1,112
 263 315 263 315 259 301.5 c 128,-1,113
 255 288 255 288 255 263 c 2,114,-1
 255 126 l 2,94,95
EndSplineSet
Validated: 8388609
EndChar

StartChar: C
Encoding: 67 67 74
Width: 650
Flags: W
HStem: 0 86<261.926 417.696> 612 89<262.177 408.194>
VStem: 83 93<204.36 500.379>
LayerCount: 2
Fore
SplineSet
556 207 m 0,0,1
 562 194 562 194 562 180 c 0,2,3
 562 139 562 139 541.5 105.5 c 128,-1,4
 521 72 521 72 489 48.5 c 128,-1,5
 457 25 457 25 417.5 12.5 c 128,-1,6
 378 0 378 0 340 0 c 0,7,8
 283 0 283 0 241.5 17.5 c 128,-1,9
 200 35 200 35 171.5 65 c 128,-1,10
 143 95 143 95 125.5 134.5 c 128,-1,11
 108 174 108 174 98.5 218 c 128,-1,12
 89 262 89 262 86 307.5 c 128,-1,13
 83 353 83 353 83 395 c 0,14,15
 83 445 83 445 100 499 c 128,-1,16
 117 553 117 553 149.5 598 c 128,-1,17
 182 643 182 643 229 672 c 128,-1,18
 276 701 276 701 336 701 c 0,19,20
 356 701 356 701 377 693 c 128,-1,21
 398 685 398 685 416 675 c 0,22,23
 425 670 425 670 433 666 c 128,-1,24
 441 662 441 662 449 659 c 0,25,26
 463 652 463 652 470 652 c 0,27,28
 475 652 475 652 482 659 c 2,29,-1
 485 662 l 2,30,31
 488 666 488 666 492 672 c 0,32,33
 498 680 498 680 506.5 688.5 c 128,-1,34
 515 697 515 697 530 697 c 0,35,36
 555 697 555 697 561.5 686 c 128,-1,37
 568 675 568 675 568 652 c 2,38,-1
 565 631 l 1,39,-1
 565 584 l 1,40,-1
 562 512 l 1,41,-1
 562 469 l 1,42,-1
 563 454 l 2,43,44
 563 437 563 437 558.5 424.5 c 128,-1,45
 554 412 554 412 533 412 c 0,46,47
 515 412 515 412 505 427 c 128,-1,48
 495 442 495 442 489 459 c 2,49,-1
 480 495 l 2,50,51
 478 503 478 503 476.5 509.5 c 128,-1,52
 475 516 475 516 473 521 c 0,53,54
 466 539 466 539 451.5 555 c 128,-1,55
 437 571 437 571 418 584 c 128,-1,56
 399 597 399 597 378.5 604.5 c 128,-1,57
 358 612 358 612 338 612 c 0,58,59
 289 612 289 612 257.5 587 c 128,-1,60
 226 562 226 562 208 524.5 c 128,-1,61
 190 487 190 487 183 442.5 c 128,-1,62
 176 398 176 398 176 358 c 0,63,64
 176 319 176 319 182 272 c 128,-1,65
 188 225 188 225 205.5 183.5 c 128,-1,66
 223 142 223 142 254 114 c 128,-1,67
 285 86 285 86 335 86 c 0,68,69
 352 86 352 86 370 90 c 128,-1,70
 388 94 388 94 405 101.5 c 128,-1,71
 422 109 422 109 436.5 120 c 128,-1,72
 451 131 451 131 459 144 c 0,73,74
 465 155 465 155 470 169 c 128,-1,75
 475 183 475 183 482 195 c 0,76,77
 490 207 490 207 501.5 216 c 128,-1,78
 513 225 513 225 531 225 c 0,79,80
 541 225 541 225 546.5 219.5 c 128,-1,81
 552 214 552 214 556 207 c 0,0,1
EndSplineSet
Validated: 1
EndChar

StartChar: D
Encoding: 68 68 75
Width: 650
Flags: W
HStem: 0 83<61.9916 128.655 245.77 358.154> 621 79<68.5023 384.375> 680.556 20G<145.87 161.287>
VStem: 159.5 77.5<91.7701 596.235> 523 82<235.949 461.986>
LayerCount: 2
Fore
SplineSet
122 -1 m 0,0,1
 77 -1 77 -1 61.5 9.5 c 128,-1,2
 46 20 46 20 46 40 c 0,3,4
 46 55 46 55 52 63 c 128,-1,5
 58 71 58 71 67 74.5 c 128,-1,6
 76 78 76 78 85.5 78.5 c 128,-1,7
 95 79 95 79 101 79 c 0,8,9
 118 79 118 79 129 83.5 c 128,-1,10
 140 88 140 88 147 104.5 c 128,-1,11
 154 121 154 121 157 153.5 c 128,-1,12
 160 186 160 186 160 241 c 0,13,14
 160 251 160 251 160 272 c 128,-1,15
 160 293 160 293 160 320 c 128,-1,16
 160 347 160 347 159.5 376 c 128,-1,17
 159 405 159 405 159 430.5 c 128,-1,18
 159 456 159 456 159 474 c 128,-1,19
 159 492 159 492 159 496 c 0,20,21
 159 543 159 543 151 568 c 128,-1,22
 143 593 143 593 131 604 c 128,-1,23
 119 615 119 615 105.5 617 c 128,-1,24
 92 619 92 619 80 620.5 c 128,-1,25
 68 622 68 622 60 627.5 c 128,-1,26
 52 633 52 633 52 651 c 0,27,28
 52 672 52 672 68 682.5 c 128,-1,29
 84 693 84 693 109.5 697 c 0,30,31
 132.166666667 700.555555556 132.166666667 700.555555556 159.574074074 700.555555556 c 0,32,33
 163 700.555555556 163 700.555555556 166.5 700.5 c 0,34,35
 198 700 198 700 230 700 c 0,36,37
 292 700 292 700 339.5 693.5 c 128,-1,38
 387 687 387 687 424 670.5 c 128,-1,39
 461 654 461 654 490.5 625.5 c 128,-1,40
 520 597 520 597 545 554 c 0,41,42
 577 500 577 500 591 447.5 c 128,-1,43
 605 395 605 395 605 344 c 0,44,45
 605 269 605 269 576.5 205.5 c 128,-1,46
 548 142 548 142 496 96.5 c 128,-1,47
 444 51 444 51 370 25.5 c 128,-1,48
 296 0 296 0 206 0 c 0,49,50
 199 0 199 0 187 0 c 128,-1,51
 175 0 175 0 162.5 -0.5 c 128,-1,52
 150 -1 150 -1 139 -1 c 128,-1,53
 128 -1 128 -1 122 -1 c 0,0,1
296 621 m 0,54,55
 237 621 237 621 237 585 c 2,56,-1
 237 127 l 2,57,58
 237 100 237 100 245.5 91.5 c 128,-1,59
 254 83 254 83 281 83 c 0,60,61
 332 83 332 83 376.5 103.5 c 128,-1,62
 421 124 421 124 453.5 159.5 c 128,-1,63
 486 195 486 195 504.5 243.5 c 128,-1,64
 523 292 523 292 523 348 c 0,65,66
 523 403 523 403 505 452.5 c 128,-1,67
 487 502 487 502 456.5 539.5 c 128,-1,68
 426 577 426 577 384.5 599 c 128,-1,69
 343 621 343 621 296 621 c 0,54,55
EndSplineSet
Validated: 8912897
EndChar

StartChar: E
Encoding: 69 69 76
Width: 650
Flags: W
HStem: 0 71<43.8828 153.729 262.523 510.09> 326 77<252.35 353.138> 627 72<48.3484 154.327 258.89 505.645>
VStem: 159 81<93.5508 315.524 422.597 607.784> 532 78<92.8752 233.688 449.805 600.921>
LayerCount: 2
Fore
SplineSet
60 68 m 0,0,1
 70 71 70 71 81.5 72 c 128,-1,2
 93 73 93 73 103 73 c 0,3,4
 123 73 123 73 135 76.5 c 128,-1,5
 147 80 147 80 152 90 c 0,6,7
 158 99 158 99 158 113 c 0,8,9
 159 119 159 119 159 126.5 c 128,-1,10
 159 134 159 134 159 143 c 2,11,-1
 160 583 l 2,12,13
 160 602 160 602 154.5 611.5 c 128,-1,14
 149 621 149 621 138 625 c 0,15,16
 133 627 133 627 127.5 627 c 128,-1,17
 122 627 122 627 116 627 c 2,18,-1
 109 627 l 1,19,-1
 97 626 l 1,20,-1
 90 626 l 2,21,22
 82 626 82 626 73 627 c 128,-1,23
 64 628 64 628 56.5 631 c 128,-1,24
 49 634 49 634 44 640 c 128,-1,25
 39 646 39 646 39 656 c 0,26,27
 39 670 39 670 50 678.5 c 128,-1,28
 61 687 61 687 76 691.5 c 128,-1,29
 91 696 91 696 107 697.5 c 128,-1,30
 123 699 123 699 133 699 c 2,31,-1
 375 699 l 1,32,-1
 454 698 l 1,33,-1
 494 698 l 2,34,35
 505 698 505 698 521 697.5 c 128,-1,36
 537 697 537 697 553 695 c 0,37,38
 587 690 587 690 598.5 675.5 c 128,-1,39
 610 661 610 661 610 629 c 2,40,-1
 610 498 l 2,41,42
 610 491 610 491 609.5 481 c 128,-1,43
 609 471 609 471 606 462 c 128,-1,44
 603 453 603 453 597.5 447 c 128,-1,45
 592 441 592 441 581 441 c 0,46,47
 564 441 564 441 550.5 452.5 c 128,-1,48
 537 464 537 464 537 481 c 0,49,50
 537 520 537 520 533 548 c 128,-1,51
 529 576 529 576 516 594 c 128,-1,52
 503 612 503 612 478 620.5 c 128,-1,53
 453 629 453 629 411 629 c 0,54,55
 390 629 390 629 369.5 628.5 c 128,-1,56
 349 628 349 628 329 628 c 0,57,58
 286 628 286 628 263 609 c 128,-1,59
 240 590 240 590 240 542 c 0,60,61
 240 525 240 525 240.5 508 c 128,-1,62
 241 491 241 491 241 473 c 0,63,64
 241 441 241 441 252 422 c 128,-1,65
 263 403 263 403 300 403 c 2,66,-1
 319 403 l 2,67,68
 342 403 342 403 353.5 416 c 128,-1,69
 365 429 365 429 367 449 c 0,70,71
 369 460 369 460 371 472 c 128,-1,72
 373 484 373 484 378 495 c 0,73,74
 383 505 383 505 390 511 c 128,-1,75
 397 517 397 517 411 517 c 0,76,77
 428 517 428 517 433 503.5 c 128,-1,78
 438 490 438 490 438 471 c 2,79,-1
 438 258 l 2,80,81
 438 240 438 240 433 226.5 c 128,-1,82
 428 213 428 213 411 213 c 0,83,84
 397 213 397 213 390 219 c 128,-1,85
 383 225 383 225 378 235 c 256,86,87
 373 245 373 245 371 257.5 c 128,-1,88
 369 270 369 270 367 281 c 0,89,90
 365 301 365 301 353.5 313.5 c 128,-1,91
 342 326 342 326 319 326 c 2,92,-1
 301 326 l 2,93,94
 281 326 281 326 269 320 c 128,-1,95
 257 314 257 314 251 303 c 128,-1,96
 245 292 245 292 243 278 c 128,-1,97
 241 264 241 264 241 247 c 0,98,99
 241 227 241 227 240.5 206.5 c 128,-1,100
 240 186 240 186 240 165 c 0,101,102
 240 112 240 112 264 91.5 c 128,-1,103
 288 71 288 71 336 71 c 0,104,105
 356 71 356 71 376.5 71.5 c 128,-1,106
 397 72 397 72 418 72 c 0,107,108
 444 72 444 72 465 74.5 c 128,-1,109
 486 77 486 77 501 86 c 128,-1,110
 516 95 516 95 524 113 c 128,-1,111
 532 131 532 131 532 162 c 2,112,-1
 532 191 l 2,113,114
 532 200 532 200 532.5 209.5 c 128,-1,115
 533 219 533 219 537 227 c 0,116,117
 540 235 540 235 546 239.5 c 128,-1,118
 552 244 552 244 563 244 c 0,119,120
 581 244 581 244 590.5 231 c 128,-1,121
 600 218 600 218 604.5 200 c 128,-1,122
 609 182 609 182 610 163 c 128,-1,123
 611 144 611 144 611 132 c 2,124,-1
 611 119 l 1,125,-1
 610 92 l 2,126,127
 610 72 610 72 608 55 c 128,-1,128
 606 38 606 38 598.5 26 c 128,-1,129
 591 14 591 14 577 7 c 128,-1,130
 563 0 563 0 539 0 c 2,131,-1
 435 0 l 1,132,-1
 227 -1 l 1,133,-1
 123 -1 l 2,134,135
 111 -1 111 -1 96 0 c 128,-1,136
 81 1 81 1 68 5 c 0,137,138
 55 10 55 10 47 18 c 128,-1,139
 39 26 39 26 39 40 c 0,140,141
 39 51 39 51 45 57.5 c 128,-1,142
 51 64 51 64 60 68 c 0,0,1
EndSplineSet
Validated: 1
EndChar

StartChar: F
Encoding: 70 70 77
Width: 650
Flags: W
HStem: 0 72<44.8828 155.19 257.068 370.117> 326 77<253.35 354.138> 627 72<49.3484 155.327 259.89 506.645>
VStem: 160 81<87.9543 315.524 422.597 607.784> 538 73<447.188 595.116>
LayerCount: 2
Fore
SplineSet
124 -1 m 2,0,1
 112 -1 112 -1 97 0 c 128,-1,2
 82 1 82 1 69 5 c 0,3,4
 56 10 56 10 48 18 c 128,-1,5
 40 26 40 26 40 40 c 0,6,7
 40 51 40 51 46 57.5 c 128,-1,8
 52 64 52 64 61 68 c 0,9,10
 71 71 71 71 82.5 72 c 128,-1,11
 94 73 94 73 104 73 c 0,12,13
 124 73 124 73 136 76.5 c 128,-1,14
 148 80 148 80 153 90 c 0,15,16
 159 99 159 99 159 113 c 0,17,18
 160 119 160 119 160 126.5 c 128,-1,19
 160 134 160 134 160 143 c 2,20,-1
 161 583 l 2,21,22
 161 602 161 602 155.5 611.5 c 128,-1,23
 150 621 150 621 139 625 c 0,24,25
 134 627 134 627 128.5 627 c 128,-1,26
 123 627 123 627 117 627 c 2,27,-1
 110 627 l 1,28,-1
 98 626 l 1,29,-1
 91 626 l 2,30,31
 83 626 83 626 74 627 c 128,-1,32
 65 628 65 628 57.5 631 c 128,-1,33
 50 634 50 634 45 640 c 128,-1,34
 40 646 40 646 40 656 c 0,35,36
 40 670 40 670 51 678.5 c 128,-1,37
 62 687 62 687 77 691.5 c 128,-1,38
 92 696 92 696 108 697.5 c 128,-1,39
 124 699 124 699 134 699 c 2,40,-1
 376 699 l 1,41,-1
 455 698 l 1,42,-1
 495 698 l 2,43,44
 506 698 506 698 522 697.5 c 128,-1,45
 538 697 538 697 554 695 c 0,46,47
 588 690 588 690 599.5 675.5 c 128,-1,48
 611 661 611 661 611 629 c 2,49,-1
 611 498 l 2,50,51
 611 491 611 491 610.5 481 c 128,-1,52
 610 471 610 471 607 462 c 128,-1,53
 604 453 604 453 598.5 447 c 128,-1,54
 593 441 593 441 582 441 c 0,55,56
 565 441 565 441 551.5 452.5 c 128,-1,57
 538 464 538 464 538 481 c 0,58,59
 538 520 538 520 534 548 c 128,-1,60
 530 576 530 576 517 594 c 128,-1,61
 504 612 504 612 479 620.5 c 128,-1,62
 454 629 454 629 412 629 c 0,63,64
 391 629 391 629 370.5 628.5 c 128,-1,65
 350 628 350 628 330 628 c 0,66,67
 287 628 287 628 264 609 c 128,-1,68
 241 590 241 590 241 542 c 0,69,70
 241 525 241 525 241.5 508 c 128,-1,71
 242 491 242 491 242 473 c 0,72,73
 242 441 242 441 253 422 c 128,-1,74
 264 403 264 403 301 403 c 2,75,-1
 320 403 l 2,76,77
 343 403 343 403 354.5 416 c 128,-1,78
 366 429 366 429 368 449 c 0,79,80
 370 460 370 460 372 472 c 128,-1,81
 374 484 374 484 379 495 c 0,82,83
 384 505 384 505 391 511 c 128,-1,84
 398 517 398 517 412 517 c 0,85,86
 429 517 429 517 434 503.5 c 128,-1,87
 439 490 439 490 439 471 c 2,88,-1
 439 258 l 2,89,90
 439 240 439 240 434 226.5 c 128,-1,91
 429 213 429 213 412 213 c 0,92,93
 398 213 398 213 391 219 c 128,-1,94
 384 225 384 225 379 235 c 256,95,96
 374 245 374 245 372 257.5 c 128,-1,97
 370 270 370 270 368 281 c 0,98,99
 366 301 366 301 354.5 313.5 c 128,-1,100
 343 326 343 326 320 326 c 2,101,-1
 302 326 l 2,102,103
 282 326 282 326 270 320 c 128,-1,104
 258 314 258 314 252 303 c 128,-1,105
 246 292 246 292 244 278 c 128,-1,106
 242 264 242 264 242 247 c 0,107,108
 242 227 242 227 241.5 206.5 c 128,-1,109
 241 186 241 186 241 165 c 0,110,111
 241 145 241 145 243.5 128 c 128,-1,112
 246 111 246 111 253.5 99 c 128,-1,113
 261 87 261 87 274.5 80 c 128,-1,114
 288 73 288 73 311 73 c 0,115,116
 321 73 321 73 332.5 72 c 128,-1,117
 344 71 344 71 354 68 c 0,118,119
 363 64 363 64 369 57.5 c 128,-1,120
 375 51 375 51 375 40 c 0,121,122
 375 26 375 26 367 18 c 128,-1,123
 359 10 359 10 346 5 c 0,124,125
 333 1 333 1 318 0 c 128,-1,126
 303 -1 303 -1 291 -1 c 2,127,-1
 124 -1 l 2,0,1
EndSplineSet
Validated: 1
EndChar

StartChar: G
Encoding: 71 71 78
Width: 650
Flags: W
HStem: 0 77<235.995 376.502> 247 77<360.798 425.812 525.668 589.916> 623 76<239.74 371.899>
VStem: 41 91<201.377 501.076> 432 89<134.007 235.2>
LayerCount: 2
Fore
SplineSet
41 357 m 256,0,1
 41 435 41 435 59 498 c 128,-1,2
 77 561 77 561 111 606 c 128,-1,3
 145 651 145 651 192.5 675 c 128,-1,4
 240 699 240 699 299 699 c 0,5,6
 335 699 335 699 364.5 690.5 c 128,-1,7
 394 682 394 682 422 664 c 1,8,9
 431 664 431 664 437 669 c 128,-1,10
 443 674 443 674 449 680.5 c 128,-1,11
 455 687 455 687 462.5 692 c 128,-1,12
 470 697 470 697 482 697 c 0,13,14
 500 697 500 697 507 682.5 c 128,-1,15
 514 668 514 668 514 630 c 0,16,17
 514 604 514 604 512.5 570.5 c 128,-1,18
 511 537 511 537 511 512 c 0,19,20
 511 473 511 473 502 458 c 128,-1,21
 493 443 493 443 470 443 c 0,22,23
 456 443 456 443 448.5 448 c 128,-1,24
 441 453 441 453 437.5 461 c 128,-1,25
 434 469 434 469 432.5 479.5 c 128,-1,26
 431 490 431 490 429 502 c 0,27,28
 418 555 418 555 385.5 589 c 128,-1,29
 353 623 353 623 312 623 c 0,30,31
 286 623 286 623 251.5 607 c 128,-1,32
 217 591 217 591 192 566 c 0,33,34
 132 506 132 506 132 348 c 0,35,36
 132 313 132 313 133.5 277.5 c 128,-1,37
 135 242 135 242 145 213 c 0,38,39
 154 185 154 185 171.5 160 c 128,-1,40
 189 135 189 135 211 116.5 c 128,-1,41
 233 98 233 98 257.5 87.5 c 128,-1,42
 282 77 282 77 306 77 c 0,43,44
 332 77 332 77 355 87 c 128,-1,45
 378 97 378 97 395 114.5 c 128,-1,46
 412 132 412 132 422 155 c 128,-1,47
 432 178 432 178 432 204 c 0,48,49
 432 226 432 226 426 235.5 c 128,-1,50
 420 245 420 245 411 248 c 128,-1,51
 402 251 402 251 391.5 250.5 c 128,-1,52
 381 250 381 250 372 251.5 c 128,-1,53
 363 253 363 253 357 258.5 c 128,-1,54
 351 264 351 264 351 280 c 0,55,56
 351 300 351 300 360.5 310 c 128,-1,57
 370 320 370 320 384.5 324 c 128,-1,58
 399 328 399 328 416.5 328.5 c 128,-1,59
 434 329 434 329 450 329 c 0,60,61
 469 329 469 329 491.5 329.5 c 128,-1,62
 514 330 514 330 528 330 c 0,63,64
 572 330 572 330 590.5 320 c 128,-1,65
 609 310 609 310 609 287 c 0,66,67
 609 272 609 272 602.5 264.5 c 128,-1,68
 596 257 596 257 586.5 253 c 128,-1,69
 577 249 577 249 566 247 c 128,-1,70
 555 245 555 245 545.5 241.5 c 128,-1,71
 536 238 536 238 529.5 231 c 128,-1,72
 523 224 523 224 523 210 c 0,73,74
 523 204 523 204 522 182.5 c 128,-1,75
 521 161 521 161 521 136 c 0,76,77
 521 72 521 72 508 36 c 128,-1,78
 495 0 495 0 472 0 c 0,79,80
 461 0 461 0 454.5 5.5 c 128,-1,81
 448 11 448 11 443 18 c 128,-1,82
 438 25 438 25 433 30.5 c 128,-1,83
 428 36 428 36 419 36 c 256,84,85
 410 36 410 36 398 30.5 c 128,-1,86
 386 25 386 25 369.5 18 c 128,-1,87
 353 11 353 11 332 5.5 c 128,-1,88
 311 0 311 0 284 0 c 0,89,90
 231 0 231 0 186.5 26.5 c 128,-1,91
 142 53 142 53 109.5 100.5 c 128,-1,92
 77 148 77 148 59 213.5 c 128,-1,93
 41 279 41 279 41 357 c 256,0,1
EndSplineSet
Validated: 1
EndChar

StartChar: H
Encoding: 72 72 79
Width: 650
Flags: W
HStem: 0 73<41.1895 114.287 213.346 293.322 375.345 419> 336 70<236.156 441.558> 627 72<55.47 126.031 227.923 286.655 374.8 443.13 542.923 601.655>
VStem: 135 79<93.1189 316.916 409.126 618.797> 449 80<85.2517 330.821 413.911 622.262>
LayerCount: 2
Fore
SplineSet
80 75 m 0,0,1
 91 77 91 77 100.5 82 c 128,-1,2
 110 87 110 87 117 99 c 128,-1,3
 124 111 124 111 128.5 131 c 128,-1,4
 133 151 133 151 133 182 c 0,5,6
 133 274 133 274 134 364.5 c 128,-1,7
 135 455 135 455 135 546 c 0,8,9
 135 562 135 562 134 576.5 c 128,-1,10
 133 591 133 591 127.5 602.5 c 128,-1,11
 122 614 122 614 110.5 620.5 c 128,-1,12
 99 627 99 627 77 627 c 0,13,14
 60 627 60 627 50 632.5 c 128,-1,15
 40 638 40 638 40 656 c 0,16,17
 40 677 40 677 55 688 c 128,-1,18
 70 699 70 699 90 699 c 2,19,-1
 251 699 l 2,20,21
 265 699 265 699 275 696 c 0,22,23
 298 691 298 691 298 668 c 0,24,25
 298 643 298 643 287 637.5 c 128,-1,26
 276 632 276 632 261 630 c 0,27,28
 241 630 241 630 227.5 622.5 c 128,-1,29
 214 615 214 615 214 593 c 2,30,-1
 214 438 l 2,31,32
 214 426 214 426 221 419.5 c 128,-1,33
 228 413 228 413 236 409 c 0,34,35
 241 408 241 408 246 407.5 c 128,-1,36
 251 407 251 407 256 406 c 2,37,-1
 366 406 l 2,38,39
 382 406 382 406 397 406.5 c 128,-1,40
 412 407 412 407 423.5 412 c 128,-1,41
 435 417 435 417 442 428.5 c 128,-1,42
 449 440 449 440 449 461 c 2,43,-1
 449 569 l 2,44,45
 449 589 449 589 445 600.5 c 128,-1,46
 441 612 441 612 434.5 618 c 128,-1,47
 428 624 428 624 420 626 c 128,-1,48
 412 628 412 628 403 628 c 0,49,50
 398 629 398 629 394.5 629 c 128,-1,51
 391 629 391 629 387 629 c 0,52,53
 373 632 373 632 369 639 c 128,-1,54
 365 646 365 646 365 660 c 0,55,56
 365 681 365 681 374.5 690 c 128,-1,57
 384 699 384 699 406 699 c 2,58,-1
 567 699 l 2,59,60
 580 699 580 699 590 696 c 0,61,62
 613 691 613 691 613 668 c 0,63,64
 613 643 613 643 602 637.5 c 128,-1,65
 591 632 591 632 576 630 c 0,66,67
 556 630 556 630 542.5 622.5 c 128,-1,68
 529 615 529 615 529 593 c 2,69,-1
 529 103 l 2,70,71
 529 89 529 89 542 84 c 128,-1,72
 555 79 555 79 566 77 c 0,73,74
 572 75 572 75 578.5 74.5 c 128,-1,75
 585 74 585 74 591 73 c 0,76,77
 605 71 605 71 607 69 c 0,78,79
 613 65 613 65 615 56 c 0,80,81
 616 53 616 53 616 47 c 0,82,83
 616 19 616 19 610.5 9.5 c 128,-1,84
 605 0 605 0 575 0 c 2,85,-1
 432 0 l 2,86,87
 421 0 421 0 408.5 0.5 c 128,-1,88
 396 1 396 1 385 5 c 0,89,90
 376 8 376 8 370 15 c 128,-1,91
 364 22 364 22 364 35 c 0,92,93
 364 56 364 56 375 62.5 c 128,-1,94
 386 69 386 69 403 71 c 2,95,-1
 419 74 l 2,96,97
 433 77 433 77 441 85 c 128,-1,98
 449 93 449 93 449 108 c 2,99,-1
 449 286 l 2,100,101
 449 305 449 305 444 315 c 128,-1,102
 439 325 439 325 430 329.5 c 128,-1,103
 421 334 421 334 408.5 335 c 128,-1,104
 396 336 396 336 381 336 c 2,105,-1
 288 336 l 2,106,107
 243 336 243 336 228.5 317.5 c 128,-1,108
 214 299 214 299 214 256 c 0,109,110
 214 218 214 218 213 179.5 c 128,-1,111
 212 141 212 141 212 103 c 0,112,113
 212 89 212 89 224.5 83.5 c 128,-1,114
 237 78 237 78 248 76 c 0,115,116
 255 75 255 75 261.5 74.5 c 128,-1,117
 268 74 268 74 274 72 c 0,118,119
 282 71 282 71 289 68.5 c 128,-1,120
 296 66 296 66 298 56 c 0,121,122
 299 53 299 53 299 47 c 0,123,124
 299 19 299 19 293.5 9.5 c 128,-1,125
 288 0 288 0 258 0 c 2,126,-1
 102 0 l 2,127,128
 74 0 74 0 54.5 6 c 128,-1,129
 35 12 35 12 35 41 c 0,130,131
 35 58 35 58 41 63.5 c 128,-1,132
 47 69 47 69 61 72 c 0,133,134
 66 73 66 73 70.5 73 c 128,-1,135
 75 73 75 73 80 75 c 0,0,1
EndSplineSet
Validated: 1
EndChar

StartChar: I
Encoding: 73 73 80
Width: 650
Flags: W
HStem: 0 77.3333<103.985 266.714 362.52 546.166> 620 79<93.9965 267.053 365.315 544.984>
VStem: 276 81<90.3176 610.625>
LayerCount: 2
Fore
SplineSet
255 612 m 0,0,1
 250 616 250 616 244 617 c 128,-1,2
 238 618 238 618 230 619 c 0,3,4
 223 620 223 620 214.5 620 c 128,-1,5
 206 620 206 620 196 620 c 256,6,7
 186 620 186 620 168 620 c 128,-1,8
 150 620 150 620 131 624 c 0,9,10
 111 629 111 629 100 636.5 c 128,-1,11
 89 644 89 644 89 656 c 0,12,13
 89 671 89 671 94.5 680 c 128,-1,14
 100 689 100 689 109.5 693.5 c 128,-1,15
 119 698 119 698 131 699 c 128,-1,16
 143 700 143 700 156 700 c 0,17,18
 164 700 164 700 173 700 c 128,-1,19
 182 700 182 700 190 699 c 2,20,-1
 270 699 l 1,21,-1
 429 698 l 1,22,-1
 509 698 l 2,23,24
 529 698 529 698 545.5 692 c 128,-1,25
 562 686 562 686 562 662 c 0,26,27
 562 647 562 647 552.5 638.5 c 128,-1,28
 543 630 543 630 528 625 c 0,29,30
 511 620 511 620 493.5 619 c 128,-1,31
 476 618 476 618 459 618 c 2,32,-1
 435 620 l 2,33,34
 408 620 408 620 392.5 616 c 128,-1,35
 377 612 377 612 368.5 602.5 c 128,-1,36
 360 593 360 593 358 576 c 128,-1,37
 356 559 356 559 356 533 c 2,38,-1
 356 433 l 1,39,-1
 357 232 l 1,40,-1
 357 131 l 2,41,42
 357 112 357 112 361.5 101.5 c 128,-1,43
 366 91 366 91 373.5 85.5 c 128,-1,44
 381 80 381 80 392.5 79 c 128,-1,45
 404 78 404 78 417 78 c 0,46,47
 436 78 436 78 454 77.5 c 128,-1,48
 472 77 472 77 490 77 c 0,49,50
 500 77 500 77 511 75 c 128,-1,51
 522 73 522 73 531 68.5 c 128,-1,52
 540 64 540 64 545.5 56.5 c 128,-1,53
 551 49 551 49 551 37 c 0,54,55
 551 24 551 24 545 16 c 128,-1,56
 539 8 539 8 529.5 4.5 c 128,-1,57
 520 1 520 1 508.5 0 c 128,-1,58
 497 -1 497 -1 487 -1 c 2,59,-1
 398 -1 l 1,60,-1
 218 0 l 1,61,-1
 129 0 l 2,62,63
 112 0 112 0 100 9.5 c 128,-1,64
 88 19 88 19 88 38 c 0,65,66
 88 60 88 60 103.5 67.5 c 128,-1,67
 119 75 119 75 139 76 c 0,68,69
 154.333333333 77.3333333333 154.333333333 77.3333333333 169.444444444 77.3333333333 c 0,70,71
 177 77.3333333333 177 77.3333333333 184.5 77 c 128,-1,72
 192 76.6666666667 192 76.6666666667 199.555555556 76.6666666667 c 0,73,74
 214.666666667 76.6666666667 214.666666667 76.6666666667 230 78 c 0,75,76
 258 80 258 80 267 90 c 128,-1,77
 276 100 276 100 276 131 c 2,78,-1
 276 236 l 1,79,-1
 275 446 l 1,80,-1
 275 551 l 2,81,82
 275 576 275 576 270.5 590 c 128,-1,83
 266 604 266 604 255 612 c 0,0,1
EndSplineSet
Validated: 524289
EndChar

StartChar: J
Encoding: 74 74 81
Width: 650
Flags: W
HStem: -1 78<170.505 325.405> 612 89.5<234.306 353.138 459.683 598.077> 612 77.5<212.746 353.138>
VStem: 39 100<106.267 161.047> 370 80<129.516 601.716>
LayerCount: 2
Fore
SplineSet
373 506 m 0,0,1
 373 549 373 549 369 571 c 128,-1,2
 365 593 365 593 353.5 602 c 128,-1,3
 342 611 342 611 321.5 611.5 c 128,-1,4
 301 612 301 612 268 612 c 0,5,6
 208 612 208 612 208 653 c 0,7,8
 208 679 208 679 233.5 689.5 c 128,-1,9
 259 700 259 700 320 700 c 0,10,11
 332 700 332 700 354 700.5 c 128,-1,12
 376 701 376 701 402.5 701 c 128,-1,13
 429 701 429 701 456.5 701.5 c 128,-1,14
 484 702 484 702 506 702 c 0,15,16
 538 702 538 702 558.5 700 c 128,-1,17
 579 698 579 698 591 693.5 c 128,-1,18
 603 689 603 689 607.5 681 c 128,-1,19
 612 673 612 673 612 661 c 0,20,21
 612 638 612 638 598.5 627.5 c 128,-1,22
 585 617 585 617 566 613.5 c 0,23,24
 551.222222222 610.777777778 551.222222222 610.777777778 536.141975309 610.777777778 c 0,25,26
 531.833333333 610.777777778 531.833333333 610.777777778 527.5 611 c 0,27,28
 508 612 508 612 497 612 c 0,29,30
 483 612 483 612 474 608 c 128,-1,31
 465 604 465 604 460.5 592.5 c 128,-1,32
 456 581 456 581 454.5 560 c 128,-1,33
 453 539 453 539 453 504 c 0,34,35
 453 476 453 476 452.5 439 c 128,-1,36
 452 402 452 402 451.5 366.5 c 128,-1,37
 451 331 451 331 450.5 302 c 128,-1,38
 450 273 450 273 450 259 c 0,39,40
 450 132 450 132 399 65.5 c 128,-1,41
 348 -1 348 -1 251 -1 c 0,42,43
 206 -1 206 -1 167 12 c 128,-1,44
 128 25 128 25 99.5 47.5 c 128,-1,45
 71 70 71 70 55 100.5 c 128,-1,46
 39 131 39 131 39 167 c 0,47,48
 39 193 39 193 46 215 c 128,-1,49
 53 237 53 237 65 254 c 128,-1,50
 77 271 77 271 93 280.5 c 128,-1,51
 109 290 109 290 127 290 c 0,52,53
 156 290 156 290 175 268 c 128,-1,54
 194 246 194 246 194 213 c 0,55,56
 194 190 194 190 183 178 c 128,-1,57
 172 166 172 166 139 149 c 1,58,59
 139 117 139 117 173.5 97 c 128,-1,60
 208 77 208 77 262 77 c 0,61,62
 320 77 320 77 345 122 c 128,-1,63
 370 167 370 167 370 269 c 0,64,65
 370 285 370 285 370.5 318.5 c 128,-1,66
 371 352 371 352 371.5 388.5 c 128,-1,67
 372 425 372 425 372.5 458 c 128,-1,68
 373 491 373 491 373 506 c 0,0,1
EndSplineSet
Validated: 8912897
EndChar

StartChar: K
Encoding: 75 75 82
Width: 650
Flags: W
HStem: 0 82<33.8602 97.8118 187.188 253.432 360.25 401.998 508.045 609.558> 623.5 75.5<190.871 246.983> 633 63<562.984 629.99>
VStem: 104 77<98.2527 303.653 389.003 612.666>
LayerCount: 2
Fore
SplineSet
402 85 m 0,0,1
 402 92 402 92 393 112 c 128,-1,2
 384 132 384 132 371 159 c 128,-1,3
 358 186 358 186 341.5 215.5 c 128,-1,4
 325 245 325 245 311 271 c 128,-1,5
 297 297 297 297 286 316 c 128,-1,6
 275 335 275 335 272 339 c 0,7,8
 264 352 264 352 257 352 c 0,9,10
 254 352 254 352 246 345.5 c 128,-1,11
 238 339 238 339 228 329.5 c 128,-1,12
 218 320 218 320 208.5 310 c 128,-1,13
 199 300 199 300 194 292 c 0,14,15
 181 273 181 273 181 247 c 2,16,-1
 181 125 l 2,17,18
 181 106 181 106 187 98 c 128,-1,19
 193 90 193 90 201.5 87.5 c 128,-1,20
 210 85 210 85 220.5 85.5 c 128,-1,21
 231 86 231 86 239.5 84 c 128,-1,22
 248 82 248 82 254 75.5 c 128,-1,23
 260 69 260 69 260 53 c 0,24,25
 260 30 260 30 249.5 15 c 128,-1,26
 239 0 239 0 226 0 c 2,27,-1
 60 0 l 2,28,29
 45 0 45 0 33.5 13.5 c 128,-1,30
 22 27 22 27 22 51 c 0,31,32
 22 68 22 68 28 75 c 128,-1,33
 34 82 34 82 43 84 c 128,-1,34
 52 86 52 86 63 85.5 c 128,-1,35
 74 85 74 85 83 86.5 c 128,-1,36
 92 88 92 88 98 94 c 128,-1,37
 104 100 104 100 104 115 c 2,38,-1
 104 599 l 2,39,40
 104 607 104 607 90.5 610.5 c 128,-1,41
 77 614 77 614 61.5 618.5 c 128,-1,42
 46 623 46 623 32.5 631 c 128,-1,43
 19 639 19 639 19 655 c 0,44,45
 19 678 19 678 46 689 c 128,-1,46
 73 700 73 700 114 700 c 0,47,48
 133 700 133 700 158.5 701 c 0,49,50
 164.875 701.25 164.875 701.25 171.125 701.25 c 0,51,52
 189.875 701.25 189.875 701.25 207.5 699 c 0,53,54
 231 696 231 696 247.5 685.5 c 128,-1,55
 264 675 264 675 264 652 c 0,56,57
 264 638 264 638 258 632 c 128,-1,58
 252 626 252 626 242.5 623.5 c 128,-1,59
 233 621 233 621 222.5 619.5 c 128,-1,60
 212 618 212 618 202.5 612.5 c 128,-1,61
 193 607 193 607 187 595 c 128,-1,62
 181 583 181 583 181 561 c 0,63,64
 181 557 181 557 181 541 c 128,-1,65
 181 525 181 525 181.5 505.5 c 128,-1,66
 182 486 182 486 182 466.5 c 128,-1,67
 182 447 182 447 182 436 c 0,68,69
 182 414 182 414 182 401.5 c 128,-1,70
 182 389 182 389 185 389 c 0,71,72
 188 391 188 391 204 407.5 c 128,-1,73
 220 424 220 424 242.5 448.5 c 128,-1,74
 265 473 265 473 290.5 500.5 c 128,-1,75
 316 528 316 528 338 552 c 128,-1,76
 360 576 360 576 374.5 592.5 c 128,-1,77
 389 609 389 609 389 611 c 2,78,-1
 386 615 l 1,79,80
 374 623 374 623 365 630.5 c 128,-1,81
 356 638 356 638 356 655 c 0,82,83
 356 700 356 700 440 700 c 2,84,-1
 538 700 l 2,85,86
 547 700 547 700 562.5 699.5 c 128,-1,87
 578 699 578 699 593.5 696 c 128,-1,88
 609 693 609 693 620.5 686 c 128,-1,89
 632 679 632 679 632 665 c 0,90,91
 632 652 632 652 621.5 644.5 c 128,-1,92
 611 637 611 637 597 633 c 128,-1,93
 583 629 583 629 568.5 627.5 c 128,-1,94
 554 626 554 626 545 624 c 0,95,96
 528 621 528 621 507.5 609 c 128,-1,97
 487 597 487 597 455 565 c 0,98,99
 443 553 443 553 421 530 c 128,-1,100
 399 507 399 507 378 482.5 c 128,-1,101
 357 458 357 458 341 438 c 128,-1,102
 325 418 325 418 325 412 c 0,103,104
 325 407 325 407 335 387.5 c 128,-1,105
 345 368 345 368 360 341 c 128,-1,106
 375 314 375 314 392 284 c 128,-1,107
 409 254 409 254 424.5 228 c 128,-1,108
 440 202 440 202 450.5 185 c 128,-1,109
 461 168 461 168 462 166 c 0,110,111
 480 135 480 135 492.5 120 c 128,-1,112
 505 105 505 105 515.5 98 c 128,-1,113
 526 91 526 91 537 90 c 128,-1,114
 548 89 548 89 563 87 c 0,115,116
 596 82 596 82 610 71 c 128,-1,117
 624 60 624 60 624 43 c 256,118,119
 624 26 624 26 614 13 c 128,-1,120
 604 0 604 0 591 0 c 2,121,-1
 394 0 l 2,122,123
 352 0 352 0 352 46 c 0,124,125
 352 69 352 69 360 75.5 c 128,-1,126
 368 82 368 82 377 82 c 0,127,128
 387 82 387 82 394.5 80.5 c 128,-1,129
 402 79 402 79 402 85 c 0,0,1
EndSplineSet
Validated: 8912897
EndChar

StartChar: L
Encoding: 76 76 83
Width: 650
Flags: W
HStem: -0.5 91.5<58.2822 158.718 267.926 491.529> 8 78.5<58.2822 108.016> 606 94<260.83 394.077> 613.5 86.5<59.3137 160.718>
VStem: 168 82<108.315 587.558> 522 78<107.824 308.686>
LayerCount: 2
Fore
SplineSet
371 700 m 2,0,1
 388 700 388 700 398 686.5 c 128,-1,2
 408 673 408 673 408 650 c 0,3,4
 408 622 408 622 394.5 614 c 128,-1,5
 381 606 381 606 361 606 c 0,6,7
 343 606 343 606 323.5 608 c 0,8,9
 317 608.666666667 317 608.666666667 310.833333333 608.666666667 c 0,10,11
 298.5 608.666666667 298.5 608.666666667 287.5 606 c 0,12,13
 271 602 271 602 260.5 588 c 128,-1,14
 250 574 250 574 250 542 c 2,15,-1
 250 185 l 2,16,17
 250 155 250 155 252 136.5 c 128,-1,18
 254 118 254 118 267.5 108 c 128,-1,19
 281 98 281 98 311.5 94.5 c 128,-1,20
 342 91 342 91 399 91 c 0,21,22
 431 91 431 91 454 91 c 128,-1,23
 477 91 477 91 492 100.5 c 128,-1,24
 507 110 507 110 514.5 133.5 c 128,-1,25
 522 157 522 157 522 205 c 0,26,27
 522 226 522 226 521.5 246.5 c 0,28,29
 521.428571429 249.428571429 521.428571429 249.428571429 521.428571429 252.265306122 c 0,30,31
 521.428571429 269.285714286 521.428571429 269.285714286 524 283 c 0,32,33
 527 299 527 299 535 309 c 128,-1,34
 543 319 543 319 560 319 c 0,35,36
 576 319 576 319 584.5 310.5 c 128,-1,37
 593 302 593 302 596.5 289 c 128,-1,38
 600 276 600 276 600.5 259.5 c 128,-1,39
 601 243 601 243 601 226 c 0,40,41
 601 193 601 193 600.5 159.5 c 128,-1,42
 600 126 600 126 600 113 c 0,43,44
 600 71 600 71 597 48 c 128,-1,45
 594 25 594 25 577.5 14.5 c 128,-1,46
 561 4 561 4 526.5 2 c 128,-1,47
 492 0 492 0 428 0 c 0,48,49
 416 0 416 0 388.5 0 c 128,-1,50
 361 0 361 0 329 -0.5 c 128,-1,51
 297 -1 297 -1 265.5 -1 c 128,-1,52
 234 -1 234 -1 216 -1 c 0,53,54
 164 -1 164 -1 131.5 1 c 128,-1,55
 99 3 99 3 80.5 8 c 128,-1,56
 62 13 62 13 55.5 22 c 128,-1,57
 49 31 49 31 49 45 c 0,58,59
 49 65 49 65 58 74 c 128,-1,60
 67 83 67 83 80 86.5 c 128,-1,61
 93 90 93 90 108.5 90.5 c 128,-1,62
 124 91 124 91 137 94.5 c 128,-1,63
 150 98 150 98 159 106.5 c 128,-1,64
 168 115 168 115 168 134 c 0,65,66
 168 139 168 139 168.5 145.5 c 128,-1,67
 169 152 169 152 169 163 c 2,68,-1
 170 573 l 2,69,70
 170 589 170 589 161 596 c 128,-1,71
 152 603 152 603 138.5 605.5 c 128,-1,72
 125 608 125 608 109.5 609 c 128,-1,73
 94 610 94 610 80.5 613.5 c 128,-1,74
 67 617 67 617 58 625.5 c 128,-1,75
 49 634 49 634 49 653 c 0,76,77
 49 673 49 673 59 686.5 c 128,-1,78
 69 700 69 700 84 700 c 2,79,-1
 371 700 l 2,0,1
EndSplineSet
Validated: 8912897
EndChar

StartChar: M
Encoding: 77 77 84
Width: 650
Flags: W
HStem: 0 73<-3.10706 72.2919 597.25 644.844> 0 64<597.25 658.812> 627 72<585.016 643.52>
VStem: 82.6 73.9<96.0485 537> 511 74<75.1577 536>
LayerCount: 2
Fore
SplineSet
157 537 m 1,0,-1
 157 375 l 1,1,-1
 156 252 l 1,2,-1
 156 191 l 2,3,4
 156 176 156 176 156.5 159.5 c 128,-1,5
 157 143 157 143 160.5 127 c 128,-1,6
 164 111 164 111 171.5 97 c 128,-1,7
 179 83 179 83 193 74 c 0,8,9
 198 71 198 71 202.5 69 c 128,-1,10
 207 67 207 67 211 64 c 0,11,12
 219 59 219 59 224 51.5 c 128,-1,13
 229 44 229 44 229 29 c 0,14,15
 229 9 229 9 219 4.5 c 128,-1,16
 209 0 209 0 190 0 c 2,17,-1
 31 0 l 2,18,19
 9 0 9 0 -3.5 9.5 c 128,-1,20
 -16 19 -16 19 -16 42 c 0,21,22
 -16 62 -16 62 -8.5 67 c 128,-1,23
 -1 72 -1 72 11 73 c 0,24,25
 18 74 18 74 24.5 74 c 128,-1,26
 31 74 31 74 39 75 c 0,27,28
 66 78 66 78 72.5 95.5 c 128,-1,29
 79 113 79 113 81 137 c 0,30,31
 82.6 149.8 82.6 149.8 82.6 162.28 c 0,32,33
 82.6 165.4 82.6 165.4 82.5 168.5 c 0,34,35
 82 184 82 184 82 193 c 2,36,-1
 82 468 l 2,37,38
 82 484 82 484 82.5 501.5 c 128,-1,39
 83 519 83 519 83 538 c 256,40,41
 83 557 83 557 82 574.5 c 128,-1,42
 81 592 81 592 78 608 c 0,43,44
 77 617 77 617 66 624 c 0,45,46
 64 625 64 625 62 626 c 128,-1,47
 60 627 60 627 57 628 c 2,48,-1
 48 631 l 2,49,50
 39 635 39 635 32.5 641 c 128,-1,51
 26 647 26 647 26 661 c 0,52,53
 26 686 26 686 45.5 694.5 c 128,-1,54
 65 703 65 703 85 703 c 0,55,56
 93 704 93 704 100.5 704 c 128,-1,57
 108 704 108 704 114 704 c 0,58,59
 141 704 141 704 159.5 695 c 128,-1,60
 178 686 178 686 191.5 671 c 128,-1,61
 205 656 205 656 214.5 635.5 c 128,-1,62
 224 615 224 615 233 592 c 0,63,64
 254 535 254 535 270.5 477.5 c 128,-1,65
 287 420 287 420 306 362 c 0,66,67
 311 346 311 346 316 330.5 c 128,-1,68
 321 315 321 315 328 298 c 1,69,-1
 328 296 l 2,70,71
 330 294 330 294 333 294 c 0,72,73
 335 294 335 294 337 296 c 2,74,-1
 340 301 l 2,75,76
 342 303 342 303 342.5 306.5 c 128,-1,77
 343 310 343 310 345 314 c 0,78,79
 347 322 347 322 349 328 c 128,-1,80
 351 334 351 334 352 336 c 0,81,82
 377 411 377 411 403.5 485.5 c 128,-1,83
 430 560 430 560 458 635 c 0,84,85
 482 700 482 700 549 700 c 0,86,87
 556 700 556 700 563.5 700 c 128,-1,88
 571 700 571 700 580 699 c 0,89,90
 591 699 591 699 603.5 697 c 128,-1,91
 616 695 616 695 626.5 690 c 128,-1,92
 637 685 637 685 644 676.5 c 128,-1,93
 651 668 651 668 651 654 c 256,94,95
 651 640 651 640 646.5 635 c 128,-1,96
 642 630 642 630 634 628 c 0,97,98
 633 628 633 628 632.5 627.5 c 128,-1,99
 632 627 632 627 630 627 c 2,100,-1
 621 627 l 2,101,102
 620 627 620 627 619 626.5 c 128,-1,103
 618 626 618 626 616 626 c 0,104,105
 611 625 611 625 606 624.5 c 128,-1,106
 601 624 601 624 596 622 c 0,107,108
 589 619 589 619 586 611 c 2,109,-1
 585 608 l 1,110,-1
 585 98 l 1,111,-1
 586 93 l 1,112,-1
 586 91 l 1,113,114
 590 80 590 80 597 75 c 0,115,116
 605 72 605 72 611 70.5 c 128,-1,117
 617 69 617 69 623 67 c 0,118,119
 629 66 629 66 634.5 65.5 c 128,-1,120
 640 65 640 65 645 64 c 0,121,122
 653 61 653 61 659 53 c 128,-1,123
 665 45 665 45 665 24 c 0,124,125
 665 7 665 7 659.5 3.5 c 128,-1,126
 654 0 654 0 637 0 c 2,127,-1
 478 0 l 2,128,129
 461 0 461 0 445.5 4.5 c 128,-1,130
 430 9 430 9 430 29 c 0,131,132
 430 38 430 38 433 43 c 128,-1,133
 436 48 436 48 441 51 c 0,134,135
 449 55 449 55 454 56 c 2,136,-1
 456 57 l 1,137,-1
 457 57 l 1,138,-1
 464 59 l 1,139,-1
 465 59 l 1,140,-1
 467 60 l 2,141,142
 484 65 484 65 497.5 74 c 128,-1,143
 511 83 511 83 511 111 c 2,144,-1
 511 536 l 1,145,-1
 510 537 l 2,146,147
 508 539 508 539 505 539 c 2,148,-1
 503 537 l 2,149,150
 501 535 501 535 500 533 c 0,151,152
 498 531 498 531 497.5 528.5 c 128,-1,153
 497 526 497 526 495 524 c 0,154,155
 493 519 493 519 491.5 514.5 c 128,-1,156
 490 510 490 510 489 508 c 0,157,158
 474 468 474 468 460.5 427 c 128,-1,159
 447 386 447 386 433 345 c 0,160,161
 429 334 429 334 419.5 304.5 c 128,-1,162
 410 275 410 275 399 243 c 0,163,164
 387 211 387 211 375.5 185 c 128,-1,165
 364 159 364 159 356 154 c 0,166,167
 351 150 351 150 344.5 149 c 128,-1,168
 338 148 338 148 332 148 c 0,169,170
 325 148 325 148 319.5 149 c 128,-1,171
 314 150 314 150 309 154 c 0,172,173
 299 162 299 162 284 201.5 c 128,-1,174
 269 241 269 241 252 290 c 0,175,176
 236 339 236 339 223 384 c 128,-1,177
 210 429 210 429 203 448 c 0,178,179
 201 453 201 453 196.5 467.5 c 128,-1,180
 192 482 192 482 186 498 c 0,181,182
 183 506 183 506 179.5 513.5 c 128,-1,183
 176 521 176 521 173 526 c 0,184,185
 170 532 170 532 167 535 c 0,186,187
 163 539 163 539 159 538 c 2,188,-1
 157 537 l 1,0,-1
EndSplineSet
Validated: 8912897
EndChar

StartChar: N
Encoding: 78 78 85
Width: 650
Flags: W
HStem: 0 81<48.353 117.366> 621 79<542.656 574 582 583> 629.5 69.5<54.6676 116.719 366.736 444.226>
VStem: 136 67<125.949 601.656> 451 74<199.547 604.01>
LayerCount: 2
Fore
SplineSet
451 204 m 0,0,1
 453 259 453 259 453 304 c 128,-1,2
 453 349 453 349 452.5 391.5 c 128,-1,3
 452 434 452 434 451.5 479 c 128,-1,4
 451 524 451 524 451 579 c 0,5,6
 451 594 451 594 446.5 603.5 c 128,-1,7
 442 613 442 613 434.5 618.5 c 128,-1,8
 427 624 427 624 418 626.5 c 128,-1,9
 409 629 409 629 400 630 c 0,10,11
 394 630 394 630 384 632 c 0,12,13
 380 634 380 634 376.5 635 c 128,-1,14
 373 636 373 636 371 638 c 0,15,16
 366 641 366 641 362.5 646.5 c 128,-1,17
 359 652 359 652 359 663 c 0,18,19
 359 677 359 677 366.5 684.5 c 128,-1,20
 374 692 374 692 387 695 c 0,21,22
 401 699 401 699 414 699.5 c 128,-1,23
 427 700 427 700 441 700 c 2,24,-1
 536 700 l 2,25,26
 549 700 549 700 562 698.5 c 128,-1,27
 575 697 575 697 586 692 c 0,28,29
 597 688 597 688 603 680.5 c 128,-1,30
 609 673 609 673 609 658 c 0,31,32
 609 644 609 644 606 637 c 128,-1,33
 603 630 603 630 598 627 c 0,34,35
 595 624 595 624 585 622 c 2,36,-1
 583 621 l 1,37,-1
 582 621 l 1,38,-1
 574 618 l 2,39,40
 571 618 571 618 570 617 c 0,41,42
 561 614 561 614 552.5 608.5 c 128,-1,43
 544 603 544 603 537.5 591.5 c 128,-1,44
 531 580 531 580 527 562 c 128,-1,45
 523 544 523 544 523 515 c 2,46,-1
 523 467 l 1,47,-1
 525 371 l 1,48,-1
 525 73 l 2,49,50
 525 42 525 42 511 21 c 128,-1,51
 497 0 497 0 466 0 c 0,52,53
 451 0 451 0 443 7 c 0,54,55
 435 13 435 13 428 25 c 128,-1,56
 421 37 421 37 413 53 c 0,57,58
 405 68 405 68 400 82 c 128,-1,59
 395 96 395 96 391 106 c 0,60,61
 344 227 344 227 303.5 344.5 c 128,-1,62
 263 462 263 462 215 582 c 2,63,-1
 207 602 l 1,64,-1
 205 580 l 2,65,66
 203 557 203 557 203 538 c 128,-1,67
 203 519 203 519 203 496 c 2,68,-1
 203 435 l 1,69,-1
 204 313 l 1,70,-1
 204 252 l 2,71,72
 204 234 204 234 205 211 c 128,-1,73
 206 188 206 188 211 165.5 c 128,-1,74
 216 143 216 143 226 123.5 c 128,-1,75
 236 104 236 104 254 93 c 0,76,77
 261 89 261 89 267 86.5 c 128,-1,78
 273 84 273 84 278 81 c 0,79,80
 288 75 288 75 294 67.5 c 128,-1,81
 300 60 300 60 300 45 c 0,82,83
 300 27 300 27 292.5 13.5 c 128,-1,84
 285 0 285 0 268 0 c 2,85,-1
 107 0 l 2,86,87
 96 0 96 0 84.5 1 c 128,-1,88
 73 2 73 2 63 6 c 0,89,90
 41 13 41 13 41 35 c 0,91,92
 41 53 41 53 54.5 67 c 128,-1,93
 68 81 68 81 85 81 c 0,94,95
 98 81 98 81 106.5 89 c 128,-1,96
 115 97 115 97 120.5 109 c 128,-1,97
 126 121 126 121 129 136.5 c 128,-1,98
 132 152 132 152 133 167 c 0,99,100
 135.25 191.75 135.25 191.75 135.25 215.375 c 0,101,102
 135.25 223.25 135.25 223.25 135 231 c 0,103,104
 134 262 134 262 134 276 c 2,105,-1
 134 336 l 1,106,-1
 136 455 l 1,107,-1
 136 546 l 2,108,109
 135 554 135 554 134.5 562.5 c 128,-1,110
 134 571 134 571 132 579 c 0,111,112
 125 605 125 605 109.5 612.5 c 128,-1,113
 94 620 94 620 80 624 c 0,114,115
 75 625 75 625 67 627 c 0,116,117
 64 629 64 629 61.5 629.5 c 128,-1,118
 59 630 59 630 57 632 c 0,119,120
 48 637 48 637 48 653 c 0,121,122
 48 668 48 668 58.5 683.5 c 128,-1,123
 69 699 69 699 83 699 c 2,124,-1
 157 699 l 2,125,126
 174 699 174 699 193 694 c 128,-1,127
 212 689 212 689 229 679.5 c 128,-1,128
 246 670 246 670 260 657 c 128,-1,129
 274 644 274 644 281 628 c 0,130,131
 292 606 292 606 298.5 582 c 128,-1,132
 305 558 305 558 313 535 c 2,133,-1
 400 299 l 2,134,135
 402 293 402 293 407.5 279 c 128,-1,136
 413 265 413 265 419 248 c 0,137,138
 424 233 424 233 429.5 219.5 c 128,-1,139
 435 206 435 206 439 201 c 0,140,141
 442 198 442 198 446.5 199.5 c 128,-1,142
 451 201 451 201 451 204 c 0,0,1
EndSplineSet
Validated: 8912897
EndChar

